{"glyphs":{"0":{"ha":899,"x_min":76,"x_max":822,"o":"m 450 -97 q 167 58 257 -97 q 76 449 76 213 q 167 839 76 685 q 450 993 257 993 q 733 839 643 993 q 822 449 822 685 q 733 58 822 213 q 450 -97 643 -97 m 272 449 q 313 174 272 283 q 450 64 354 64 q 585 174 544 64 q 626 449 626 283 q 585 723 626 614 q 450 832 544 832 q 313 723 354 832 q 272 449 272 614 z "},"1":{"ha":618,"x_min":49,"x_max":563,"o":"m 49 74 l 226 74 l 226 806 l 63 790 l 63 917 l 278 982 l 418 982 l 418 74 l 563 74 l 563 -86 l 49 -86 l 49 74 z "},"2":{"ha":806,"x_min":69,"x_max":757,"o":"m 69 40 l 401 394 q 533 657 533 535 q 487 785 533 735 q 368 835 440 835 q 272 805 317 835 q 196 722 228 775 l 69 814 q 196 945 122 897 q 379 993 269 993 q 565 947 488 993 q 683 822 643 900 q 724 649 724 743 q 671 451 724 546 q 539 278 618 356 l 324 67 q 457 74 400 74 l 757 74 l 757 -86 l 69 -86 l 69 40 z "},"3":{"ha":851,"x_min":49,"x_max":782,"o":"m 410 -97 q 201 -51 296 -97 q 49 85 107 -6 l 174 185 q 273 87 217 114 q 401 60 329 60 q 540 102 489 60 q 590 221 590 144 q 535 338 590 293 q 390 382 481 382 l 268 382 l 268 535 l 353 535 q 505 575 453 535 q 557 693 557 615 q 510 797 557 756 q 385 838 464 838 q 288 808 336 838 q 207 726 239 779 l 82 817 q 212 945 129 897 q 397 993 294 993 q 582 954 504 993 q 701 848 660 915 q 742 700 742 781 q 703 551 742 610 q 613 469 664 492 q 734 381 686 447 q 782 213 782 315 q 739 55 782 125 q 612 -56 696 -15 q 410 -97 528 -97 z "},"4":{"ha":872,"x_min":49,"x_max":838,"o":"m 151 167 q 74 188 100 167 q 49 247 49 210 q 75 333 49 286 l 435 982 l 640 982 l 397 531 l 375 492 q 294 349 322 392 q 289 333 289 339 q 310 322 289 322 l 519 322 l 519 701 l 706 701 l 706 322 l 838 322 l 838 167 l 706 167 l 706 -86 l 519 -86 l 519 167 l 151 167 z "},"5":{"ha":824,"x_min":49,"x_max":754,"o":"m 390 -97 q 179 -44 269 -97 q 49 82 89 8 l 174 182 q 375 60 246 60 q 511 114 458 60 q 564 260 564 168 q 512 398 564 346 q 381 450 460 450 q 287 430 332 450 q 211 382 242 410 l 85 439 l 115 982 l 700 982 l 700 821 l 285 821 l 269 572 q 331 598 286 586 q 419 610 376 610 q 602 561 526 610 q 716 433 678 513 q 754 260 754 353 q 710 74 754 154 q 583 -52 665 -7 q 390 -97 501 -97 z "},"6":{"ha":840,"x_min":76,"x_max":778,"o":"m 440 -97 q 172 25 268 -97 q 76 367 76 147 l 76 432 q 182 860 76 726 q 461 993 288 993 q 740 885 639 993 l 640 769 q 567 823 608 806 q 483 840 526 840 q 331 765 389 840 q 271 524 274 690 q 353 582 297 560 q 463 604 410 604 q 627 560 556 604 q 738 436 699 515 q 778 256 778 357 q 690 0 778 97 q 440 -97 603 -97 m 274 293 q 315 122 272 185 q 431 58 357 58 q 551 110 511 58 q 590 251 590 163 q 549 390 590 335 q 435 444 507 444 q 328 399 369 444 q 274 293 286 354 z "},"7":{"ha":750,"x_min":56,"x_max":701,"o":"m 256 -86 q 284 230 256 89 q 357 487 313 371 q 483 783 401 603 l 500 821 l 56 821 l 56 982 l 701 982 l 701 842 q 561 528 614 667 q 481 240 508 389 q 454 -86 454 92 l 256 -86 z "},"8":{"ha":885,"x_min":63,"x_max":822,"o":"m 442 -97 q 249 -58 336 -97 q 113 54 163 -18 q 63 219 63 126 q 106 383 63 311 q 224 489 150 454 q 135 578 169 519 q 101 708 101 638 q 141 846 101 781 q 258 952 181 911 q 442 993 336 993 q 626 952 549 993 q 743 846 703 911 q 783 708 783 781 q 749 578 783 638 q 661 489 715 519 q 778 383 735 454 q 822 219 822 311 q 772 54 822 126 q 635 -58 722 -18 q 442 -97 547 -97 m 257 228 q 305 108 257 157 q 442 60 353 60 q 579 108 531 60 q 628 228 628 157 q 578 352 628 300 q 442 404 529 404 q 306 352 354 404 q 257 228 257 300 m 292 699 q 333 598 292 639 q 442 557 375 557 q 551 598 510 557 q 593 699 593 639 q 552 795 593 753 q 442 838 511 838 q 332 795 372 838 q 292 699 292 753 z "},"9":{"ha":840,"x_min":63,"x_max":764,"o":"m 379 -97 q 100 11 201 -97 l 200 126 q 273 73 232 90 q 357 56 314 56 q 509 131 451 56 q 569 372 567 206 q 487 314 543 336 q 378 292 431 292 q 213 336 285 292 q 102 460 142 381 q 63 640 63 539 q 150 896 63 799 q 400 993 238 993 q 668 871 572 993 q 764 529 764 749 l 764 464 q 658 36 764 169 q 379 -97 553 -97 m 250 644 q 292 506 250 561 q 406 451 333 451 q 513 497 471 451 q 567 603 554 542 q 526 774 568 711 q 410 838 483 838 q 290 785 329 838 q 250 644 250 733 z "}," ":{"ha":333,"x_min":0,"x_max":0,"o":""}," ":{"ha":333,"x_min":0,"x_max":0,"o":""},"A":{"ha":928,"x_min":28,"x_max":900,"o":"m 361 982 l 567 982 l 900 -86 l 701 -86 l 625 183 l 306 183 l 228 -86 l 28 -86 l 361 982 m 581 339 l 511 582 l 465 763 l 419 582 l 350 339 l 581 339 z "},"Æ":{"ha":1285,"x_min":28,"x_max":1236,"o":"m 669 982 l 1217 982 l 1217 821 l 863 821 l 863 532 l 1181 532 l 1181 376 l 863 376 l 863 75 l 1236 75 l 1236 -86 l 772 -86 q 694 -62 719 -86 q 669 13 669 -39 l 669 183 l 388 183 l 228 -86 l 28 -86 l 669 982 m 669 339 l 669 678 l 631 593 l 479 339 l 669 339 z "},"B":{"ha":958,"x_min":111,"x_max":889,"o":"m 214 -86 q 136 -62 161 -86 q 111 13 111 -39 l 111 982 l 481 982 q 750 905 657 982 q 843 690 843 828 q 732 471 843 538 q 889 217 889 404 q 797 -8 889 69 q 526 -86 704 -86 l 214 -86 m 524 75 q 649 116 601 75 q 696 229 696 157 q 648 342 696 300 q 524 383 600 383 l 304 383 l 304 75 l 524 75 m 478 539 q 607 574 558 539 q 656 679 656 610 q 607 785 656 749 q 478 821 558 821 l 304 821 l 304 539 l 478 539 z "},"C":{"ha":943,"x_min":83,"x_max":901,"o":"m 532 -97 q 303 -32 406 -97 q 142 157 201 33 q 83 449 83 281 q 144 739 83 615 q 306 928 204 863 q 532 993 408 993 q 711 953 628 993 q 850 832 794 913 l 708 743 q 632 813 681 790 q 532 835 583 835 q 406 790 464 835 q 314 658 349 744 q 279 449 279 571 q 314 236 279 324 q 407 105 349 149 q 538 61 465 61 q 666 92 608 61 q 753 193 724 124 l 901 117 q 753 -45 851 7 q 532 -97 656 -97 z "},"D":{"ha":990,"x_min":111,"x_max":921,"o":"m 225 -86 q 135 -62 160 -86 q 111 24 111 -39 l 111 982 l 432 982 q 683 920 572 982 q 857 738 793 858 q 921 449 921 617 q 858 155 921 275 q 685 -26 796 35 q 426 -86 574 -86 l 225 -86 m 421 75 q 640 167 556 75 q 725 449 725 260 q 685 655 725 571 q 579 780 646 739 q 432 821 513 821 l 304 821 l 304 75 l 421 75 z "},"Ð":{"ha":1040,"x_min":42,"x_max":971,"o":"m 275 -86 q 185 -62 210 -86 q 161 24 161 -39 l 161 376 l 42 376 l 42 532 l 161 532 l 161 982 l 482 982 q 733 920 622 982 q 907 738 843 858 q 971 449 971 617 q 908 155 971 275 q 735 -26 846 35 q 476 -86 624 -86 l 275 -86 m 471 75 q 690 167 606 75 q 775 449 775 260 q 735 655 775 571 q 629 780 696 739 q 482 821 563 821 l 354 821 l 354 532 l 479 532 l 479 376 l 354 376 l 354 75 l 471 75 z "},"E":{"ha":826,"x_min":111,"x_max":764,"o":"m 214 -86 q 136 -62 161 -86 q 111 13 111 -39 l 111 982 l 744 982 l 744 821 l 304 821 l 304 532 l 708 532 l 708 376 l 304 376 l 304 75 l 764 75 l 764 -86 l 214 -86 z "},"F":{"ha":799,"x_min":111,"x_max":743,"o":"m 111 982 l 743 982 l 743 821 l 304 821 l 304 518 l 693 518 l 693 363 l 304 363 l 304 -86 l 111 -86 l 111 982 z "},"G":{"ha":996,"x_min":83,"x_max":892,"o":"m 532 -97 q 306 -31 408 -97 q 144 160 204 35 q 83 454 83 285 q 145 742 83 619 q 309 928 207 864 q 531 993 411 993 q 736 955 649 993 q 882 832 824 917 l 742 743 q 658 815 704 794 q 535 835 611 835 q 410 791 468 835 q 315 661 351 747 q 279 454 279 575 q 314 242 279 331 q 406 107 349 153 q 535 61 464 61 q 640 76 596 61 q 704 118 683 90 l 704 350 l 518 350 l 518 506 l 892 506 l 892 75 q 751 -51 844 -6 q 532 -97 658 -97 z "},"H":{"ha":1000,"x_min":111,"x_max":889,"o":"m 696 386 l 304 386 l 304 -86 l 111 -86 l 111 982 l 304 982 l 304 542 l 696 542 l 696 982 l 889 982 l 889 -86 l 696 -86 l 696 386 z "},"Ħ":{"ha":1017,"x_min":42,"x_max":975,"o":"m 701 386 l 310 386 l 310 -86 l 117 -86 l 117 692 l 42 692 l 42 844 l 117 844 l 117 982 l 310 982 l 310 844 l 701 844 l 701 982 l 894 982 l 894 844 l 975 844 l 975 692 l 894 692 l 894 -86 l 701 -86 l 701 386 m 701 542 l 701 692 l 310 692 l 310 542 l 701 542 z "},"I":{"ha":418,"x_min":111,"x_max":307,"o":"m 111 982 l 307 982 l 307 -86 l 111 -86 l 111 982 z "},"Ĳ":{"ha":1139,"x_min":111,"x_max":1028,"o":"m 111 982 l 307 982 l 307 -86 l 111 -86 l 111 982 m 538 182 q 710 56 596 56 q 803 101 772 56 q 835 228 835 146 l 835 982 l 1028 982 l 1028 229 q 951 -6 1028 85 q 719 -97 875 -97 q 528 -43 610 -97 q 403 101 446 11 l 538 182 z "},"J":{"ha":764,"x_min":28,"x_max":653,"o":"m 344 -97 q 153 -43 235 -97 q 28 101 71 11 l 163 182 q 335 56 221 56 q 428 101 397 56 q 460 228 460 146 l 460 982 l 653 982 l 653 229 q 576 -6 653 85 q 344 -97 500 -97 z "},"K":{"ha":935,"x_min":111,"x_max":907,"o":"m 111 982 l 307 982 l 307 532 l 654 982 l 881 982 l 535 554 l 907 -86 l 706 -86 l 421 414 l 307 274 l 307 -86 l 111 -86 l 111 982 z "},"L":{"ha":813,"x_min":111,"x_max":750,"o":"m 214 -86 q 136 -62 161 -86 q 111 13 111 -39 l 111 982 l 304 982 l 304 75 l 750 75 l 750 -86 l 214 -86 z "},"Ŀ":{"ha":799,"x_min":111,"x_max":750,"o":"m 214 -86 q 136 -62 161 -86 q 111 13 111 -39 l 111 982 l 304 982 l 304 75 l 750 75 l 750 -86 l 214 -86 m 486 538 q 518 614 486 582 q 594 646 550 646 q 671 614 639 646 q 703 538 703 582 q 671 461 703 493 q 594 429 639 429 q 518 461 550 429 q 486 538 486 493 z "},"Ł":{"ha":922,"x_min":42,"x_max":874,"o":"m 338 -86 q 260 -62 285 -86 q 235 13 235 -39 l 235 335 l 113 272 l 42 432 l 235 531 l 235 982 l 428 982 l 428 629 l 593 714 l 664 554 l 428 433 l 428 75 l 874 75 l 874 -86 l 338 -86 z "},"M":{"ha":1181,"x_min":111,"x_max":1069,"o":"m 111 982 l 338 982 l 563 306 l 592 192 l 621 306 l 843 982 l 1069 982 l 1069 -86 l 881 -86 l 881 356 l 890 644 l 861 539 l 690 6 l 492 6 l 319 539 l 290 644 l 300 356 l 300 -86 l 111 -86 l 111 982 z "},"N":{"ha":1000,"x_min":111,"x_max":889,"o":"m 111 982 l 297 982 l 682 276 l 701 233 l 696 431 l 696 982 l 889 982 l 889 -86 l 701 -86 l 318 615 l 299 658 l 304 465 l 304 -86 l 111 -86 l 111 982 z "},"Ŋ":{"ha":1000,"x_min":111,"x_max":889,"o":"m 111 982 l 297 982 l 682 276 l 701 233 l 696 431 l 696 982 l 889 982 l 889 -96 q 824 -303 889 -233 q 619 -374 760 -374 q 564 -367 594 -374 q 517 -351 533 -360 l 550 -208 q 621 -225 575 -225 q 682 -198 663 -225 q 701 -104 701 -171 l 701 -86 l 318 615 l 299 658 l 304 465 l 304 -86 l 111 -86 l 111 982 z "},"O":{"ha":1082,"x_min":83,"x_max":999,"o":"m 542 -97 q 308 -32 413 -97 q 144 157 204 33 q 83 449 83 281 q 144 739 83 615 q 308 928 204 863 q 542 993 413 993 q 774 928 671 993 q 938 739 878 863 q 999 449 999 615 q 938 157 999 281 q 774 -32 878 33 q 542 -97 671 -97 m 279 449 q 314 238 279 325 q 408 106 349 150 q 542 61 468 61 q 674 106 615 61 q 768 238 733 150 q 803 449 803 325 q 768 658 803 571 q 674 790 733 746 q 542 835 614 835 q 408 790 468 835 q 314 658 349 746 q 279 449 279 571 z "},"Ø":{"ha":1082,"x_min":83,"x_max":999,"o":"m 542 -97 q 435 -85 488 -97 l 413 -143 l 204 -143 l 260 3 q 130 188 176 75 q 83 449 83 301 q 144 739 83 615 q 308 928 204 863 q 542 993 413 993 q 636 983 593 993 l 663 1051 l 871 1051 l 813 900 q 949 715 900 831 q 999 449 999 599 q 938 157 999 281 q 774 -32 878 33 q 542 -97 671 -97 m 279 449 q 333 194 279 299 l 578 832 q 542 835 556 835 q 408 790 468 835 q 314 658 349 746 q 279 449 279 571 m 493 67 q 542 61 514 61 q 674 106 615 61 q 768 238 733 150 q 803 449 803 325 q 742 714 803 610 l 493 67 z "},"Œ":{"ha":1315,"x_min":83,"x_max":1253,"o":"m 476 -97 q 276 -32 365 -97 q 135 157 186 33 q 83 449 83 281 q 135 739 83 615 q 276 928 186 863 q 476 993 365 993 q 675 929 586 993 l 675 982 l 1233 982 l 1233 821 l 868 821 l 868 532 l 1197 532 l 1197 376 l 868 376 l 868 75 l 1253 75 l 1253 -86 l 778 -86 q 681 -29 697 -86 q 476 -97 589 -97 m 279 449 q 306 238 279 325 q 376 106 332 150 q 476 61 421 61 q 576 106 532 61 q 647 238 621 150 q 672 449 672 325 q 647 658 672 571 q 576 790 621 746 q 476 835 532 835 q 376 790 421 835 q 306 658 332 746 q 279 449 279 571 z "},"P":{"ha":944,"x_min":111,"x_max":868,"o":"m 111 982 l 464 982 q 763 892 658 982 q 868 638 868 803 q 763 383 868 472 q 464 293 658 293 l 307 293 l 307 -86 l 111 -86 l 111 982 m 454 451 q 617 500 563 451 q 672 638 672 549 q 617 775 672 726 q 454 824 563 824 l 307 824 l 307 451 l 454 451 z "},"Þ":{"ha":833,"x_min":111,"x_max":868,"o":"m 111 982 l 307 982 l 307 815 l 464 815 q 763 726 658 815 q 868 471 868 636 q 763 216 868 306 q 464 126 658 126 l 307 126 l 307 -86 l 111 -86 l 111 982 m 454 285 q 617 333 563 285 q 672 471 672 382 q 617 608 672 560 q 454 657 563 657 l 307 657 l 307 285 l 454 285 z "},"Q":{"ha":1082,"x_min":83,"x_max":1032,"o":"m 542 -97 q 308 -32 413 -97 q 144 157 204 33 q 83 449 83 281 q 144 739 83 615 q 308 928 204 863 q 542 993 413 993 q 774 928 671 993 q 938 739 878 863 q 999 449 999 615 q 955 196 999 307 q 833 13 911 85 l 1032 -239 l 835 -239 l 700 -69 q 542 -97 624 -97 m 279 449 q 314 238 279 325 q 408 106 349 150 q 542 61 468 61 q 674 106 615 61 q 768 238 733 150 q 803 449 803 325 q 768 658 803 571 q 674 790 733 746 q 542 835 614 835 q 408 790 468 835 q 314 658 349 746 q 279 449 279 571 z "},"R":{"ha":949,"x_min":111,"x_max":921,"o":"m 111 982 l 464 982 q 761 900 661 982 q 861 663 861 818 q 805 470 861 546 q 636 364 749 394 l 921 -86 l 719 -86 l 461 343 l 304 343 l 304 -86 l 111 -86 l 111 982 m 454 501 q 613 540 560 501 q 665 663 665 578 q 613 785 665 747 q 454 824 560 824 l 304 824 l 304 501 l 454 501 z "},"S":{"ha":914,"x_min":69,"x_max":844,"o":"m 458 -97 q 240 -52 343 -97 q 69 103 138 -7 l 207 197 q 322 90 253 122 q 461 58 390 58 q 599 100 549 58 q 650 214 650 142 q 619 308 650 267 q 518 371 588 349 l 318 432 q 165 531 221 463 q 110 701 110 600 q 154 853 110 786 q 278 956 199 919 q 461 993 357 993 q 658 953 575 993 q 797 828 740 914 l 667 733 q 580 810 636 781 q 458 840 524 840 q 352 803 399 840 q 306 704 306 765 q 408 579 306 611 l 590 522 q 844 219 844 443 q 794 50 844 122 q 657 -60 744 -22 q 458 -97 569 -97 z "},"T":{"ha":875,"x_min":63,"x_max":813,"o":"m 342 821 l 63 821 l 63 982 l 813 982 l 813 821 l 535 821 l 535 -86 l 342 -86 l 342 821 z "},"Ŧ":{"ha":847,"x_min":49,"x_max":799,"o":"m 328 390 l 93 390 l 93 551 l 328 551 l 328 821 l 49 821 l 49 982 l 799 982 l 799 821 l 521 821 l 521 551 l 754 551 l 754 390 l 521 390 l 521 -86 l 328 -86 l 328 390 z "},"U":{"ha":1000,"x_min":111,"x_max":889,"o":"m 500 -97 q 217 5 324 -97 q 111 322 111 107 l 111 982 l 304 982 l 304 294 q 500 61 304 61 q 696 294 696 61 l 696 982 l 889 982 l 889 322 q 782 6 889 108 q 500 -97 675 -97 z "},"V":{"ha":919,"x_min":35,"x_max":885,"o":"m 35 982 l 232 982 l 414 335 l 461 151 l 508 335 l 689 982 l 885 982 l 560 -86 l 360 -86 l 35 982 z "},"W":{"ha":1208,"x_min":35,"x_max":1174,"o":"m 35 982 l 226 982 l 333 335 l 356 183 l 383 335 l 508 969 l 701 969 l 828 335 l 856 183 l 878 335 l 983 982 l 1174 982 l 953 -86 l 761 -86 l 636 518 l 604 694 l 574 518 l 449 -86 l 257 -86 l 35 982 z "},"X":{"ha":897,"x_min":28,"x_max":869,"o":"m 344 461 l 42 982 l 250 982 l 397 711 l 450 613 l 503 711 l 649 982 l 856 982 l 553 461 l 869 -86 l 660 -86 l 503 208 l 450 315 l 396 208 l 238 -86 l 28 -86 l 344 461 z "},"Y":{"ha":919,"x_min":39,"x_max":881,"o":"m 363 318 l 39 982 l 240 982 l 417 586 l 461 481 l 506 586 l 681 982 l 881 982 l 558 321 l 558 -86 l 363 -86 l 363 318 z "},"Z":{"ha":868,"x_min":63,"x_max":806,"o":"m 63 68 l 554 821 l 79 821 l 79 982 l 774 982 l 774 828 l 289 75 l 806 75 l 806 -86 l 63 -86 l 63 68 z "},"Ａ":{"ha":1278,"x_min":203,"x_max":1075,"o":"m 536 982 l 742 982 l 1075 -86 l 876 -86 l 800 183 l 481 183 l 403 -86 l 203 -86 l 536 982 m 756 339 l 686 582 l 640 763 l 594 582 l 525 339 l 756 339 z "},"Ｂ":{"ha":1278,"x_min":271,"x_max":1049,"o":"m 374 -86 q 296 -62 321 -86 q 271 13 271 -39 l 271 982 l 640 982 q 910 905 817 982 q 1003 690 1003 828 q 892 471 1003 538 q 1049 217 1049 404 q 956 -8 1049 69 q 686 -86 864 -86 l 374 -86 m 683 75 q 808 116 761 75 q 856 229 856 157 q 808 342 856 300 q 683 383 760 383 l 464 383 l 464 75 l 683 75 m 638 539 q 767 574 718 539 q 815 679 815 610 q 767 785 815 749 q 638 821 718 821 l 464 821 l 464 539 l 638 539 z "},"Ｃ":{"ha":1278,"x_min":250,"x_max":1068,"o":"m 699 -97 q 470 -32 572 -97 q 309 157 368 33 q 250 449 250 281 q 310 739 250 615 q 473 928 371 863 q 699 993 575 993 q 878 953 794 993 q 1017 832 961 913 l 875 743 q 799 813 847 790 q 699 835 750 835 q 573 790 631 835 q 481 658 515 744 q 446 449 446 571 q 481 236 446 324 q 574 105 515 149 q 704 61 632 61 q 833 92 775 61 q 919 193 890 124 l 1068 117 q 920 -45 1018 7 q 699 -97 822 -97 z "},"Ｄ":{"ha":1278,"x_min":254,"x_max":1064,"o":"m 368 -86 q 278 -62 303 -86 q 254 24 254 -39 l 254 982 l 575 982 q 826 920 715 982 q 1000 738 936 858 q 1064 449 1064 617 q 1001 155 1064 275 q 828 -26 939 35 q 569 -86 717 -86 l 368 -86 m 564 75 q 783 167 699 75 q 868 449 868 260 q 828 655 868 571 q 722 780 789 739 q 575 821 656 821 l 447 821 l 447 75 l 564 75 z "},"Ｅ":{"ha":1278,"x_min":331,"x_max":983,"o":"m 433 -86 q 356 -62 381 -86 q 331 13 331 -39 l 331 982 l 964 982 l 964 821 l 524 821 l 524 532 l 928 532 l 928 376 l 524 376 l 524 75 l 983 75 l 983 -86 l 433 -86 z "},"Ｆ":{"ha":1278,"x_min":350,"x_max":982,"o":"m 350 982 l 982 982 l 982 821 l 543 821 l 543 518 l 932 518 l 932 363 l 543 363 l 543 -86 l 350 -86 l 350 982 z "},"Ｇ":{"ha":1278,"x_min":238,"x_max":1046,"o":"m 686 -97 q 460 -31 563 -97 q 298 160 358 35 q 238 454 238 285 q 299 742 238 619 q 463 928 361 864 q 685 993 565 993 q 890 955 803 993 q 1036 832 978 917 l 896 743 q 812 815 858 794 q 689 835 765 835 q 564 791 622 835 q 469 661 506 747 q 433 454 433 575 q 468 242 433 331 q 560 107 503 153 q 689 61 618 61 q 794 76 750 61 q 858 118 838 90 l 858 350 l 672 350 l 672 506 l 1046 506 l 1046 75 q 906 -51 999 -6 q 686 -97 813 -97 z "},"Ｈ":{"ha":1278,"x_min":250,"x_max":1028,"o":"m 835 386 l 443 386 l 443 -86 l 250 -86 l 250 982 l 443 982 l 443 542 l 835 542 l 835 982 l 1028 982 l 1028 -86 l 835 -86 l 835 386 z "},"Ｉ":{"ha":1278,"x_min":540,"x_max":736,"o":"m 540 982 l 736 982 l 736 -86 l 540 -86 l 540 982 z "},"Ｊ":{"ha":1278,"x_min":285,"x_max":910,"o":"m 601 -97 q 410 -43 492 -97 q 285 101 328 11 l 419 182 q 592 56 478 56 q 685 101 654 56 q 717 228 717 146 l 717 982 l 910 982 l 910 229 q 833 -6 910 85 q 601 -97 757 -97 z "},"Ｋ":{"ha":1278,"x_min":282,"x_max":1078,"o":"m 282 982 l 478 982 l 478 532 l 825 982 l 1051 982 l 706 554 l 1078 -86 l 876 -86 l 592 414 l 478 274 l 478 -86 l 282 -86 l 282 982 z "},"Ｌ":{"ha":1278,"x_min":344,"x_max":983,"o":"m 447 -86 q 369 -62 394 -86 q 344 13 344 -39 l 344 982 l 538 982 l 538 75 l 983 75 l 983 -86 l 447 -86 z "},"Ｍ":{"ha":1278,"x_min":160,"x_max":1118,"o":"m 160 982 l 386 982 l 611 306 l 640 192 l 669 306 l 892 982 l 1118 982 l 1118 -86 l 929 -86 l 929 356 l 939 644 l 910 539 l 739 6 l 540 6 l 368 539 l 339 644 l 349 356 l 349 -86 l 160 -86 l 160 982 z "},"Ｎ":{"ha":1278,"x_min":250,"x_max":1028,"o":"m 250 982 l 436 982 l 821 276 l 840 233 l 835 431 l 835 982 l 1028 982 l 1028 -86 l 840 -86 l 457 615 l 438 658 l 443 465 l 443 -86 l 250 -86 l 250 982 z "},"Ｏ":{"ha":1278,"x_min":181,"x_max":1096,"o":"m 639 -97 q 406 -32 510 -97 q 241 157 301 33 q 181 449 181 281 q 241 739 181 615 q 406 928 301 863 q 639 993 510 993 q 872 928 768 993 q 1035 739 975 863 q 1096 449 1096 615 q 1035 157 1096 281 q 872 -32 975 33 q 639 -97 768 -97 m 376 449 q 411 238 376 325 q 506 106 446 150 q 639 61 565 61 q 772 106 713 61 q 865 238 831 150 q 900 449 900 325 q 865 658 900 571 q 771 790 831 746 q 639 835 711 835 q 506 790 565 835 q 411 658 446 746 q 376 449 376 571 z "},"Ｐ":{"ha":1278,"x_min":278,"x_max":1035,"o":"m 278 982 l 631 982 q 930 892 825 982 q 1035 638 1035 803 q 930 383 1035 472 q 631 293 825 293 l 474 293 l 474 -86 l 278 -86 l 278 982 m 621 451 q 784 500 729 451 q 839 638 839 549 q 784 775 839 726 q 621 824 729 824 l 474 824 l 474 451 l 621 451 z "},"Ｑ":{"ha":1278,"x_min":181,"x_max":1129,"o":"m 639 -97 q 406 -32 510 -97 q 241 157 301 33 q 181 449 181 281 q 241 739 181 615 q 406 928 301 863 q 639 993 510 993 q 872 928 768 993 q 1035 739 975 863 q 1096 449 1096 615 q 1052 196 1096 307 q 931 13 1008 85 l 1129 -239 l 932 -239 l 797 -69 q 639 -97 721 -97 m 376 449 q 411 238 376 325 q 506 106 446 150 q 639 61 565 61 q 772 106 713 61 q 865 238 831 150 q 900 449 900 325 q 865 658 900 571 q 771 790 831 746 q 639 835 711 835 q 506 790 565 835 q 411 658 446 746 q 376 449 376 571 z "},"Ｒ":{"ha":1278,"x_min":275,"x_max":1085,"o":"m 275 982 l 628 982 q 925 900 825 982 q 1025 663 1025 818 q 969 470 1025 546 q 800 364 913 394 l 1085 -86 l 883 -86 l 625 343 l 468 343 l 468 -86 l 275 -86 l 275 982 m 618 501 q 776 540 724 501 q 829 663 829 578 q 776 785 829 747 q 618 824 724 824 l 468 824 l 468 501 l 618 501 z "},"Ｓ":{"ha":1278,"x_min":251,"x_max":1026,"o":"m 640 -97 q 422 -52 525 -97 q 251 103 319 -7 l 389 197 q 503 90 435 122 q 643 58 572 58 q 781 100 731 58 q 832 214 832 142 q 801 308 832 267 q 700 371 769 349 l 500 432 q 347 531 403 463 q 292 701 292 600 q 336 853 292 786 q 460 956 381 919 q 643 993 539 993 q 840 953 757 993 q 979 828 922 914 l 849 733 q 762 810 818 781 q 640 840 706 840 q 534 803 581 840 q 488 704 488 765 q 590 579 488 611 l 772 522 q 1026 219 1026 443 q 976 50 1026 122 q 839 -60 926 -22 q 640 -97 751 -97 z "},"Ｔ":{"ha":1278,"x_min":264,"x_max":1014,"o":"m 543 821 l 264 821 l 264 982 l 1014 982 l 1014 821 l 736 821 l 736 -86 l 543 -86 l 543 821 z "},"Ｕ":{"ha":1278,"x_min":250,"x_max":1028,"o":"m 639 -97 q 356 5 463 -97 q 250 322 250 107 l 250 982 l 443 982 l 443 294 q 639 61 443 61 q 835 294 835 61 l 835 982 l 1028 982 l 1028 322 q 921 6 1028 108 q 639 -97 814 -97 z "},"Ｖ":{"ha":1278,"x_min":214,"x_max":1064,"o":"m 214 982 l 411 982 l 593 335 l 640 151 l 688 335 l 868 982 l 1064 982 l 739 -86 l 539 -86 l 214 982 z "},"Ｗ":{"ha":1278,"x_min":69,"x_max":1208,"o":"m 69 982 l 261 982 l 368 335 l 390 183 l 418 335 l 543 969 l 736 969 l 863 335 l 890 183 l 913 335 l 1018 982 l 1208 982 l 988 -86 l 796 -86 l 671 518 l 639 694 l 608 518 l 483 -86 l 292 -86 l 69 982 z "},"Ｘ":{"ha":1278,"x_min":218,"x_max":1060,"o":"m 535 461 l 232 982 l 440 982 l 588 711 l 640 613 l 693 711 l 839 982 l 1046 982 l 743 461 l 1060 -86 l 850 -86 l 693 208 l 640 315 l 586 208 l 428 -86 l 218 -86 l 535 461 z "},"Ｙ":{"ha":1278,"x_min":218,"x_max":1060,"o":"m 542 318 l 218 982 l 419 982 l 596 586 l 640 481 l 685 586 l 860 982 l 1060 982 l 738 321 l 738 -86 l 542 -86 l 542 318 z "},"Ｚ":{"ha":1278,"x_min":267,"x_max":1010,"o":"m 267 68 l 758 821 l 283 821 l 283 982 l 978 982 l 978 828 l 493 75 l 1010 75 l 1010 -86 l 267 -86 l 267 68 z "},"a":{"ha":854,"x_min":69,"x_max":757,"o":"m 564 408 q 525 508 564 472 q 406 543 486 543 q 302 521 357 543 q 201 460 247 499 l 104 585 q 255 671 178 649 q 422 693 332 693 q 671 602 585 693 q 757 358 757 511 l 757 -86 l 564 -86 l 564 -10 q 325 -97 474 -97 q 187 -66 244 -97 q 99 19 129 -35 q 69 139 69 74 q 144 317 69 251 q 367 397 219 383 q 472 403 433 403 q 564 399 517 403 l 564 408 m 263 149 q 292 79 263 101 q 368 57 321 57 q 492 99 438 57 q 564 200 546 140 l 564 258 q 492 263 529 263 q 383 253 433 263 q 295 215 328 242 q 263 149 263 188 z "},"æ":{"ha":1193,"x_min":69,"x_max":1125,"o":"m 504 408 q 469 508 504 472 q 365 543 435 543 q 274 521 322 543 q 186 460 226 499 l 100 585 q 233 671 165 649 q 379 693 300 693 q 517 661 458 693 q 610 571 575 629 q 706 660 651 628 q 828 692 761 692 q 1028 608 939 692 q 1124 311 1117 524 q 1122 231 1125 285 l 671 231 q 719 101 679 147 q 822 54 758 54 q 979 149 936 54 l 1106 69 q 994 -55 1067 -12 q 831 -97 921 -97 q 661 -25 740 -97 l 661 -86 l 504 -86 l 504 4 q 417 -70 468 -43 q 294 -97 367 -97 q 129 -30 189 -97 q 69 139 69 38 q 135 318 69 253 q 331 397 201 383 q 422 403 389 403 q 504 399 461 403 l 504 408 m 239 149 q 265 79 239 101 q 332 57 290 57 q 441 99 393 57 q 504 203 489 142 l 504 258 q 440 263 474 263 q 346 253 389 263 q 268 215 297 242 q 239 149 239 188 m 950 376 q 901 502 940 465 q 808 539 863 539 q 719 496 753 539 q 674 376 686 453 l 950 376 z "},"b":{"ha":890,"x_min":97,"x_max":821,"o":"m 496 -97 q 293 -7 372 -97 l 293 -86 l 97 -86 l 97 1004 l 293 1004 l 293 611 q 490 692 369 692 q 664 643 589 692 q 780 506 739 594 q 821 297 821 417 q 734 3 821 103 q 496 -97 647 -97 m 293 225 q 357 103 310 146 q 461 60 404 60 q 582 119 540 60 q 624 297 624 178 q 579 474 624 413 q 457 535 535 535 q 353 484 399 535 q 293 351 307 433 l 293 225 z "},"c":{"ha":765,"x_min":69,"x_max":747,"o":"m 443 -97 q 258 -50 343 -97 q 121 87 172 -3 q 69 297 69 176 q 119 508 69 418 q 254 644 169 597 q 439 692 339 692 q 592 657 522 692 q 704 554 663 622 l 582 454 q 442 535 536 535 q 316 469 365 535 q 267 297 267 403 q 317 124 267 189 q 450 60 368 60 q 606 164 557 60 l 747 85 q 626 -50 711 -3 q 443 -97 540 -97 z "},"d":{"ha":890,"x_min":69,"x_max":793,"o":"m 394 -97 q 156 3 243 -97 q 69 297 69 103 q 110 506 69 417 q 226 643 151 594 q 400 692 301 692 q 597 611 521 692 l 597 1004 l 793 1004 l 793 -86 l 597 -86 l 597 -7 q 394 -97 518 -97 m 267 297 q 308 119 267 178 q 429 60 350 60 q 533 103 486 60 q 597 225 581 146 l 597 351 q 538 484 583 433 q 433 535 492 535 q 311 474 356 535 q 267 297 267 413 z "},"ð":{"ha":881,"x_min":63,"x_max":807,"o":"m 410 58 q 526 122 483 58 q 567 293 568 185 q 513 399 554 354 q 406 444 471 444 q 292 390 333 444 q 250 251 250 335 q 290 110 250 163 q 410 58 329 58 m 63 256 q 102 436 63 357 q 213 560 142 515 q 378 604 285 604 q 487 582 431 604 q 569 524 543 560 q 529 694 557 621 l 429 638 l 353 772 l 450 828 q 363 901 414 868 l 472 1033 q 606 915 554 979 l 731 988 l 807 853 l 686 783 q 764 432 750 638 l 764 367 q 668 25 764 147 q 400 -97 572 -97 q 150 0 238 -97 q 63 256 63 97 z "},"đ":{"ha":978,"x_min":69,"x_max":894,"o":"m 394 -97 q 156 -6 243 -97 q 69 263 69 85 q 110 452 69 371 q 226 578 151 533 q 400 622 301 622 q 597 554 519 622 l 597 724 l 368 724 l 368 879 l 597 879 l 597 1004 l 793 1004 l 793 879 l 894 879 l 894 724 l 793 724 l 793 -86 l 597 -86 l 597 -19 q 394 -97 517 -97 m 267 263 q 308 110 267 161 q 429 60 350 60 q 533 95 486 60 q 597 194 581 131 l 597 315 q 537 424 582 382 q 433 465 492 465 q 311 413 356 465 q 267 263 267 361 z "},"e":{"ha":824,"x_min":69,"x_max":756,"o":"m 422 -97 q 244 -50 325 -97 q 117 86 164 -3 q 69 297 69 175 q 113 508 69 418 q 233 644 157 597 q 406 692 310 692 q 641 608 536 692 q 754 311 746 524 q 753 231 756 285 l 271 231 q 320 101 279 147 q 426 54 361 54 q 590 149 546 54 l 733 69 q 607 -55 690 -12 q 422 -97 524 -97 m 551 376 q 503 503 542 467 q 411 539 465 539 q 320 496 354 539 q 274 376 286 453 l 551 376 z "},"f":{"ha":593,"x_min":35,"x_max":586,"o":"m 156 739 q 227 943 156 868 q 440 1018 299 1018 q 586 999 511 1018 l 556 846 q 513 860 540 854 q 456 865 485 865 q 380 833 408 865 q 351 740 351 800 l 351 682 l 561 682 l 561 526 l 351 526 l 351 -86 l 156 -86 l 156 526 l 35 526 l 35 682 l 156 682 l 156 739 z "},"g":{"ha":876,"x_min":69,"x_max":779,"o":"m 429 -375 q 89 -218 186 -375 l 222 -126 q 303 -201 251 -174 q 421 -228 354 -228 q 538 -188 492 -228 q 583 -76 583 -149 l 583 7 q 393 -62 510 -62 q 224 -17 297 -62 q 110 115 151 29 q 69 315 69 200 q 156 597 69 500 q 388 693 243 693 q 583 614 507 693 l 583 682 l 779 682 l 779 -54 q 686 -290 779 -206 q 429 -375 593 -375 m 267 315 q 310 149 267 206 q 426 92 353 92 q 526 137 482 92 q 583 261 569 182 l 583 388 q 521 501 567 463 q 422 539 475 539 q 308 482 350 539 q 267 315 267 425 z "},"h":{"ha":889,"x_min":97,"x_max":792,"o":"m 97 1004 l 293 1004 l 293 613 q 383 674 332 654 q 489 693 433 693 q 706 613 621 693 q 792 343 792 532 l 792 -86 l 596 -86 l 596 343 q 563 490 596 446 q 465 535 531 535 q 377 502 417 535 q 315 410 338 469 q 293 274 293 350 l 293 -86 l 97 -86 l 97 1004 z "},"ħ":{"ha":979,"x_min":83,"x_max":882,"o":"m 188 724 l 83 724 l 83 879 l 188 879 l 188 1004 l 383 1004 l 383 879 l 610 879 l 610 724 l 383 724 l 383 550 q 579 624 458 624 q 797 551 711 624 q 882 308 882 478 l 882 -86 l 686 -86 l 686 308 q 653 429 686 393 q 556 465 621 465 q 432 402 481 465 q 383 239 383 339 l 383 -86 l 188 -86 l 188 724 z "},"i":{"ha":410,"x_min":94,"x_max":317,"o":"m 107 683 l 303 683 l 303 -86 l 107 -86 l 107 683 m 94 911 q 126 988 94 956 q 206 1019 158 1019 q 285 988 253 1019 q 317 911 317 956 q 285 835 317 867 q 206 803 253 803 q 126 835 158 803 q 94 911 94 867 z "},"ı":{"ha":410,"x_min":107,"x_max":303,"o":"m 107 683 l 303 683 l 303 -86 l 107 -86 l 107 683 z "},"ĳ":{"ha":765,"x_min":94,"x_max":671,"o":"m 107 683 l 303 683 l 303 -86 l 107 -86 l 107 683 m 94 911 q 126 988 94 956 q 206 1019 158 1019 q 285 988 253 1019 q 317 911 317 956 q 285 835 317 867 q 206 803 253 803 q 126 835 158 803 q 94 911 94 867 m 325 -208 q 389 -225 349 -225 q 449 -198 431 -225 q 468 -104 468 -171 l 468 683 l 664 683 l 664 -96 q 599 -303 664 -233 q 394 -374 535 -374 q 339 -367 369 -374 q 292 -351 308 -360 l 325 -208 m 449 911 q 481 988 449 956 q 560 1019 513 1019 q 639 988 607 1019 q 671 911 671 956 q 639 835 671 867 q 560 803 607 803 q 481 835 513 803 q 449 911 449 867 z "},"j":{"ha":425,"x_min":-49,"x_max":331,"o":"m 54 -374 q -1 -367 29 -374 q -49 -351 -32 -360 l -15 -208 q 49 -225 8 -225 q 109 -198 90 -225 q 128 -104 128 -171 l 128 683 l 324 683 l 324 -96 q 259 -303 324 -233 q 54 -374 194 -374 m 108 911 q 140 988 108 956 q 219 1019 172 1019 q 299 988 267 1019 q 331 911 331 956 q 299 835 331 867 q 219 803 267 803 q 140 835 172 803 q 108 911 108 867 z "},"k":{"ha":808,"x_min":97,"x_max":781,"o":"m 97 1004 l 293 1004 l 293 389 l 544 683 l 774 683 l 497 372 l 781 -86 l 572 -86 l 381 242 l 293 143 l 293 -86 l 97 -86 l 97 1004 z "},"ĸ":{"ha":808,"x_min":97,"x_max":781,"o":"m 97 685 l 293 685 l 293 389 l 544 683 l 774 683 l 497 372 l 781 -86 l 572 -86 l 381 242 l 293 143 l 293 -86 l 97 -86 l 97 685 z "},"l":{"ha":389,"x_min":97,"x_max":329,"o":"m 192 -86 q 122 -62 147 -86 q 97 4 97 -37 l 97 1004 l 293 1004 l 293 -26 q 303 -65 293 -49 q 329 -86 313 -81 l 192 -86 z "},"ŀ":{"ha":738,"x_min":97,"x_max":647,"o":"m 192 -86 q 122 -62 147 -86 q 97 4 97 -37 l 97 1004 l 293 1004 l 293 -26 q 303 -65 293 -49 q 329 -86 313 -81 l 192 -86 m 431 538 q 463 614 431 582 q 539 646 494 646 q 615 614 583 646 q 647 538 647 582 q 615 461 647 493 q 539 429 583 429 q 463 461 494 429 q 431 538 431 493 z "},"ł":{"ha":789,"x_min":83,"x_max":706,"o":"m 392 -86 q 322 -62 347 -86 q 297 4 297 -37 l 297 318 l 154 244 l 83 404 l 297 514 l 297 1004 l 493 1004 l 493 614 l 635 686 l 706 526 l 493 418 l 493 -26 q 503 -65 493 -49 q 529 -86 513 -81 l 392 -86 z "},"m":{"ha":1275,"x_min":97,"x_max":1178,"o":"m 97 683 l 293 683 l 293 625 q 447 693 351 693 q 574 667 515 693 q 672 585 633 642 q 897 693 746 693 q 1095 615 1013 693 q 1178 350 1178 536 l 1178 -86 l 982 -86 l 982 350 q 952 492 982 449 q 874 535 922 535 q 802 503 835 535 q 750 414 769 472 q 731 281 731 356 l 731 -86 l 536 -86 l 536 350 q 431 535 536 535 q 332 465 371 535 q 293 281 293 396 l 293 -86 l 97 -86 l 97 683 z "},"n":{"ha":889,"x_min":97,"x_max":792,"o":"m 97 683 l 293 683 l 293 608 q 489 693 368 693 q 706 613 621 693 q 792 343 792 532 l 792 -86 l 596 -86 l 596 343 q 563 490 596 446 q 465 535 531 535 q 377 502 417 535 q 315 410 338 469 q 293 274 293 350 l 293 -86 l 97 -86 l 97 683 z "},"ŉ":{"ha":1069,"x_min":35,"x_max":1000,"o":"m 306 683 l 501 683 l 501 608 q 697 693 576 693 q 915 613 829 693 q 1000 343 1000 532 l 1000 -86 l 804 -86 l 804 343 q 772 490 804 446 q 674 535 739 535 q 585 502 625 535 q 524 410 546 469 q 501 274 501 350 l 501 -86 l 306 -86 l 306 683 m 35 697 q 117 854 106 757 q 66 891 86 864 q 46 953 46 918 q 76 1024 46 993 q 147 1054 106 1054 q 217 1026 186 1054 q 251 947 249 997 q 253 913 253 936 q 131 638 253 747 l 35 697 z "},"ŋ":{"ha":889,"x_min":97,"x_max":792,"o":"m 97 683 l 293 683 l 293 608 q 489 693 368 693 q 706 613 621 693 q 792 343 792 532 l 792 -96 q 727 -303 792 -233 q 522 -374 663 -374 q 467 -367 497 -374 q 419 -351 436 -360 l 453 -208 q 517 -225 476 -225 q 577 -198 558 -225 q 596 -104 596 -171 l 596 343 q 563 490 596 446 q 465 535 531 535 q 377 502 417 535 q 315 410 338 469 q 293 274 293 350 l 293 -86 l 97 -86 l 97 683 z "},"o":{"ha":889,"x_min":69,"x_max":819,"o":"m 446 -96 q 256 -48 342 -96 q 119 90 169 0 q 69 300 69 181 q 119 509 69 419 q 256 647 169 599 q 446 696 342 696 q 635 647 550 696 q 770 509 721 599 q 819 300 819 419 q 770 90 819 181 q 635 -48 721 0 q 446 -96 550 -96 m 267 300 q 317 124 267 189 q 446 60 368 60 q 573 124 522 60 q 624 300 624 189 q 573 474 624 410 q 446 538 522 538 q 317 474 368 538 q 267 300 267 410 z "},"ø":{"ha":889,"x_min":69,"x_max":819,"o":"m 446 -96 q 392 -93 428 -96 l 372 -143 l 172 -143 l 218 -24 q 109 111 149 28 q 69 300 69 194 q 119 509 69 419 q 256 647 169 599 q 446 696 342 696 q 494 693 464 696 l 514 743 l 714 743 l 668 626 q 780 490 740 574 q 819 300 819 407 q 770 90 819 181 q 635 -48 721 0 q 446 -96 550 -96 m 267 300 q 292 168 267 225 l 435 538 q 314 469 361 532 q 267 300 267 406 m 450 60 q 574 126 525 63 q 624 300 624 190 q 596 436 624 381 l 450 60 z "},"œ":{"ha":1283,"x_min":69,"x_max":1214,"o":"m 907 -97 q 779 -66 839 -97 q 674 21 719 -35 q 560 -65 626 -35 q 418 -96 494 -96 q 242 -48 321 -96 q 116 90 163 0 q 69 300 69 181 q 116 509 69 419 q 242 647 163 599 q 418 696 321 696 q 560 665 494 696 q 675 576 626 633 q 772 661 717 631 q 890 692 828 692 q 1038 660 965 692 q 1163 544 1111 628 q 1214 314 1214 460 q 1213 231 1214 260 l 761 231 q 780 139 760 179 q 834 76 800 99 q 907 54 868 54 q 1065 149 1022 54 l 1204 69 q 1083 -55 1163 -12 q 907 -97 1004 -97 m 263 300 q 306 124 263 189 q 418 60 350 60 q 528 124 485 60 q 572 300 572 189 q 528 474 572 410 q 418 538 485 538 q 306 474 350 538 q 263 300 263 411 m 1022 376 q 985 502 1024 465 q 892 539 946 539 q 799 494 836 539 q 764 376 763 449 l 1022 376 z "},"p":{"ha":890,"x_min":97,"x_max":821,"o":"m 490 -96 q 293 -15 369 -96 l 293 -375 l 97 -375 l 97 683 l 293 683 l 293 603 q 496 693 372 693 q 734 593 647 693 q 821 299 821 493 q 780 90 821 179 q 664 -47 739 1 q 490 -96 589 -96 m 293 244 q 353 112 307 163 q 457 61 399 61 q 579 122 535 61 q 624 299 624 183 q 582 477 624 418 q 461 536 540 536 q 357 493 404 536 q 293 371 310 450 l 293 244 z "},"þ":{"ha":833,"x_min":97,"x_max":821,"o":"m 490 -96 q 293 -15 369 -96 l 293 -375 l 97 -375 l 97 1004 l 293 1004 l 293 603 q 496 693 372 693 q 734 593 647 693 q 821 299 821 493 q 780 90 821 179 q 664 -47 739 1 q 490 -96 589 -96 m 293 244 q 353 112 307 163 q 457 61 399 61 q 579 122 535 61 q 624 299 624 183 q 582 477 624 418 q 461 536 540 536 q 357 493 404 536 q 293 371 310 450 l 293 244 z "},"q":{"ha":890,"x_min":69,"x_max":793,"o":"m 400 -96 q 226 -47 301 -96 q 110 90 151 1 q 69 299 69 179 q 156 593 69 493 q 394 693 243 693 q 597 603 518 693 l 597 683 l 793 683 l 793 -375 l 597 -375 l 597 -15 q 400 -96 521 -96 m 267 299 q 311 122 267 183 q 433 61 356 61 q 538 112 492 61 q 597 244 583 163 l 597 371 q 533 493 581 450 q 429 536 486 536 q 308 477 350 536 q 267 299 267 418 z "},"r":{"ha":586,"x_min":97,"x_max":572,"o":"m 97 683 l 293 683 l 293 572 q 380 659 329 631 q 493 688 431 688 q 572 683 542 688 l 540 519 q 469 529 517 529 q 379 494 419 529 q 316 394 339 460 q 293 240 293 329 l 293 -86 l 97 -86 l 97 683 z "},"s":{"ha":706,"x_min":42,"x_max":664,"o":"m 347 -99 q 42 24 163 -99 l 157 144 q 247 73 192 94 q 351 51 301 51 q 445 73 411 51 q 479 136 479 94 q 458 188 479 165 q 394 219 436 210 l 251 256 q 115 333 160 279 q 69 463 69 388 q 103 581 69 528 q 199 665 136 633 q 347 696 263 696 q 631 558 557 696 l 485 471 q 433 528 467 508 q 356 547 400 547 q 285 525 314 547 q 257 468 257 503 q 326 393 257 413 l 460 358 q 610 285 556 333 q 664 139 664 236 q 580 -37 664 24 q 347 -99 496 -99 z "},"ß":{"ha":944,"x_min":97,"x_max":875,"o":"m 97 -86 l 97 635 q 142 814 97 735 q 265 938 186 893 q 444 982 344 982 l 467 982 q 732 904 635 982 q 829 690 829 826 q 718 471 829 538 q 875 217 875 404 q 783 -8 875 69 q 513 -86 690 -86 l 368 -86 l 368 75 l 510 75 q 635 116 588 75 q 682 229 682 157 q 634 342 682 300 q 510 383 586 383 l 403 383 l 403 539 l 464 539 q 593 574 544 539 q 642 679 642 610 q 588 784 642 747 q 464 821 535 821 l 454 821 q 337 775 383 821 q 290 658 290 729 l 290 -86 l 97 -86 z "},"t":{"ha":607,"x_min":35,"x_max":621,"o":"m 463 -97 q 244 -24 319 -97 q 169 175 169 49 l 169 526 l 35 526 l 35 682 l 169 682 l 169 910 l 365 910 l 365 682 l 561 682 l 561 526 l 365 526 l 365 174 q 397 85 365 114 q 479 56 429 56 q 538 65 508 56 q 586 88 568 74 l 621 -65 q 548 -88 594 -79 q 463 -97 501 -97 z "},"ŧ":{"ha":628,"x_min":35,"x_max":621,"o":"m 463 -97 q 244 -24 319 -97 q 169 175 169 49 l 169 265 l 35 265 l 35 421 l 169 421 l 169 526 l 35 526 l 35 682 l 169 682 l 169 910 l 365 910 l 365 682 l 561 682 l 561 526 l 365 526 l 365 421 l 561 421 l 561 265 l 365 265 l 365 174 q 397 85 365 114 q 479 56 429 56 q 538 65 508 56 q 586 88 568 74 l 621 -65 q 548 -88 594 -79 q 463 -97 501 -97 z "},"u":{"ha":889,"x_min":97,"x_max":792,"o":"m 393 -97 q 97 246 97 -97 l 97 683 l 293 683 l 293 246 q 322 102 293 143 q 417 61 351 61 q 510 100 469 61 q 574 206 551 139 q 596 350 596 272 l 596 683 l 792 683 l 792 -86 l 596 -86 l 596 -4 q 503 -74 556 -51 q 393 -97 451 -97 z "},"v":{"ha":800,"x_min":35,"x_max":765,"o":"m 35 683 l 236 683 l 383 203 l 401 126 l 419 203 l 567 683 l 765 683 l 490 -86 l 307 -86 l 35 683 z "},"w":{"ha":1072,"x_min":35,"x_max":1038,"o":"m 35 683 l 222 683 l 319 183 l 329 125 l 340 185 l 450 678 l 622 678 l 735 185 l 746 128 l 754 183 l 851 683 l 1038 683 l 843 -86 l 657 -86 l 547 397 l 538 456 l 526 397 l 417 -86 l 231 -86 l 35 683 z "},"x":{"ha":785,"x_min":35,"x_max":750,"o":"m 279 311 l 42 683 l 253 683 l 372 475 l 393 436 l 417 475 l 535 683 l 744 683 l 507 311 l 750 -86 l 547 -86 l 417 143 l 393 183 l 372 144 l 244 -86 l 35 -86 l 279 311 z "},"y":{"ha":782,"x_min":35,"x_max":747,"o":"m 113 -375 q 51 -369 72 -375 l 69 -215 q 135 -222 94 -222 q 239 -173 197 -222 q 296 -47 281 -124 l 35 683 l 231 683 l 375 211 l 392 142 l 410 211 l 553 683 l 747 683 l 476 -78 q 346 -294 428 -214 q 113 -375 264 -375 z "},"z":{"ha":708,"x_min":56,"x_max":681,"o":"m 56 58 l 424 528 l 72 528 l 72 683 l 649 683 l 649 535 l 289 69 l 681 69 l 681 -86 l 56 -86 l 56 58 z "},"ａ":{"ha":1278,"x_min":281,"x_max":968,"o":"m 775 408 q 736 508 775 472 q 617 543 697 543 q 513 521 568 543 q 413 460 458 499 l 315 585 q 466 671 389 649 q 633 693 543 693 q 882 602 796 693 q 968 358 968 511 l 968 -86 l 775 -86 l 775 -10 q 536 -97 685 -97 q 398 -66 456 -97 q 310 19 340 -35 q 281 139 281 74 q 356 317 281 251 q 578 397 431 383 q 683 403 644 403 q 775 399 728 403 l 775 408 m 474 149 q 503 79 474 101 q 579 57 532 57 q 703 99 649 57 q 775 200 757 140 l 775 258 q 703 263 740 263 q 594 253 644 263 q 506 215 539 242 q 474 149 474 188 z "},"ｂ":{"ha":1278,"x_min":292,"x_max":1015,"o":"m 690 -97 q 488 -7 567 -97 l 488 -86 l 292 -86 l 292 1004 l 488 1004 l 488 611 q 685 692 564 692 q 858 643 783 692 q 974 506 933 594 q 1015 297 1015 417 q 928 3 1015 103 q 690 -97 842 -97 m 488 225 q 551 103 504 146 q 656 60 599 60 q 776 119 735 60 q 818 297 818 178 q 774 474 818 413 q 651 535 729 535 q 547 484 593 535 q 488 351 501 433 l 488 225 z "},"ｃ":{"ha":1278,"x_min":325,"x_max":1003,"o":"m 699 -97 q 513 -50 599 -97 q 376 87 428 -3 q 325 297 325 176 q 375 508 325 418 q 510 644 425 597 q 694 692 594 692 q 848 657 778 692 q 960 554 918 622 l 838 454 q 697 535 792 535 q 572 469 621 535 q 522 297 522 403 q 573 124 522 189 q 706 60 624 60 q 861 164 813 60 l 1003 85 q 881 -50 967 -3 q 699 -97 796 -97 z "},"ｄ":{"ha":1278,"x_min":257,"x_max":981,"o":"m 582 -97 q 344 3 431 -97 q 257 297 257 103 q 298 506 257 417 q 414 643 339 594 q 588 692 489 692 q 785 611 708 692 l 785 1004 l 981 1004 l 981 -86 l 785 -86 l 785 -7 q 582 -97 706 -97 m 454 297 q 496 119 454 178 q 617 60 538 60 q 721 103 674 60 q 785 225 768 146 l 785 351 q 725 484 771 433 q 621 535 679 535 q 499 474 543 535 q 454 297 454 413 z "},"ｅ":{"ha":1278,"x_min":296,"x_max":982,"o":"m 649 -97 q 471 -50 551 -97 q 343 86 390 -3 q 296 297 296 175 q 340 508 296 418 q 460 644 383 597 q 632 692 536 692 q 867 608 763 692 q 981 311 972 524 q 979 231 982 285 l 497 231 q 547 101 506 147 q 653 54 588 54 q 817 149 772 54 l 960 69 q 833 -55 917 -12 q 649 -97 750 -97 m 778 376 q 730 503 768 467 q 638 539 692 539 q 547 496 581 539 q 500 376 513 453 l 778 376 z "},"ｆ":{"ha":1278,"x_min":378,"x_max":929,"o":"m 499 739 q 570 943 499 868 q 783 1018 642 1018 q 929 999 854 1018 l 899 846 q 856 860 883 854 q 799 865 828 865 q 723 833 751 865 q 694 740 694 800 l 694 682 l 904 682 l 904 526 l 694 526 l 694 -86 l 499 -86 l 499 526 l 378 526 l 378 682 l 499 682 l 499 739 z "},"ｇ":{"ha":1278,"x_min":271,"x_max":981,"o":"m 631 -375 q 290 -218 388 -375 l 424 -126 q 504 -201 453 -174 q 622 -228 556 -228 q 739 -188 693 -228 q 785 -76 785 -149 l 785 7 q 594 -62 711 -62 q 426 -17 499 -62 q 312 115 353 29 q 271 315 271 200 q 358 597 271 500 q 589 693 444 693 q 785 614 708 693 l 785 682 l 981 682 l 981 -54 q 888 -290 981 -206 q 631 -375 794 -375 m 468 315 q 511 149 468 206 q 628 92 554 92 q 727 137 683 92 q 785 261 771 182 l 785 388 q 722 501 768 463 q 624 539 676 539 q 510 482 551 539 q 468 315 468 425 z "},"ｈ":{"ha":1278,"x_min":292,"x_max":986,"o":"m 292 1004 l 488 1004 l 488 613 q 577 674 526 654 q 683 693 628 693 q 901 613 815 693 q 986 343 986 532 l 986 -86 l 790 -86 l 790 343 q 758 490 790 446 q 660 535 725 535 q 572 502 611 535 q 510 410 532 469 q 488 274 488 350 l 488 -86 l 292 -86 l 292 1004 z "},"ｉ":{"ha":1278,"x_min":528,"x_max":750,"o":"m 540 683 l 736 683 l 736 -86 l 540 -86 l 540 683 m 528 911 q 560 988 528 956 q 639 1019 592 1019 q 718 988 686 1019 q 750 911 750 956 q 718 835 750 867 q 639 803 686 803 q 560 835 592 803 q 528 911 528 867 z "},"ｊ":{"ha":1278,"x_min":378,"x_max":757,"o":"m 481 -374 q 425 -367 456 -374 q 378 -351 394 -360 l 411 -208 q 475 -225 435 -225 q 535 -198 517 -225 q 554 -104 554 -171 l 554 683 l 750 683 l 750 -96 q 685 -303 750 -233 q 481 -374 621 -374 m 535 911 q 567 988 535 956 q 646 1019 599 1019 q 725 988 693 1019 q 757 911 757 956 q 725 835 757 867 q 646 803 693 803 q 567 835 599 803 q 535 911 535 867 z "},"ｋ":{"ha":1278,"x_min":332,"x_max":1015,"o":"m 332 1004 l 528 1004 l 528 389 l 779 683 l 1008 683 l 732 372 l 1015 -86 l 807 -86 l 615 242 l 528 143 l 528 -86 l 332 -86 l 332 1004 z "},"ｌ":{"ha":1278,"x_min":542,"x_max":774,"o":"m 636 -86 q 567 -62 592 -86 q 542 4 542 -37 l 542 1004 l 738 1004 l 738 -26 q 747 -65 738 -49 q 774 -86 757 -81 l 636 -86 z "},"ｍ":{"ha":1278,"x_min":99,"x_max":1179,"o":"m 99 683 l 294 683 l 294 625 q 449 693 353 693 q 576 667 517 693 q 674 585 635 642 q 899 693 747 693 q 1097 615 1014 693 q 1179 350 1179 536 l 1179 -86 l 983 -86 l 983 350 q 953 492 983 449 q 875 535 924 535 q 803 503 836 535 q 751 414 771 472 q 732 281 732 356 l 732 -86 l 538 -86 l 538 350 q 432 535 538 535 q 333 465 372 535 q 294 281 294 396 l 294 -86 l 99 -86 l 99 683 z "},"ｎ":{"ha":1278,"x_min":292,"x_max":986,"o":"m 292 683 l 488 683 l 488 608 q 683 693 563 693 q 901 613 815 693 q 986 343 986 532 l 986 -86 l 790 -86 l 790 343 q 758 490 790 446 q 660 535 725 535 q 572 502 611 535 q 510 410 532 469 q 488 274 488 350 l 488 -86 l 292 -86 l 292 683 z "},"ｏ":{"ha":1278,"x_min":264,"x_max":1014,"o":"m 640 -96 q 450 -48 536 -96 q 314 90 364 0 q 264 300 264 181 q 314 509 264 419 q 450 647 364 599 q 640 696 536 696 q 830 647 744 696 q 965 509 915 599 q 1014 300 1014 419 q 965 90 1014 181 q 830 -48 915 0 q 640 -96 744 -96 m 461 300 q 512 124 461 189 q 640 60 563 60 q 767 124 717 60 q 818 300 818 189 q 767 474 818 410 q 640 538 717 538 q 512 474 563 538 q 461 300 461 410 z "},"ｐ":{"ha":1278,"x_min":292,"x_max":1015,"o":"m 685 -96 q 488 -15 564 -96 l 488 -375 l 292 -375 l 292 683 l 488 683 l 488 603 q 690 693 567 693 q 928 593 842 693 q 1015 299 1015 493 q 974 90 1015 179 q 858 -47 933 1 q 685 -96 783 -96 m 488 244 q 547 112 501 163 q 651 61 593 61 q 774 122 729 61 q 818 299 818 183 q 776 477 818 418 q 656 536 735 536 q 551 493 599 536 q 488 371 504 450 l 488 244 z "},"ｑ":{"ha":1278,"x_min":263,"x_max":986,"o":"m 593 -96 q 419 -47 494 -96 q 303 90 344 1 q 263 299 263 179 q 349 593 263 493 q 588 693 436 693 q 790 603 711 693 l 790 683 l 986 683 l 986 -375 l 790 -375 l 790 -15 q 593 -96 714 -96 m 460 299 q 504 122 460 183 q 626 61 549 61 q 731 112 685 61 q 790 244 776 163 l 790 371 q 726 493 774 450 q 622 536 679 536 q 501 477 543 536 q 460 299 460 418 z "},"ｒ":{"ha":1278,"x_min":443,"x_max":918,"o":"m 443 683 l 639 683 l 639 572 q 726 659 675 631 q 839 688 776 688 q 918 683 888 688 l 886 519 q 815 529 863 529 q 725 494 765 529 q 662 394 685 460 q 639 240 639 329 l 639 -86 l 443 -86 l 443 683 z "},"ｓ":{"ha":1278,"x_min":328,"x_max":950,"o":"m 633 -99 q 328 24 449 -99 l 443 144 q 533 73 478 94 q 638 51 588 51 q 731 73 697 51 q 765 136 765 94 q 744 188 765 165 q 681 219 722 210 l 538 256 q 401 333 446 279 q 356 463 356 388 q 389 581 356 528 q 485 665 422 633 q 633 696 549 696 q 917 558 843 696 l 771 471 q 719 528 753 508 q 642 547 686 547 q 572 525 600 547 q 543 468 543 503 q 613 393 543 413 l 746 358 q 896 285 842 333 q 950 139 950 236 q 866 -37 950 24 q 633 -99 782 -99 z "},"ｔ":{"ha":1278,"x_min":439,"x_max":1025,"o":"m 867 -97 q 649 -24 724 -97 q 574 175 574 49 l 574 526 l 439 526 l 439 682 l 574 682 l 574 910 l 769 910 l 769 682 l 965 682 l 965 526 l 769 526 l 769 174 q 801 85 769 114 q 883 56 833 56 q 942 65 913 56 q 990 88 972 74 l 1025 -65 q 952 -88 999 -79 q 867 -97 906 -97 z "},"ｕ":{"ha":1278,"x_min":292,"x_max":986,"o":"m 588 -97 q 292 246 292 -97 l 292 683 l 488 683 l 488 246 q 517 102 488 143 q 611 61 546 61 q 705 100 664 61 q 768 206 746 139 q 790 350 790 272 l 790 683 l 986 683 l 986 -86 l 790 -86 l 790 -4 q 698 -74 750 -51 q 588 -97 646 -97 z "},"ｖ":{"ha":1278,"x_min":274,"x_max":1004,"o":"m 274 683 l 475 683 l 622 203 l 640 126 l 658 203 l 806 683 l 1004 683 l 729 -86 l 546 -86 l 274 683 z "},"ｗ":{"ha":1278,"x_min":138,"x_max":1140,"o":"m 138 683 l 325 683 l 422 183 l 432 125 l 443 185 l 553 678 l 725 678 l 838 185 l 849 128 l 857 183 l 954 683 l 1140 683 l 946 -86 l 760 -86 l 650 397 l 640 456 l 629 397 l 519 -86 l 333 -86 l 138 683 z "},"ｘ":{"ha":1278,"x_min":282,"x_max":997,"o":"m 526 311 l 289 683 l 500 683 l 619 475 l 640 436 l 664 475 l 782 683 l 992 683 l 754 311 l 997 -86 l 794 -86 l 664 143 l 640 183 l 619 144 l 492 -86 l 282 -86 l 526 311 z "},"ｙ":{"ha":1278,"x_min":282,"x_max":994,"o":"m 360 -375 q 299 -369 319 -375 l 317 -215 q 382 -222 342 -222 q 486 -173 444 -222 q 543 -47 528 -124 l 282 683 l 478 683 l 622 211 l 639 142 l 657 211 l 800 683 l 994 683 l 724 -78 q 593 -294 675 -214 q 360 -375 511 -375 z "},"ｚ":{"ha":1278,"x_min":340,"x_max":965,"o":"m 340 58 l 708 528 l 357 528 l 357 683 l 933 683 l 933 535 l 574 69 l 965 69 l 965 -86 l 340 -86 l 340 58 z "},"ⁿ":{"ha":811,"x_min":97,"x_max":714,"o":"m 97 974 l 269 974 l 269 907 q 444 983 336 983 q 638 912 563 983 q 714 672 714 840 l 714 290 l 542 290 l 542 672 q 512 802 542 763 q 422 842 482 842 q 313 777 357 842 q 269 610 269 713 l 269 290 l 97 290 l 97 974 z "},"ª":{"ha":778,"x_min":69,"x_max":681,"o":"m 510 731 q 475 819 510 788 q 368 850 440 850 q 276 830 325 850 q 186 775 228 810 l 101 886 q 235 963 167 943 q 382 983 303 983 q 604 902 528 983 q 681 685 681 821 l 681 290 l 510 290 l 510 358 q 419 300 471 321 q 296 279 368 279 q 130 340 190 279 q 69 490 69 400 q 136 649 69 590 q 333 719 203 708 q 426 725 392 725 q 510 721 467 725 l 510 731 m 242 499 q 267 437 242 457 q 335 417 293 417 q 446 454 397 417 q 510 547 494 492 l 510 597 q 447 600 489 600 q 347 592 397 600 q 270 558 299 582 q 242 499 242 533 z "},"º":{"ha":806,"x_min":69,"x_max":736,"o":"m 404 281 q 235 324 311 281 q 114 447 158 367 q 69 633 69 528 q 114 819 69 739 q 235 942 158 899 q 404 986 311 986 q 573 942 497 986 q 692 819 649 899 q 736 633 736 739 q 692 447 736 526 q 573 324 649 367 q 404 281 497 281 m 246 633 q 290 477 246 535 q 404 419 335 419 q 517 477 472 419 q 561 633 561 535 q 517 788 561 732 q 404 844 472 844 q 290 788 335 844 q 246 633 246 732 z "},"А":{"ha":928,"x_min":28,"x_max":900,"o":"m 361 982 l 567 982 l 900 -86 l 701 -86 l 625 183 l 306 183 l 228 -86 l 28 -86 l 361 982 m 581 339 l 511 582 l 465 763 l 419 582 l 350 339 l 581 339 z "},"Б":{"ha":958,"x_min":111,"x_max":889,"o":"m 214 -86 q 136 -62 161 -86 q 111 13 111 -39 l 111 982 l 788 982 l 788 821 l 304 821 l 304 544 l 526 544 q 798 460 707 544 q 889 217 889 375 q 797 -8 889 69 q 526 -86 704 -86 l 214 -86 m 524 75 q 649 116 601 75 q 696 229 696 157 q 648 342 696 300 q 524 383 600 383 l 304 383 l 304 75 l 524 75 z "},"В":{"ha":958,"x_min":111,"x_max":889,"o":"m 214 -86 q 136 -62 161 -86 q 111 13 111 -39 l 111 982 l 481 982 q 750 905 657 982 q 843 690 843 828 q 732 471 843 538 q 889 217 889 404 q 797 -8 889 69 q 526 -86 704 -86 l 214 -86 m 524 75 q 649 116 601 75 q 696 229 696 157 q 648 342 696 300 q 524 383 600 383 l 304 383 l 304 75 l 524 75 m 478 539 q 607 574 558 539 q 656 679 656 610 q 607 785 656 749 q 478 821 558 821 l 304 821 l 304 539 l 478 539 z "},"Г":{"ha":822,"x_min":111,"x_max":760,"o":"m 111 982 l 760 982 l 760 821 l 304 821 l 304 -86 l 111 -86 l 111 982 z "},"Д":{"ha":1000,"x_min":69,"x_max":931,"o":"m 738 1 l 263 1 l 263 -375 l 69 -375 l 69 157 l 76 157 q 160 188 133 160 q 186 278 186 215 l 186 982 l 849 982 l 849 157 l 931 157 l 931 -375 l 738 -375 l 738 1 m 653 157 l 653 821 l 382 821 l 382 286 q 360 157 382 210 l 653 157 z "},"Е":{"ha":826,"x_min":111,"x_max":764,"o":"m 214 -86 q 136 -62 161 -86 q 111 13 111 -39 l 111 982 l 744 982 l 744 821 l 304 821 l 304 532 l 708 532 l 708 376 l 304 376 l 304 75 l 764 75 l 764 -86 l 214 -86 z "},"Ё":{"ha":833,"x_min":111,"x_max":764,"o":"m 214 -86 q 136 -62 161 -86 q 111 13 111 -39 l 111 982 l 744 982 l 744 821 l 304 821 l 304 532 l 708 532 l 708 376 l 304 376 l 304 75 l 764 75 l 764 -86 l 214 -86 m 204 1129 q 229 1188 204 1163 q 289 1214 254 1214 q 346 1188 321 1214 q 371 1129 371 1163 q 347 1072 371 1096 q 289 1047 322 1047 q 228 1071 253 1047 q 204 1129 204 1094 m 476 1129 q 501 1188 476 1163 q 560 1214 525 1214 q 617 1188 592 1214 q 643 1129 643 1163 q 618 1072 643 1096 q 560 1047 593 1047 q 501 1071 525 1047 q 476 1129 476 1094 z "},"Ж":{"ha":1389,"x_min":56,"x_max":1335,"o":"m 600 -86 l 600 276 l 511 397 l 257 -86 l 56 -86 l 399 551 l 82 982 l 292 982 l 600 549 l 600 982 l 790 982 l 790 549 l 1099 982 l 1308 982 l 992 551 l 1335 -86 l 1133 -86 l 879 397 l 790 276 l 790 -86 l 600 -86 z "},"З":{"ha":851,"x_min":49,"x_max":782,"o":"m 410 -97 q 201 -51 296 -97 q 49 85 107 -6 l 174 185 q 273 87 217 114 q 401 60 329 60 q 540 102 489 60 q 590 221 590 144 q 535 338 590 293 q 390 382 481 382 l 268 382 l 268 535 l 353 535 q 505 575 453 535 q 557 693 557 615 q 510 797 557 756 q 385 838 464 838 q 288 808 336 838 q 207 726 239 779 l 82 817 q 212 945 129 897 q 397 993 294 993 q 582 954 504 993 q 701 848 660 915 q 742 700 742 781 q 703 551 742 610 q 613 469 664 492 q 734 381 686 447 q 782 213 782 315 q 739 55 782 125 q 612 -56 696 -15 q 410 -97 528 -97 z "},"И":{"ha":1000,"x_min":111,"x_max":889,"o":"m 696 -86 l 696 465 l 701 658 l 682 615 l 299 -86 l 111 -86 l 111 982 l 304 982 l 304 431 l 299 233 l 318 276 l 703 982 l 889 982 l 889 -86 l 696 -86 z "},"Й":{"ha":1000,"x_min":111,"x_max":889,"o":"m 696 -86 l 696 465 l 701 658 l 682 615 l 299 -86 l 111 -86 l 111 982 l 304 982 l 304 431 l 299 233 l 318 276 l 703 982 l 889 982 l 889 -86 l 696 -86 m 428 1271 q 447 1206 428 1233 q 508 1179 465 1179 q 571 1206 553 1179 q 588 1271 589 1233 l 757 1271 q 726 1153 757 1208 q 639 1066 696 1099 q 508 1033 582 1033 q 377 1066 435 1033 q 288 1153 319 1099 q 257 1271 257 1208 l 428 1271 z "},"К":{"ha":935,"x_min":111,"x_max":907,"o":"m 111 982 l 307 982 l 307 532 l 654 982 l 881 982 l 535 554 l 907 -86 l 706 -86 l 421 414 l 307 274 l 307 -86 l 111 -86 l 111 982 z "},"Л":{"ha":979,"x_min":69,"x_max":882,"o":"m 686 821 l 381 821 l 381 192 q 306 -16 381 54 q 69 -86 231 -86 l 69 90 q 157 113 129 90 q 185 183 185 135 l 185 982 l 882 982 l 882 -86 l 686 -86 l 686 821 z "},"М":{"ha":1181,"x_min":111,"x_max":1069,"o":"m 111 982 l 338 982 l 563 306 l 592 192 l 621 306 l 843 982 l 1069 982 l 1069 -86 l 881 -86 l 881 356 l 890 644 l 861 539 l 690 6 l 492 6 l 319 539 l 290 644 l 300 356 l 300 -86 l 111 -86 l 111 982 z "},"Н":{"ha":1000,"x_min":111,"x_max":889,"o":"m 696 386 l 304 386 l 304 -86 l 111 -86 l 111 982 l 304 982 l 304 542 l 696 542 l 696 982 l 889 982 l 889 -86 l 696 -86 l 696 386 z "},"О":{"ha":1082,"x_min":83,"x_max":999,"o":"m 542 -97 q 308 -32 413 -97 q 144 157 204 33 q 83 449 83 281 q 144 739 83 615 q 308 928 204 863 q 542 993 413 993 q 774 928 671 993 q 938 739 878 863 q 999 449 999 615 q 938 157 999 281 q 774 -32 878 33 q 542 -97 671 -97 m 279 449 q 314 238 279 325 q 408 106 349 150 q 542 61 468 61 q 674 106 615 61 q 768 238 733 150 q 803 449 803 325 q 768 658 803 571 q 674 790 733 746 q 542 835 614 835 q 408 790 468 835 q 314 658 349 746 q 279 449 279 571 z "},"П":{"ha":1000,"x_min":111,"x_max":889,"o":"m 696 826 l 304 826 l 304 -86 l 111 -86 l 111 982 l 889 982 l 889 -86 l 696 -86 l 696 826 z "},"Р":{"ha":944,"x_min":111,"x_max":868,"o":"m 111 982 l 464 982 q 763 892 658 982 q 868 638 868 803 q 763 383 868 472 q 464 293 658 293 l 307 293 l 307 -86 l 111 -86 l 111 982 m 454 451 q 617 500 563 451 q 672 638 672 549 q 617 775 672 726 q 454 824 563 824 l 307 824 l 307 451 l 454 451 z "},"С":{"ha":943,"x_min":83,"x_max":901,"o":"m 532 -97 q 303 -32 406 -97 q 142 157 201 33 q 83 449 83 281 q 144 739 83 615 q 306 928 204 863 q 532 993 408 993 q 711 953 628 993 q 850 832 794 913 l 708 743 q 632 813 681 790 q 532 835 583 835 q 406 790 464 835 q 314 658 349 744 q 279 449 279 571 q 314 236 279 324 q 407 105 349 149 q 538 61 465 61 q 666 92 608 61 q 753 193 724 124 l 901 117 q 753 -45 851 7 q 532 -97 656 -97 z "},"Т":{"ha":875,"x_min":63,"x_max":813,"o":"m 342 821 l 63 821 l 63 982 l 813 982 l 813 821 l 535 821 l 535 -86 l 342 -86 l 342 821 z "},"У":{"ha":782,"x_min":35,"x_max":747,"o":"m 113 -76 q 51 -71 72 -76 l 69 83 q 135 76 94 76 q 239 126 197 76 q 296 251 281 175 l 35 982 l 231 982 l 375 510 l 392 440 l 410 510 l 553 982 l 747 982 l 476 221 q 346 4 428 85 q 113 -76 264 -76 z "},"Ф":{"ha":1082,"x_min":83,"x_max":999,"o":"m 446 -86 l 446 49 q 183 180 283 75 q 83 449 83 285 q 183 716 83 611 q 446 847 283 821 l 446 982 l 636 982 l 636 847 q 898 716 797 821 q 999 449 999 611 q 899 180 999 285 q 636 49 799 75 l 636 -86 l 446 -86 m 275 449 q 322 297 275 358 q 446 214 368 236 l 446 682 q 322 599 368 660 q 275 449 275 539 m 636 214 q 760 297 714 236 q 807 449 807 358 q 760 599 807 539 q 636 683 714 660 l 636 214 z "},"Х":{"ha":897,"x_min":28,"x_max":869,"o":"m 344 461 l 42 982 l 250 982 l 397 711 l 450 613 l 503 711 l 649 982 l 856 982 l 553 461 l 869 -86 l 660 -86 l 503 208 l 450 315 l 396 208 l 238 -86 l 28 -86 l 344 461 z "},"Ч":{"ha":889,"x_min":97,"x_max":792,"o":"m 792 -86 l 596 -86 l 596 294 q 506 233 557 253 q 400 214 456 214 q 183 294 268 214 q 97 564 97 375 l 97 982 l 293 982 l 293 564 q 326 417 293 461 q 424 372 358 372 q 512 405 472 372 q 574 497 551 438 q 596 633 596 557 l 596 982 l 792 982 l 792 -86 z "},"Ц":{"ha":1058,"x_min":111,"x_max":989,"o":"m 847 982 l 847 75 l 989 75 l 989 -375 l 793 -375 l 793 -86 l 214 -86 q 136 -62 161 -86 q 111 13 111 -39 l 111 982 l 304 982 l 304 75 l 654 75 l 654 982 l 847 982 z "},"Ш":{"ha":1235,"x_min":111,"x_max":1124,"o":"m 1124 982 l 1124 -86 l 214 -86 q 136 -62 161 -86 q 111 13 111 -39 l 111 982 l 304 982 l 304 75 l 525 75 l 525 982 l 710 982 l 710 75 l 931 75 l 931 982 l 1124 982 z "},"Щ":{"ha":1335,"x_min":111,"x_max":1265,"o":"m 1124 982 l 1124 75 l 1265 75 l 1265 -375 l 1069 -375 l 1069 -86 l 214 -86 q 136 -62 161 -86 q 111 13 111 -39 l 111 982 l 304 982 l 304 75 l 525 75 l 525 982 l 710 982 l 710 75 l 931 75 l 931 982 l 1124 982 z "},"Ь":{"ha":958,"x_min":111,"x_max":889,"o":"m 214 -86 q 136 -62 161 -86 q 111 13 111 -39 l 111 982 l 304 982 l 304 544 l 526 544 q 798 460 707 544 q 889 217 889 375 q 797 -8 889 69 q 526 -86 704 -86 l 214 -86 m 524 75 q 649 116 601 75 q 696 229 696 157 q 648 342 696 300 q 524 383 600 383 l 304 383 l 304 75 l 524 75 z "},"Ы":{"ha":1335,"x_min":111,"x_max":1224,"o":"m 214 -86 q 136 -62 161 -86 q 111 13 111 -39 l 111 982 l 304 982 l 304 544 l 526 544 q 798 460 707 544 q 889 217 889 375 q 797 -8 889 69 q 526 -86 704 -86 l 214 -86 m 524 75 q 649 116 601 75 q 696 229 696 157 q 648 342 696 300 q 524 383 600 383 l 304 383 l 304 75 l 524 75 m 1028 982 l 1224 982 l 1224 -86 l 1028 -86 l 1028 982 z "},"Ъ":{"ha":1076,"x_min":83,"x_max":1007,"o":"m 332 -86 q 254 -62 279 -86 q 229 13 229 -39 l 229 821 l 83 821 l 83 982 l 422 982 l 422 544 l 644 544 q 916 460 825 544 q 1007 217 1007 375 q 915 -8 1007 69 q 644 -86 822 -86 l 332 -86 m 642 75 q 767 116 719 75 q 814 229 814 157 q 766 342 814 300 q 642 383 718 383 l 422 383 l 422 75 l 642 75 z "},"Э":{"ha":943,"x_min":42,"x_max":860,"o":"m 411 -97 q 190 -45 288 -97 q 42 117 92 7 l 190 193 q 277 92 219 124 q 406 61 335 61 q 574 142 504 61 q 660 372 644 222 l 229 372 l 229 528 l 660 528 q 613 694 649 625 q 524 799 576 764 q 411 835 471 835 q 311 813 360 835 q 235 743 263 790 l 93 832 q 232 953 149 913 q 411 993 315 993 q 637 928 535 993 q 799 739 739 863 q 860 449 860 615 q 801 157 860 281 q 640 -32 742 33 q 411 -97 538 -97 z "},"Ю":{"ha":1249,"x_min":111,"x_max":1151,"o":"m 111 982 l 304 982 l 304 542 l 435 542 q 544 874 451 756 q 792 993 638 993 q 985 928 904 993 q 1108 741 1065 864 q 1151 449 1151 618 q 1108 155 1151 278 q 985 -33 1065 32 q 792 -97 904 -97 q 538 30 632 -97 q 432 386 443 157 l 304 386 l 304 -86 l 111 -86 l 111 982 m 621 449 q 666 164 621 267 q 792 61 711 61 q 917 164 872 61 q 961 449 961 267 q 917 733 961 631 q 792 835 872 835 q 666 733 711 835 q 621 449 621 631 z "},"Я":{"ha":949,"x_min":28,"x_max":838,"o":"m 644 -86 l 644 343 l 488 343 l 229 -86 l 28 -86 l 313 364 q 144 470 200 394 q 88 663 88 546 q 188 900 88 818 q 485 982 288 982 l 838 982 l 838 -86 l 644 -86 m 283 663 q 336 540 283 578 q 494 501 389 501 l 644 501 l 644 824 l 494 824 q 336 785 389 824 q 283 663 283 747 z "},"а":{"ha":854,"x_min":69,"x_max":757,"o":"m 564 408 q 525 508 564 472 q 406 543 486 543 q 302 521 357 543 q 201 460 247 499 l 104 585 q 255 671 178 649 q 422 693 332 693 q 671 602 585 693 q 757 358 757 511 l 757 -86 l 564 -86 l 564 -10 q 325 -97 474 -97 q 187 -66 244 -97 q 99 19 129 -35 q 69 139 69 74 q 144 317 69 251 q 367 397 219 383 q 472 403 433 403 q 564 399 517 403 l 564 408 m 263 149 q 292 79 263 101 q 368 57 321 57 q 492 99 438 57 q 564 200 546 140 l 564 258 q 492 263 529 263 q 383 253 433 263 q 295 215 328 242 q 263 149 263 188 z "},"б":{"ha":840,"x_min":76,"x_max":778,"o":"m 267 811 q 339 879 325 849 q 344 904 344 890 q 301 961 344 936 l 426 1061 q 496 995 472 1036 q 519 907 519 954 q 501 824 519 869 q 378 679 464 732 q 307 617 333 651 q 271 524 281 583 q 353 582 297 560 q 463 604 410 604 q 627 560 556 604 q 738 436 699 515 q 778 256 778 357 q 690 0 778 97 q 440 -97 603 -97 q 172 25 268 -97 q 76 367 76 147 l 76 432 q 136 669 88 579 q 267 811 185 758 m 274 293 q 315 122 272 185 q 431 58 357 58 q 551 110 511 58 q 590 251 590 163 q 549 390 590 335 q 435 444 507 444 q 328 399 369 444 q 274 293 286 354 z "},"в":{"ha":833,"x_min":111,"x_max":717,"o":"m 201 -86 q 135 -63 158 -86 q 111 1 111 -40 l 111 683 l 417 683 q 615 625 544 683 q 685 463 685 567 q 626 317 685 369 q 717 140 717 263 q 647 -27 717 32 q 449 -86 578 -86 l 201 -86 m 447 75 q 517 94 493 75 q 542 149 542 113 q 517 208 542 188 q 447 229 493 229 l 290 229 l 290 75 l 447 75 m 415 385 q 490 401 465 385 q 514 454 514 418 q 490 506 514 490 q 415 522 465 522 l 290 522 l 290 385 l 415 385 z "},"г":{"ha":771,"x_min":111,"x_max":708,"o":"m 304 521 l 304 -86 l 111 -86 l 111 683 l 708 683 l 708 521 l 304 521 z "},"д":{"ha":889,"x_min":69,"x_max":819,"o":"m 633 -147 l 256 -147 l 256 -375 l 69 -375 l 69 3 l 76 3 q 160 33 133 6 q 186 124 186 61 l 186 683 l 738 683 l 738 3 l 819 3 l 819 -375 l 633 -375 l 633 -147 m 549 3 l 549 528 l 375 528 l 375 132 q 354 3 375 57 l 549 3 z "},"е":{"ha":824,"x_min":69,"x_max":756,"o":"m 422 -97 q 244 -50 325 -97 q 117 86 164 -3 q 69 297 69 175 q 113 508 69 418 q 233 644 157 597 q 406 692 310 692 q 641 608 536 692 q 754 311 746 524 q 753 231 756 285 l 271 231 q 320 101 279 147 q 426 54 361 54 q 590 149 546 54 l 733 69 q 607 -55 690 -12 q 422 -97 524 -97 m 551 376 q 503 503 542 467 q 411 539 465 539 q 320 496 354 539 q 274 376 286 453 l 551 376 z "},"ё":{"ha":824,"x_min":69,"x_max":756,"o":"m 422 -97 q 244 -50 325 -97 q 117 86 164 -3 q 69 297 69 175 q 113 508 69 418 q 233 644 157 597 q 406 692 310 692 q 641 608 536 692 q 754 311 746 524 q 753 231 756 285 l 271 231 q 320 101 279 147 q 426 54 361 54 q 590 149 546 54 l 733 69 q 607 -55 690 -12 q 422 -97 524 -97 m 190 851 q 215 910 190 885 q 275 936 240 936 q 332 910 307 936 q 357 851 357 885 q 333 794 357 818 q 275 769 308 769 q 215 793 239 769 q 190 851 190 817 m 551 376 q 503 503 542 467 q 411 539 465 539 q 320 496 354 539 q 274 376 286 453 l 551 376 m 463 851 q 487 910 463 885 q 546 936 511 936 q 603 910 578 936 q 629 851 629 885 q 604 794 629 818 q 546 769 579 769 q 487 793 511 769 q 463 851 463 817 z "},"ж":{"ha":1171,"x_min":28,"x_max":1143,"o":"m 492 140 l 413 233 l 236 -86 l 28 -86 l 297 371 l 35 683 l 264 683 l 492 389 l 492 685 l 679 685 l 679 389 l 907 683 l 1136 683 l 874 371 l 1143 -86 l 935 -86 l 758 233 l 679 140 l 679 -86 l 492 -86 l 492 140 z "},"з":{"ha":669,"x_min":49,"x_max":600,"o":"m 324 -97 q 163 -59 236 -97 q 49 54 90 -21 l 172 151 q 233 74 199 94 q 318 54 268 54 q 425 140 425 54 q 395 205 425 182 q 311 228 365 228 l 206 228 l 206 378 l 286 378 q 374 398 347 378 q 401 461 401 418 q 378 517 401 497 q 307 538 354 538 q 243 516 272 538 q 194 450 214 494 l 72 539 q 169 647 104 604 q 314 689 233 689 q 451 659 393 689 q 540 578 510 629 q 571 467 571 528 q 507 313 571 374 q 574 244 549 289 q 600 135 600 199 q 567 18 600 71 q 472 -66 535 -35 q 324 -97 410 -97 z "},"и":{"ha":903,"x_min":111,"x_max":792,"o":"m 599 -86 l 599 239 l 604 418 l 585 375 l 299 -86 l 111 -86 l 111 683 l 304 683 l 304 351 l 299 168 l 318 211 l 606 683 l 792 683 l 792 -86 l 599 -86 z "},"й":{"ha":903,"x_min":111,"x_max":792,"o":"m 453 756 q 322 788 379 756 q 233 876 264 821 q 201 993 201 931 l 372 993 q 391 928 372 956 q 453 901 410 901 q 515 928 497 901 q 532 993 533 956 l 701 993 q 671 876 701 931 q 583 788 640 821 q 453 756 526 756 m 111 683 l 304 683 l 304 351 l 299 168 l 318 211 l 606 683 l 792 683 l 792 -86 l 599 -86 l 599 239 l 604 418 l 585 375 l 299 -86 l 111 -86 l 111 683 z "},"к":{"ha":808,"x_min":97,"x_max":781,"o":"m 97 685 l 293 685 l 293 389 l 544 683 l 774 683 l 497 372 l 781 -86 l 572 -86 l 381 242 l 293 143 l 293 -86 l 97 -86 l 97 685 z "},"л":{"ha":868,"x_min":69,"x_max":771,"o":"m 575 522 l 381 522 l 381 192 q 306 -16 381 54 q 69 -86 231 -86 l 69 90 q 157 113 129 90 q 185 183 185 135 l 185 683 l 771 683 l 771 -86 l 575 -86 l 575 522 z "},"м":{"ha":1069,"x_min":111,"x_max":958,"o":"m 111 683 l 338 683 l 486 278 l 536 150 l 586 278 l 732 683 l 958 683 l 958 -86 l 769 -86 l 769 200 l 779 419 l 750 314 l 635 6 l 436 6 l 319 314 l 290 419 l 300 200 l 300 -86 l 111 -86 l 111 683 z "},"н":{"ha":889,"x_min":111,"x_max":778,"o":"m 585 238 l 304 238 l 304 -86 l 111 -86 l 111 683 l 304 683 l 304 393 l 585 393 l 585 683 l 778 683 l 778 -86 l 585 -86 l 585 238 z "},"о":{"ha":889,"x_min":69,"x_max":819,"o":"m 446 -96 q 256 -48 342 -96 q 119 90 169 0 q 69 300 69 181 q 119 509 69 419 q 256 647 169 599 q 446 696 342 696 q 635 647 550 696 q 770 509 721 599 q 819 300 819 419 q 770 90 819 181 q 635 -48 721 0 q 446 -96 550 -96 m 267 300 q 317 124 267 189 q 446 60 368 60 q 573 124 522 60 q 624 300 624 189 q 573 474 624 410 q 446 538 522 538 q 317 474 368 538 q 267 300 267 410 z "},"п":{"ha":889,"x_min":111,"x_max":778,"o":"m 585 521 l 304 521 l 304 -86 l 111 -86 l 111 683 l 778 683 l 778 -86 l 585 -86 l 585 521 z "},"р":{"ha":890,"x_min":97,"x_max":821,"o":"m 490 -96 q 293 -15 369 -96 l 293 -375 l 97 -375 l 97 683 l 293 683 l 293 603 q 496 693 372 693 q 734 593 647 693 q 821 299 821 493 q 780 90 821 179 q 664 -47 739 1 q 490 -96 589 -96 m 293 244 q 353 112 307 163 q 457 61 399 61 q 579 122 535 61 q 624 299 624 183 q 582 477 624 418 q 461 536 540 536 q 357 493 404 536 q 293 371 310 450 l 293 244 z "},"с":{"ha":765,"x_min":69,"x_max":747,"o":"m 443 -97 q 258 -50 343 -97 q 121 87 172 -3 q 69 297 69 176 q 119 508 69 418 q 254 644 169 597 q 439 692 339 692 q 592 657 522 692 q 704 554 663 622 l 582 454 q 442 535 536 535 q 316 469 365 535 q 267 297 267 403 q 317 124 267 189 q 450 60 368 60 q 606 164 557 60 l 747 85 q 626 -50 711 -3 q 443 -97 540 -97 z "},"т":{"ha":819,"x_min":63,"x_max":757,"o":"m 314 522 l 63 522 l 63 683 l 757 683 l 757 522 l 507 522 l 507 -86 l 314 -86 l 314 522 z "},"у":{"ha":782,"x_min":35,"x_max":747,"o":"m 113 -375 q 51 -369 72 -375 l 69 -215 q 135 -222 94 -222 q 239 -173 197 -222 q 296 -47 281 -124 l 35 683 l 231 683 l 375 211 l 392 142 l 410 211 l 553 683 l 747 683 l 476 -78 q 346 -294 428 -214 q 113 -375 264 -375 z "},"ф":{"ha":833,"x_min":69,"x_max":819,"o":"m 347 24 q 147 119 224 46 q 69 300 69 193 q 147 481 69 407 q 347 576 224 554 l 347 683 l 543 683 l 543 576 q 743 481 667 554 q 819 300 819 407 q 743 119 819 193 q 543 24 667 46 l 543 -86 l 347 -86 l 347 24 m 251 300 q 276 225 251 257 q 347 176 301 193 l 347 421 q 276 374 301 404 q 251 300 251 343 m 543 178 q 611 226 586 194 q 636 300 636 257 q 611 372 636 342 q 543 419 586 403 l 543 178 z "},"х":{"ha":785,"x_min":35,"x_max":750,"o":"m 279 311 l 42 683 l 253 683 l 372 475 l 393 436 l 417 475 l 535 683 l 744 683 l 507 311 l 750 -86 l 547 -86 l 417 143 l 393 183 l 372 144 l 244 -86 l 35 -86 l 279 311 z "},"ч":{"ha":875,"x_min":97,"x_max":778,"o":"m 778 -86 l 582 -86 l 582 146 q 393 64 506 64 q 178 144 260 64 q 97 414 97 224 l 97 683 l 293 683 l 293 414 q 321 265 293 308 q 417 222 349 222 q 498 256 460 222 q 559 349 536 289 q 582 483 582 408 l 582 683 l 778 683 l 778 -86 z "},"ц":{"ha":944,"x_min":111,"x_max":875,"o":"m 736 683 l 736 75 l 875 75 l 875 -375 l 685 -375 l 685 -86 l 214 -86 q 136 -62 161 -86 q 111 13 111 -39 l 111 683 l 300 683 l 300 75 l 549 75 l 549 683 l 736 683 z "},"ш":{"ha":1124,"x_min":111,"x_max":1013,"o":"m 1013 683 l 1013 -86 l 214 -86 q 136 -62 161 -86 q 111 13 111 -39 l 111 683 l 299 683 l 299 71 l 472 71 l 472 683 l 651 683 l 651 71 l 825 71 l 825 683 l 1013 683 z "},"щ":{"ha":1221,"x_min":111,"x_max":1151,"o":"m 1013 683 l 1013 75 l 1151 75 l 1151 -375 l 961 -375 l 961 -86 l 214 -86 q 136 -62 161 -86 q 111 13 111 -39 l 111 683 l 299 683 l 299 71 l 472 71 l 472 683 l 651 683 l 651 71 l 825 71 l 825 683 l 1013 683 z "},"ь":{"ha":792,"x_min":111,"x_max":722,"o":"m 214 -86 q 136 -62 161 -86 q 111 13 111 -39 l 111 683 l 296 683 l 296 396 l 415 396 q 642 330 563 396 q 722 143 722 264 q 642 -26 722 33 q 415 -86 563 -86 l 214 -86 m 413 75 q 515 96 479 75 q 550 156 550 117 q 515 214 550 193 q 413 235 479 235 l 296 235 l 296 75 l 413 75 z "},"ы":{"ha":1113,"x_min":111,"x_max":1001,"o":"m 806 683 l 1001 683 l 1001 -86 l 806 -86 l 806 683 m 111 683 l 296 683 l 296 396 l 415 396 q 642 330 563 396 q 722 143 722 264 q 642 -26 722 33 q 415 -86 563 -86 l 214 -86 q 136 -62 161 -86 q 111 13 111 -39 l 111 683 m 413 75 q 515 96 479 75 q 550 156 550 117 q 515 214 550 193 q 413 235 479 235 l 296 235 l 296 75 l 413 75 z "},"ъ":{"ha":917,"x_min":69,"x_max":806,"o":"m 297 -86 q 219 -62 244 -86 q 194 13 194 -39 l 194 522 l 69 522 l 69 683 l 379 683 l 379 396 l 499 396 q 726 330 646 396 q 806 143 806 264 q 726 -26 806 33 q 499 -86 646 -86 l 297 -86 m 496 75 q 598 96 563 75 q 633 156 633 117 q 598 214 633 193 q 496 235 563 235 l 379 235 l 379 75 l 496 75 z "},"э":{"ha":765,"x_min":18,"x_max":696,"o":"m 322 -97 q 140 -50 225 -97 q 18 85 54 -3 l 160 164 q 315 60 208 60 q 429 103 382 60 q 492 224 476 147 l 188 224 l 188 379 l 489 379 q 428 493 472 451 q 324 535 383 535 q 183 454 229 535 l 61 554 q 173 657 103 622 q 326 692 243 692 q 511 644 426 692 q 646 508 596 597 q 696 297 696 418 q 644 87 696 176 q 508 -50 593 -3 q 322 -97 422 -97 z "},"ю":{"ha":1111,"x_min":111,"x_max":1000,"o":"m 111 683 l 307 683 l 307 393 l 422 393 q 516 617 442 538 q 710 696 590 696 q 923 591 846 696 q 1000 300 1000 486 q 923 9 1000 114 q 710 -96 846 -96 q 508 -8 583 -96 q 419 238 432 79 l 307 238 l 307 -86 l 111 -86 l 111 683 m 608 300 q 635 123 608 186 q 710 60 663 60 q 783 123 757 60 q 810 300 810 186 q 783 474 810 411 q 710 538 757 538 q 635 474 663 538 q 608 300 608 411 z "},"я":{"ha":810,"x_min":28,"x_max":699,"o":"m 414 151 l 229 -86 l 28 -86 l 246 178 q 88 417 88 236 q 170 615 88 547 q 415 683 253 683 l 699 683 l 699 -86 l 506 -86 l 506 151 l 415 151 l 414 151 m 283 417 q 319 335 283 361 q 425 310 354 310 l 506 310 l 506 525 l 425 525 q 319 499 354 525 q 283 417 283 474 z "},"Α":{"ha":928,"x_min":28,"x_max":900,"o":"m 361 982 l 567 982 l 900 -86 l 701 -86 l 625 183 l 306 183 l 228 -86 l 28 -86 l 361 982 m 581 339 l 511 582 l 465 763 l 419 582 l 350 339 l 581 339 z "},"Β":{"ha":958,"x_min":111,"x_max":889,"o":"m 214 -86 q 136 -62 161 -86 q 111 13 111 -39 l 111 982 l 481 982 q 750 905 657 982 q 843 690 843 828 q 732 471 843 538 q 889 217 889 404 q 797 -8 889 69 q 526 -86 704 -86 l 214 -86 m 524 75 q 649 116 601 75 q 696 229 696 157 q 648 342 696 300 q 524 383 600 383 l 304 383 l 304 75 l 524 75 m 478 539 q 607 574 558 539 q 656 679 656 610 q 607 785 656 749 q 478 821 558 821 l 304 821 l 304 539 l 478 539 z "},"Γ":{"ha":822,"x_min":111,"x_max":760,"o":"m 111 982 l 760 982 l 760 821 l 304 821 l 304 -86 l 111 -86 l 111 982 z "},"Δ":{"ha":858,"x_min":28,"x_max":831,"o":"m 326 982 l 532 982 l 831 -86 l 28 -86 l 326 982 m 600 72 l 468 582 l 431 763 l 393 582 l 260 72 l 600 72 z "},"Ε":{"ha":826,"x_min":111,"x_max":764,"o":"m 214 -86 q 136 -62 161 -86 q 111 13 111 -39 l 111 982 l 744 982 l 744 821 l 304 821 l 304 532 l 708 532 l 708 376 l 304 376 l 304 75 l 764 75 l 764 -86 l 214 -86 z "},"Ζ":{"ha":868,"x_min":63,"x_max":806,"o":"m 63 68 l 554 821 l 79 821 l 79 982 l 774 982 l 774 828 l 289 75 l 806 75 l 806 -86 l 63 -86 l 63 68 z "},"Η":{"ha":1000,"x_min":111,"x_max":889,"o":"m 696 386 l 304 386 l 304 -86 l 111 -86 l 111 982 l 304 982 l 304 542 l 696 542 l 696 982 l 889 982 l 889 -86 l 696 -86 l 696 386 z "},"Θ":{"ha":1082,"x_min":83,"x_max":999,"o":"m 542 -97 q 308 -32 413 -97 q 144 157 204 33 q 83 449 83 281 q 144 739 83 615 q 308 928 204 863 q 542 993 413 993 q 774 928 671 993 q 938 739 878 863 q 999 449 999 615 q 938 157 999 281 q 774 -32 878 33 q 542 -97 671 -97 m 279 449 q 314 238 279 325 q 408 106 349 150 q 542 61 468 61 q 674 106 615 61 q 768 238 733 150 q 803 449 803 325 q 768 658 803 571 q 674 790 733 746 q 542 835 614 835 q 408 790 468 835 q 314 658 349 746 q 279 449 279 571 m 372 542 l 717 542 l 717 386 l 372 386 l 372 542 z "},"Ι":{"ha":418,"x_min":111,"x_max":307,"o":"m 111 982 l 307 982 l 307 -86 l 111 -86 l 111 982 z "},"Κ":{"ha":935,"x_min":111,"x_max":907,"o":"m 111 982 l 307 982 l 307 532 l 654 982 l 881 982 l 535 554 l 907 -86 l 706 -86 l 421 414 l 307 274 l 307 -86 l 111 -86 l 111 982 z "},"Λ":{"ha":928,"x_min":28,"x_max":900,"o":"m 361 982 l 567 982 l 900 -86 l 701 -86 l 511 582 l 465 763 l 419 582 l 228 -86 l 28 -86 l 361 982 z "},"Μ":{"ha":1181,"x_min":111,"x_max":1069,"o":"m 111 982 l 338 982 l 563 306 l 592 192 l 621 306 l 843 982 l 1069 982 l 1069 -86 l 881 -86 l 881 356 l 890 644 l 861 539 l 690 6 l 492 6 l 319 539 l 290 644 l 300 356 l 300 -86 l 111 -86 l 111 982 z "},"Ν":{"ha":1000,"x_min":111,"x_max":889,"o":"m 111 982 l 297 982 l 682 276 l 701 233 l 696 431 l 696 982 l 889 982 l 889 -86 l 701 -86 l 318 615 l 299 658 l 304 465 l 304 -86 l 111 -86 l 111 982 z "},"Ξ":{"ha":911,"x_min":97,"x_max":814,"o":"m 814 -86 l 97 -86 l 97 75 l 814 75 l 814 -86 m 117 982 l 794 982 l 794 821 l 117 821 l 117 982 m 153 532 l 758 532 l 758 376 l 153 376 l 153 532 z "},"Ο":{"ha":1082,"x_min":83,"x_max":999,"o":"m 542 -97 q 308 -32 413 -97 q 144 157 204 33 q 83 449 83 281 q 144 739 83 615 q 308 928 204 863 q 542 993 413 993 q 774 928 671 993 q 938 739 878 863 q 999 449 999 615 q 938 157 999 281 q 774 -32 878 33 q 542 -97 671 -97 m 279 449 q 314 238 279 325 q 408 106 349 150 q 542 61 468 61 q 674 106 615 61 q 768 238 733 150 q 803 449 803 325 q 768 658 803 571 q 674 790 733 746 q 542 835 614 835 q 408 790 468 835 q 314 658 349 746 q 279 449 279 571 z "},"Π":{"ha":1000,"x_min":111,"x_max":889,"o":"m 696 826 l 304 826 l 304 -86 l 111 -86 l 111 982 l 889 982 l 889 -86 l 696 -86 l 696 826 z "},"Ρ":{"ha":944,"x_min":111,"x_max":868,"o":"m 111 982 l 464 982 q 763 892 658 982 q 868 638 868 803 q 763 383 868 472 q 464 293 658 293 l 307 293 l 307 -86 l 111 -86 l 111 982 m 454 451 q 617 500 563 451 q 672 638 672 549 q 617 775 672 726 q 454 824 563 824 l 307 824 l 307 451 l 454 451 z "},"Σ":{"ha":807,"x_min":111,"x_max":744,"o":"m 744 982 l 744 821 l 304 821 l 332 793 l 583 449 l 332 103 l 304 75 l 744 75 l 744 -86 l 111 -86 l 111 99 l 342 389 l 388 449 l 342 507 l 111 797 l 111 982 l 744 982 z "},"Τ":{"ha":875,"x_min":63,"x_max":813,"o":"m 342 821 l 63 821 l 63 982 l 813 982 l 813 821 l 535 821 l 535 -86 l 342 -86 l 342 821 z "},"Υ":{"ha":919,"x_min":39,"x_max":881,"o":"m 363 318 l 39 982 l 240 982 l 417 586 l 461 481 l 506 586 l 681 982 l 881 982 l 558 321 l 558 -86 l 363 -86 l 363 318 z "},"Φ":{"ha":1082,"x_min":83,"x_max":999,"o":"m 446 -86 l 446 49 q 183 180 283 75 q 83 449 83 285 q 183 716 83 611 q 446 847 283 821 l 446 982 l 636 982 l 636 847 q 898 716 797 821 q 999 449 999 611 q 899 180 999 285 q 636 49 799 75 l 636 -86 l 446 -86 m 275 449 q 322 297 275 358 q 446 214 368 236 l 446 682 q 322 599 368 660 q 275 449 275 539 m 636 214 q 760 297 714 236 q 807 449 807 358 q 760 599 807 539 q 636 683 714 660 l 636 214 z "},"Χ":{"ha":897,"x_min":28,"x_max":869,"o":"m 344 461 l 42 982 l 250 982 l 397 711 l 450 613 l 503 711 l 649 982 l 856 982 l 553 461 l 869 -86 l 660 -86 l 503 208 l 450 315 l 396 208 l 238 -86 l 28 -86 l 344 461 z "},"Ψ":{"ha":1000,"x_min":97,"x_max":903,"o":"m 406 -86 l 406 188 q 180 313 263 211 q 97 600 97 415 l 97 982 l 290 982 l 290 572 q 406 354 290 400 l 406 982 l 596 982 l 596 356 q 710 572 710 401 l 710 982 l 903 982 l 903 600 q 820 315 903 417 q 596 189 738 214 l 596 -86 l 406 -86 z "},"Ω":{"ha":1082,"x_min":83,"x_max":999,"o":"m 606 296 q 749 388 694 318 q 803 560 803 457 q 768 710 803 647 q 674 803 733 772 q 542 835 615 835 q 408 803 468 835 q 314 710 349 772 q 279 560 279 647 q 333 388 279 457 q 476 296 386 319 l 476 -86 l 106 -86 l 106 75 l 292 75 l 292 193 q 139 342 194 247 q 83 560 83 436 q 144 790 83 692 q 308 941 204 889 q 542 993 413 993 q 774 941 671 993 q 938 790 878 889 q 999 560 999 692 q 943 342 999 436 q 790 193 888 247 l 790 75 l 975 75 l 975 -86 l 606 -86 l 606 296 z "},"α":{"ha":928,"x_min":69,"x_max":858,"o":"m 564 408 q 525 508 564 472 q 406 543 486 543 q 302 521 357 543 q 201 460 247 499 l 104 585 q 255 671 178 649 q 422 693 332 693 q 671 602 585 693 q 757 358 757 511 l 757 183 q 781 113 757 135 q 858 90 806 90 l 858 -86 q 600 29 667 -86 q 488 -64 553 -31 q 325 -97 424 -97 q 187 -66 244 -97 q 99 19 129 -35 q 69 139 69 74 q 144 317 69 251 q 367 397 219 383 q 472 403 433 403 q 564 399 517 403 l 564 408 m 263 149 q 292 79 263 101 q 368 57 321 57 q 492 99 438 57 q 564 200 546 140 l 564 258 q 492 263 529 263 q 383 253 433 263 q 295 215 328 242 q 263 149 263 188 z "},"β":{"ha":944,"x_min":97,"x_max":875,"o":"m 97 -375 l 97 635 q 142 814 97 735 q 265 938 186 893 q 444 982 344 982 l 467 982 q 732 904 635 982 q 829 690 829 826 q 718 471 829 538 q 875 217 875 404 q 783 -8 875 69 q 513 -86 690 -86 l 368 -86 l 368 75 l 510 75 q 635 116 588 75 q 682 229 682 157 q 634 342 682 300 q 510 383 586 383 l 403 383 l 403 539 l 464 539 q 593 574 544 539 q 642 679 642 610 q 588 784 642 747 q 464 821 535 821 l 454 821 q 337 775 383 821 q 290 658 290 729 l 290 -375 l 97 -375 z "},"γ":{"ha":919,"x_min":39,"x_max":881,"o":"m 363 19 l 39 683 l 240 683 l 417 288 l 461 182 l 506 288 l 681 683 l 881 683 l 558 22 l 558 -375 l 363 -375 l 363 19 z "},"δ":{"ha":889,"x_min":69,"x_max":819,"o":"m 446 -96 q 256 -55 342 -96 q 119 61 169 -14 q 69 238 69 136 q 222 501 69 396 q 139 596 168 539 q 110 725 110 653 q 154 862 110 801 q 278 956 199 922 q 461 989 357 989 q 658 949 575 989 q 797 824 740 910 l 667 729 q 580 806 636 776 q 458 836 524 836 q 352 806 399 836 q 306 728 306 776 q 408 603 306 635 l 572 551 q 753 434 686 515 q 819 238 819 353 q 770 60 819 136 q 635 -56 721 -15 q 446 -96 550 -96 m 267 238 q 317 108 267 156 q 446 60 368 60 q 573 108 522 60 q 624 238 624 156 q 573 365 624 318 q 446 413 522 413 q 317 365 368 413 q 267 238 267 318 z "},"ε":{"ha":669,"x_min":69,"x_max":621,"o":"m 346 -97 q 197 -66 260 -97 q 102 18 135 -35 q 69 135 69 71 q 95 244 69 199 q 163 313 121 289 q 99 467 99 374 q 129 578 99 528 q 218 659 160 629 q 356 689 276 689 q 501 647 436 689 q 597 539 565 604 l 475 450 q 426 516 456 494 q 363 538 397 538 q 292 517 315 538 q 268 461 268 497 q 295 398 268 418 q 383 378 322 378 l 464 378 l 464 228 l 358 228 q 274 205 304 228 q 244 140 244 182 q 351 54 244 54 q 436 74 401 54 q 497 151 471 94 l 621 54 q 506 -59 579 -21 q 346 -97 433 -97 z "},"ζ":{"ha":797,"x_min":69,"x_max":728,"o":"m 728 819 q 460 630 558 710 q 310 474 361 550 q 260 314 260 397 q 302 209 260 253 q 401 139 344 165 q 533 88 457 113 q 558 78 547 82 q 579 71 569 75 q 711 -103 711 21 l 711 -375 l 514 -375 l 514 -146 q 497 -98 514 -118 q 454 -69 481 -78 q 256 15 339 -32 q 122 135 174 61 q 69 314 69 208 q 158 582 69 457 q 425 821 247 707 l 143 821 l 143 982 l 728 982 l 728 819 z "},"η":{"ha":889,"x_min":97,"x_max":792,"o":"m 97 683 l 293 683 l 293 608 q 489 693 368 693 q 706 613 621 693 q 792 343 792 532 l 792 -375 l 596 -375 l 596 343 q 563 490 596 446 q 465 535 531 535 q 377 502 417 535 q 315 410 338 469 q 293 274 293 350 l 293 -86 l 97 -86 l 97 683 z "},"θ":{"ha":899,"x_min":76,"x_max":822,"o":"m 450 -97 q 167 58 257 -97 q 76 449 76 213 q 167 839 76 685 q 450 993 257 993 q 733 839 643 993 q 822 449 822 685 q 733 58 822 213 q 450 -97 643 -97 m 274 386 q 322 154 281 244 q 450 64 364 64 q 576 154 535 64 q 625 386 618 244 l 274 386 m 624 542 q 572 752 613 672 q 450 832 531 832 q 327 752 368 832 q 275 542 286 672 l 624 542 z "},"ι":{"ha":464,"x_min":97,"x_max":394,"o":"m 97 683 l 293 683 l 293 183 q 317 113 293 135 q 394 90 342 90 l 394 -86 q 169 -16 240 -86 q 97 192 97 54 l 97 683 z "},"κ":{"ha":808,"x_min":97,"x_max":781,"o":"m 97 685 l 293 685 l 293 389 l 544 683 l 774 683 l 497 372 l 781 -86 l 572 -86 l 381 242 l 293 143 l 293 -86 l 97 -86 l 97 685 z "},"λ":{"ha":782,"x_min":35,"x_max":747,"o":"m 113 972 q 346 892 264 972 q 476 675 428 811 l 747 -86 l 553 -86 l 410 386 l 392 456 l 375 386 l 231 -86 l 35 -86 l 296 644 q 239 770 281 721 q 135 819 197 819 q 69 813 94 819 l 51 967 q 113 972 72 972 z "},"μ":{"ha":889,"x_min":97,"x_max":792,"o":"m 393 -97 q 293 -69 346 -97 l 293 -375 l 97 -375 l 97 683 l 293 683 l 293 246 q 322 102 293 143 q 417 61 351 61 q 510 100 469 61 q 574 206 551 139 q 596 350 596 272 l 596 683 l 792 683 l 792 -86 l 596 -86 l 596 -4 q 503 -74 556 -51 q 393 -97 451 -97 z "},"ν":{"ha":800,"x_min":35,"x_max":765,"o":"m 35 683 l 236 683 l 383 203 l 407 101 q 567 683 575 443 l 765 683 q 490 -86 757 300 l 307 -86 l 35 683 z "},"ξ":{"ha":749,"x_min":69,"x_max":679,"o":"m 547 71 q 679 -103 679 21 l 679 -375 l 482 -375 l 482 -146 q 422 -69 482 -94 l 364 -44 q 114 232 114 63 q 162 401 114 335 q 283 490 210 468 q 193 567 232 511 q 154 707 154 622 q 190 821 154 764 l 69 821 l 69 982 l 668 982 l 668 819 l 606 818 l 483 819 l 483 818 q 378 785 417 818 q 339 700 339 751 q 384 590 339 628 q 515 551 429 551 l 600 551 l 600 408 l 478 408 q 353 367 400 408 q 306 257 306 325 q 345 160 306 199 q 461 99 385 122 l 547 71 z "},"ο":{"ha":889,"x_min":69,"x_max":819,"o":"m 446 -96 q 256 -48 342 -96 q 119 90 169 0 q 69 300 69 181 q 119 509 69 419 q 256 647 169 599 q 446 696 342 696 q 635 647 550 696 q 770 509 721 599 q 819 300 819 419 q 770 90 819 181 q 635 -48 721 0 q 446 -96 550 -96 m 267 300 q 317 124 267 189 q 446 60 368 60 q 573 124 522 60 q 624 300 624 189 q 573 474 624 410 q 446 538 522 538 q 317 474 368 538 q 267 300 267 410 z "},"π":{"ha":907,"x_min":69,"x_max":838,"o":"m 178 -86 l 178 522 l 69 522 l 69 683 l 836 683 l 836 522 l 722 522 l 722 183 q 750 113 722 135 q 838 90 778 90 l 838 -86 q 601 -16 676 -86 q 526 192 526 54 l 526 522 l 374 522 l 374 -86 l 178 -86 z "},"ρ":{"ha":890,"x_min":97,"x_max":819,"o":"m 97 -375 l 97 275 l 99 275 q 97 300 97 283 q 146 509 97 419 q 277 647 194 599 q 460 696 360 696 q 642 647 560 696 q 772 509 724 599 q 819 300 819 419 q 772 90 819 181 q 642 -48 724 0 q 460 -96 560 -96 q 293 -40 374 -96 l 293 -375 l 97 -375 m 294 300 q 342 124 294 189 q 460 60 389 60 q 577 124 531 60 q 624 300 624 189 q 577 474 624 410 q 460 538 531 538 q 342 474 389 538 q 294 300 294 410 z "},"σ":{"ha":933,"x_min":69,"x_max":892,"o":"m 446 -96 q 256 -48 342 -96 q 119 90 169 0 q 69 300 69 181 q 119 509 69 419 q 255 647 169 599 q 444 696 340 696 l 892 696 l 892 538 l 753 538 q 819 300 819 438 q 770 90 819 181 q 635 -48 721 0 q 446 -96 550 -96 m 267 300 q 317 124 267 189 q 446 60 368 60 q 573 124 522 60 q 624 300 624 189 q 573 474 624 410 q 446 538 522 538 q 317 474 368 538 q 267 300 267 410 z "},"τ":{"ha":847,"x_min":76,"x_max":771,"o":"m 76 683 l 771 683 l 771 522 l 521 522 l 521 183 q 549 113 521 135 q 636 90 576 90 l 636 -86 q 401 -16 476 -86 q 326 192 326 54 l 326 522 l 76 522 l 76 683 z "},"υ":{"ha":847,"x_min":111,"x_max":778,"o":"m 444 -97 q 202 1 293 -97 q 111 308 111 100 l 111 683 l 304 683 l 304 281 q 444 61 304 61 q 585 281 585 61 q 578 400 585 340 q 560 549 572 460 q 543 683 543 678 l 736 683 q 745 610 740 642 q 753 558 750 579 q 772 419 765 475 q 778 308 778 364 q 687 1 778 100 q 444 -97 596 -97 z "},"φ":{"ha":1082,"x_min":83,"x_max":999,"o":"m 446 -375 l 446 -240 q 183 -109 283 -214 q 83 160 83 -4 q 183 427 83 322 q 446 558 283 532 l 446 693 l 636 693 l 636 558 q 898 427 797 532 q 999 160 999 322 q 899 -109 999 -4 q 636 -240 799 -214 l 636 -375 l 446 -375 m 275 160 q 322 8 275 69 q 446 -75 368 -53 l 446 393 q 322 310 368 371 q 275 160 275 250 m 636 -75 q 760 8 714 -53 q 807 160 807 69 q 760 310 807 250 q 636 394 714 371 l 636 -75 z "},"χ":{"ha":857,"x_min":69,"x_max":788,"o":"m 314 311 l 178 522 l 75 522 l 75 683 l 219 683 q 303 654 278 683 l 304 653 q 314 636 308 647 l 407 475 l 428 436 l 451 475 l 569 683 l 779 683 l 542 311 l 688 75 l 788 75 l 788 -86 l 650 -86 q 558 -44 582 -86 l 451 143 l 428 183 l 407 144 l 279 -86 l 69 -86 l 314 311 z "},"ψ":{"ha":1000,"x_min":97,"x_max":903,"o":"m 406 -375 l 406 -101 q 180 24 263 -78 q 97 311 97 126 l 97 693 l 290 693 l 290 283 q 406 65 290 111 l 406 693 l 596 693 l 596 67 q 710 283 710 113 l 710 693 l 903 693 l 903 311 q 820 26 903 128 q 596 -100 738 -75 l 596 -375 l 406 -375 z "},"ω":{"ha":1285,"x_min":97,"x_max":1188,"o":"m 740 326 q 758 192 740 250 q 804 103 775 135 q 869 72 833 72 q 958 115 924 72 q 992 257 992 158 l 992 693 l 1188 693 l 1188 257 q 1101 -8 1188 71 q 893 -86 1015 -86 q 735 -53 796 -86 q 643 54 674 -21 q 551 -53 613 -21 q 392 -86 489 -86 q 183 -8 269 -86 q 97 257 97 71 l 97 693 l 293 693 l 293 257 q 327 115 293 158 q 415 72 361 72 q 481 103 451 72 q 527 192 510 135 q 544 326 544 250 l 544 693 l 740 693 l 740 326 z "},"가":{"ha":1278,"x_min":54,"x_max":1243,"o":"m 883 1054 l 1079 1054 l 1079 671 l 1243 671 l 1243 513 l 1079 513 l 1079 -218 l 883 -218 l 883 1054 m 54 213 q 321 351 211 264 q 485 544 431 439 q 539 754 539 649 l 539 822 l 114 822 l 114 981 l 728 981 l 728 767 q 665 497 728 631 q 475 254 603 364 q 160 79 347 144 l 54 213 z "},"각":{"ha":1278,"x_min":54,"x_max":1243,"o":"m 883 1054 l 1079 1054 l 1079 800 l 1243 800 l 1243 642 l 1079 642 l 1079 314 l 883 314 l 883 1054 m 54 483 q 539 811 539 578 l 539 849 l 114 849 l 114 1004 l 728 1004 l 728 817 q 670 637 728 729 q 477 466 613 544 q 125 347 342 388 l 54 483 m 253 244 l 1079 244 l 1079 -240 l 883 -240 l 883 86 l 253 86 l 253 244 z "},"갂":{"ha":1389,"x_min":0,"x_max":0,"o":""},"갃":{"ha":1389,"x_min":0,"x_max":0,"o":""},"간":{"ha":1278,"x_min":54,"x_max":1243,"o":"m 426 -231 q 306 -191 347 -231 q 264 -72 264 -151 l 264 222 l 460 222 l 460 -33 q 469 -60 460 -50 q 496 -69 479 -69 l 1096 -69 l 1096 -231 l 426 -231 m 54 464 q 539 825 539 567 l 539 849 l 114 849 l 114 1004 l 728 1004 l 728 831 q 670 639 728 738 q 477 456 613 540 q 125 328 342 371 l 54 464 m 883 1054 l 1079 1054 l 1079 763 l 1243 763 l 1243 604 l 1079 604 l 1079 143 l 883 143 l 883 1054 z "},"갅":{"ha":1389,"x_min":0,"x_max":0,"o":""},"갆":{"ha":1389,"x_min":0,"x_max":0,"o":""},"갇":{"ha":1278,"x_min":54,"x_max":1243,"o":"m 1079 96 l 454 96 l 454 -43 q 464 -69 454 -60 q 490 -79 474 -79 l 1092 -79 l 1092 -240 l 421 -240 q 300 -201 342 -240 q 258 -82 258 -161 l 258 251 l 1079 251 l 1079 96 m 54 497 q 539 818 539 590 l 539 849 l 114 849 l 114 1004 l 728 1004 l 728 824 q 670 651 728 740 q 477 484 613 563 q 125 361 342 406 l 54 497 m 883 1054 l 1079 1054 l 1079 800 l 1243 800 l 1243 642 l 1079 642 l 1079 325 l 883 325 l 883 1054 z "},"갈":{"ha":1278,"x_min":54,"x_max":1243,"o":"m 883 1054 l 1079 1054 l 1079 817 l 1243 817 l 1243 658 l 1079 658 l 1079 383 l 883 383 l 883 1054 m 54 544 q 428 660 318 592 q 539 833 539 729 l 539 854 l 114 854 l 114 1010 l 728 1010 l 728 839 q 670 667 728 751 q 478 514 613 583 q 125 408 344 444 l 54 544 m 253 318 l 1079 318 l 1079 -33 l 454 -33 l 454 -78 q 458 -99 454 -94 q 479 -103 463 -103 l 1089 -103 l 1089 -253 l 410 -253 q 294 -219 331 -253 q 258 -106 258 -185 l 258 100 l 883 100 l 883 168 l 253 168 l 253 318 z "},"갉":{"ha":1278,"x_min":54,"x_max":1243,"o":"m 883 1054 l 1079 1054 l 1079 817 l 1243 817 l 1243 658 l 1079 658 l 1079 394 l 883 394 l 883 1054 m 54 558 q 339 629 232 589 q 492 721 446 669 q 539 840 539 772 l 539 854 l 114 854 l 114 1010 l 728 1010 l 728 846 q 670 677 728 760 q 478 526 613 594 q 125 422 344 457 l 54 558 m 169 329 l 606 329 l 606 -25 l 357 -25 l 357 -82 q 361 -103 357 -99 q 382 -107 365 -107 l 640 -107 l 640 -253 l 326 -253 q 211 -219 247 -253 q 175 -106 175 -185 l 175 103 l 424 103 l 424 183 l 169 183 l 169 329 m 661 331 l 1079 331 l 1079 -264 l 897 -264 l 897 179 l 661 179 l 661 331 z "},"갊":{"ha":1278,"x_min":54,"x_max":1243,"o":"m 883 1054 l 1079 1054 l 1079 817 l 1243 817 l 1243 658 l 1079 658 l 1079 394 l 883 394 l 883 1054 m 54 558 q 339 629 232 589 q 492 721 446 669 q 539 840 539 772 l 539 854 l 114 854 l 114 1010 l 728 1010 l 728 846 q 670 677 728 760 q 478 526 613 594 q 125 422 344 457 l 54 558 m 169 329 l 586 329 l 586 -25 l 357 -25 l 357 -82 q 361 -103 357 -99 q 382 -107 365 -107 l 596 -107 l 596 -253 l 326 -253 q 211 -219 247 -253 q 175 -106 175 -185 l 175 103 l 404 103 l 404 183 l 169 183 l 169 329 m 646 331 l 1079 331 l 1079 -254 l 646 -254 l 646 331 m 897 -103 l 897 179 l 828 179 l 828 -103 l 897 -103 z "},"갋":{"ha":1278,"x_min":54,"x_max":1243,"o":"m 883 1054 l 1079 1054 l 1079 817 l 1243 817 l 1243 658 l 1079 658 l 1079 394 l 883 394 l 883 1054 m 54 558 q 339 629 232 589 q 492 721 446 669 q 539 840 539 772 l 539 854 l 114 854 l 114 1010 l 728 1010 l 728 846 q 670 677 728 760 q 478 526 613 594 q 125 422 344 457 l 54 558 m 169 329 l 583 329 l 583 -25 l 357 -25 l 357 -82 q 361 -103 357 -99 q 382 -107 365 -107 l 593 -107 l 593 -253 l 326 -253 q 211 -219 247 -253 q 175 -106 175 -185 l 175 103 l 401 103 l 401 183 l 169 183 l 169 329 m 640 329 l 822 329 l 822 204 l 897 204 l 897 329 l 1079 329 l 1079 -254 l 803 -254 q 682 -215 724 -254 q 640 -96 640 -175 l 640 329 m 822 -65 q 832 -92 822 -82 q 858 -101 842 -101 l 897 -101 l 897 51 l 822 51 l 822 -65 z "},"갌":{"ha":1389,"x_min":0,"x_max":0,"o":""},"갍":{"ha":1389,"x_min":0,"x_max":0,"o":""},"갎":{"ha":1389,"x_min":0,"x_max":0,"o":""},"갏":{"ha":1389,"x_min":0,"x_max":0,"o":""},"감":{"ha":1278,"x_min":54,"x_max":1243,"o":"m 883 1054 l 1079 1054 l 1079 800 l 1243 800 l 1243 642 l 1079 642 l 1079 339 l 883 339 l 883 1054 m 54 508 q 539 825 539 603 l 539 849 l 114 849 l 114 1004 l 728 1004 l 728 831 q 670 656 728 746 q 477 490 613 567 q 125 372 342 413 l 54 508 m 258 268 l 1079 268 l 1079 -240 l 258 -240 l 258 268 m 883 -85 l 883 113 l 454 113 l 454 -85 l 883 -85 z "},"갑":{"ha":1278,"x_min":54,"x_max":1243,"o":"m 883 1054 l 1079 1054 l 1079 800 l 1243 800 l 1243 642 l 1079 642 l 1079 344 l 883 344 l 883 1054 m 54 508 q 539 825 539 603 l 539 849 l 114 849 l 114 1004 l 728 1004 l 728 831 q 670 656 728 746 q 477 490 613 567 q 125 372 342 413 l 54 508 m 258 285 l 454 285 l 454 182 l 883 182 l 883 285 l 1079 285 l 1079 -240 l 421 -240 q 300 -201 342 -240 q 258 -82 258 -161 l 258 285 m 454 -49 q 464 -75 454 -65 q 490 -85 474 -85 l 883 -85 l 883 29 l 454 29 l 454 -49 z "},"값":{"ha":1278,"x_min":54,"x_max":1243,"o":"m 883 1054 l 1079 1054 l 1079 786 l 1243 786 l 1243 628 l 1079 628 l 1079 344 l 883 344 l 883 1054 m 54 508 q 539 825 539 603 l 539 849 l 114 849 l 114 1004 l 728 1004 l 728 831 q 670 656 728 746 q 477 490 613 567 q 125 372 342 413 l 54 508 m 185 285 l 369 285 l 369 182 l 458 182 l 458 285 l 643 285 l 643 -136 q 760 21 732 -53 q 789 167 789 94 l 789 288 l 976 288 l 976 186 q 972 133 976 163 q 1004 35 976 88 q 1071 -61 1032 -18 q 1142 -122 1110 -104 l 1036 -254 q 965 -187 1003 -232 q 894 -92 926 -143 q 760 -262 839 -190 l 643 -161 l 643 -240 l 340 -240 q 223 -204 261 -240 q 185 -89 185 -168 l 185 285 m 369 -56 q 376 -78 369 -72 q 399 -85 382 -85 l 458 -85 l 458 33 l 369 33 l 369 -56 z "},"갓":{"ha":1278,"x_min":54,"x_max":1243,"o":"m 203 -106 q 481 20 382 -58 q 581 194 579 99 l 581 268 l 778 268 l 778 196 q 761 99 778 147 q 942 -14 829 44 q 1146 -97 1056 -72 l 1068 -250 q 878 -168 996 -231 q 672 -39 760 -106 q 285 -256 550 -168 l 203 -106 m 54 464 q 539 825 539 567 l 539 849 l 114 849 l 114 1004 l 728 1004 l 728 831 q 670 639 728 738 q 477 456 613 540 q 125 328 342 371 l 54 464 m 883 1054 l 1079 1054 l 1079 779 l 1243 779 l 1243 621 l 1079 621 l 1079 200 l 883 200 l 883 1054 z "},"갔":{"ha":1278,"x_min":54,"x_max":1243,"o":"m 883 1054 l 1079 1054 l 1079 800 l 1243 800 l 1243 642 l 1079 642 l 1079 331 l 883 331 l 883 1054 m 54 508 q 539 825 539 603 l 539 849 l 114 849 l 114 1004 l 728 1004 l 728 831 q 670 656 728 746 q 477 490 613 567 q 125 372 342 413 l 54 508 m 110 -149 q 270 15 219 -67 q 321 194 321 97 l 321 274 l 508 274 l 508 214 q 504 156 508 185 q 563 56 517 106 q 649 -14 608 7 l 539 -115 q 446 -18 486 -78 q 357 -151 410 -87 q 240 -262 304 -214 l 110 -149 m 533 -153 q 715 19 663 -64 q 768 194 768 101 l 768 274 l 956 274 l 956 188 q 951 144 956 168 q 990 47 954 101 q 1075 -56 1025 -8 q 1165 -122 1125 -103 l 1060 -254 q 959 -166 1011 -221 q 869 -43 907 -111 q 656 -262 785 -171 l 533 -153 z "},"강":{"ha":1278,"x_min":54,"x_max":1243,"o":"m 883 1054 l 1079 1054 l 1079 793 l 1243 793 l 1243 635 l 1079 635 l 1079 351 l 883 351 l 883 1054 m 54 483 q 539 811 539 578 l 539 849 l 114 849 l 114 1004 l 728 1004 l 728 817 q 670 637 728 729 q 477 466 613 544 q 125 347 342 388 l 54 483 m 272 35 q 320 185 272 119 q 460 288 368 251 q 678 325 551 325 q 895 288 804 325 q 1034 185 986 251 q 1082 35 1082 119 q 1034 -116 1082 -50 q 895 -219 986 -182 q 678 -257 804 -257 q 460 -220 551 -257 q 320 -117 368 -183 q 272 35 272 -50 m 468 35 q 523 -61 468 -25 q 678 -97 578 -97 q 832 -61 778 -97 q 886 35 886 -25 q 831 129 886 93 q 678 165 776 165 q 523 129 578 165 q 468 35 468 93 z "},"갖":{"ha":1278,"x_min":54,"x_max":1243,"o":"m 203 -108 q 581 89 581 -32 l 581 126 l 258 126 l 258 282 l 1093 282 l 1093 126 l 778 126 l 778 83 q 769 33 778 61 q 949 -47 840 -6 q 1143 -106 1057 -87 l 1068 -250 q 881 -188 997 -236 q 676 -89 764 -140 q 285 -256 549 -190 l 203 -108 m 54 497 q 539 818 539 590 l 539 849 l 114 849 l 114 1004 l 728 1004 l 728 824 q 670 647 728 738 q 477 478 613 556 q 125 361 342 401 l 54 497 m 883 1054 l 1079 1054 l 1079 814 l 1243 814 l 1243 656 l 1079 656 l 1079 354 l 883 354 l 883 1054 z "},"갗":{"ha":1278,"x_min":54,"x_max":1243,"o":"m 203 -108 q 581 67 581 -40 l 581 92 l 258 92 l 258 247 l 581 247 l 581 375 l 778 375 l 778 247 l 1093 247 l 1093 92 l 778 92 l 778 56 q 769 4 778 32 q 949 -61 844 -31 q 1143 -106 1053 -92 l 1072 -251 q 876 -199 999 -240 q 664 -115 753 -158 q 285 -256 542 -196 l 203 -108 m 54 544 q 428 660 318 592 q 539 833 539 729 l 539 854 l 114 854 l 114 1010 l 728 1010 l 728 839 q 670 667 728 751 q 478 514 613 583 q 125 408 344 444 l 54 544 m 883 1054 l 1079 1054 l 1079 814 l 1243 814 l 1243 656 l 1079 656 l 1079 339 l 883 339 l 883 1054 z "},"갘":{"ha":1389,"x_min":0,"x_max":0,"o":""},"같":{"ha":1278,"x_min":54,"x_max":1243,"o":"m 410 -253 q 294 -219 331 -253 q 258 -106 258 -185 l 258 318 l 1079 318 l 1079 168 l 454 168 l 454 100 l 1072 100 l 1072 -33 l 454 -33 l 454 -78 q 458 -99 454 -94 q 479 -103 463 -103 l 1089 -103 l 1089 -253 l 410 -253 m 54 544 q 428 660 318 592 q 539 833 539 729 l 539 854 l 114 854 l 114 1010 l 728 1010 l 728 839 q 670 667 728 751 q 478 514 613 583 q 125 408 344 444 l 54 544 m 883 1054 l 1079 1054 l 1079 817 l 1243 817 l 1243 658 l 1079 658 l 1079 383 l 883 383 l 883 1054 z "},"갚":{"ha":1278,"x_min":54,"x_max":1243,"o":"m 883 1054 l 1079 1054 l 1079 800 l 1243 800 l 1243 642 l 1079 642 l 1079 339 l 883 339 l 883 1054 m 54 508 q 539 825 539 603 l 539 849 l 114 849 l 114 1004 l 728 1004 l 728 831 q 670 656 728 746 q 477 490 613 567 q 125 372 342 413 l 54 508 m 253 -79 l 383 -79 l 378 65 l 571 72 l 574 -79 l 765 -79 l 768 72 l 960 65 l 954 -79 l 1085 -79 l 1085 -240 l 253 -240 l 253 -79 m 258 268 l 1079 268 l 1079 107 l 258 107 l 258 268 z "},"갛":{"ha":1278,"x_min":54,"x_max":1243,"o":"m 1110 185 l 228 185 l 228 332 l 571 332 l 571 431 l 767 431 l 767 332 l 1110 332 l 1110 185 m 54 572 q 426 681 314 615 q 539 840 539 746 l 539 854 l 114 854 l 114 1010 l 728 1010 l 728 846 q 669 685 728 765 q 476 537 611 604 q 125 436 342 469 l 54 572 m 300 -53 q 397 94 300 42 q 671 146 494 146 q 943 94 846 146 q 1040 -53 1040 42 q 943 -208 1040 -153 q 671 -262 846 -262 q 397 -208 494 -262 q 300 -53 300 -153 m 489 -53 q 537 -103 489 -85 q 671 -121 585 -121 q 803 -103 756 -121 q 851 -53 851 -85 q 804 -3 851 -21 q 671 15 757 15 q 537 -3 585 15 q 489 -53 489 -21 m 883 1054 l 1079 1054 l 1079 817 l 1243 817 l 1243 658 l 1079 658 l 1079 422 l 883 422 l 883 1054 z "},"개":{"ha":1278,"x_min":26,"x_max":1164,"o":"m 660 1054 l 851 1054 l 851 668 l 968 668 l 968 1054 l 1164 1054 l 1164 -221 l 968 -221 l 968 507 l 851 507 l 851 -210 l 660 -210 l 660 1054 m 26 204 q 224 367 149 275 q 331 553 299 460 q 363 728 363 646 l 363 822 l 83 822 l 83 981 l 551 981 l 551 740 q 456 390 551 565 q 146 79 360 214 l 26 204 z "},"객":{"ha":1278,"x_min":33,"x_max":1164,"o":"m 660 1054 l 849 1054 l 849 813 l 971 813 l 971 1054 l 1164 1054 l 1164 314 l 971 314 l 971 651 l 849 651 l 849 325 l 660 325 l 660 1054 m 33 457 q 293 629 218 529 q 368 826 368 729 l 368 849 l 83 849 l 83 1004 l 551 1004 l 551 832 q 508 653 551 746 q 369 474 465 561 q 119 325 272 386 l 33 457 m 225 244 l 1164 244 l 1164 -240 l 968 -240 l 968 86 l 225 86 l 225 244 z "},"갞":{"ha":1389,"x_min":0,"x_max":0,"o":""},"갟":{"ha":1389,"x_min":0,"x_max":0,"o":""},"갠":{"ha":1278,"x_min":33,"x_max":1181,"o":"m 660 1054 l 849 1054 l 849 775 l 971 775 l 971 1054 l 1164 1054 l 1164 151 l 971 151 l 971 614 l 849 614 l 849 163 l 660 163 l 660 1054 m 33 446 q 293 617 218 518 q 368 814 368 717 l 368 849 l 83 849 l 83 1004 l 551 1004 l 551 819 q 508 641 551 733 q 369 462 465 549 q 119 314 272 375 l 33 446 m 243 222 l 439 222 l 439 -33 q 449 -60 439 -50 q 475 -69 458 -69 l 1181 -69 l 1181 -231 l 406 -231 q 285 -191 326 -231 q 243 -72 243 -151 l 243 222 z "},"갡":{"ha":1389,"x_min":0,"x_max":0,"o":""},"갢":{"ha":1389,"x_min":0,"x_max":0,"o":""},"갣":{"ha":1278,"x_min":33,"x_max":1176,"o":"m 660 1054 l 849 1054 l 849 817 l 971 817 l 971 1054 l 1164 1054 l 1164 325 l 971 325 l 971 656 l 849 656 l 849 336 l 660 336 l 660 1054 m 33 471 q 293 640 218 542 q 368 833 368 738 l 368 849 l 83 849 l 83 1004 l 551 1004 l 551 839 q 508 663 551 754 q 369 485 465 571 q 119 339 272 399 l 33 471 m 232 251 l 1164 251 l 1164 96 l 428 96 l 428 -43 q 438 -69 428 -60 q 464 -79 447 -79 l 1176 -79 l 1176 -240 l 394 -240 q 274 -201 315 -240 q 232 -82 232 -161 l 232 251 z "},"갤":{"ha":1278,"x_min":33,"x_max":1174,"o":"m 660 1054 l 849 1054 l 849 831 l 971 831 l 971 1054 l 1164 1054 l 1164 383 l 971 383 l 971 669 l 849 669 l 849 394 l 660 394 l 660 1054 m 33 518 q 293 665 218 581 q 368 833 368 750 l 368 854 l 83 854 l 83 1010 l 551 1010 l 551 839 q 508 679 551 763 q 369 519 465 596 q 119 386 272 442 l 33 518 m 226 318 l 1164 318 l 1164 -33 l 428 -33 l 428 -78 q 432 -99 428 -94 q 453 -103 436 -103 l 1174 -103 l 1174 -253 l 383 -253 q 268 -219 304 -253 q 232 -106 232 -185 l 232 100 l 968 100 l 968 168 l 226 168 l 226 318 z "},"갥":{"ha":1389,"x_min":0,"x_max":0,"o":""},"갦":{"ha":1389,"x_min":0,"x_max":0,"o":""},"갧":{"ha":1389,"x_min":0,"x_max":0,"o":""},"갨":{"ha":1389,"x_min":0,"x_max":0,"o":""},"갩":{"ha":1389,"x_min":0,"x_max":0,"o":""},"갪":{"ha":1389,"x_min":0,"x_max":0,"o":""},"갫":{"ha":1389,"x_min":0,"x_max":0,"o":""},"갬":{"ha":1278,"x_min":33,"x_max":1164,"o":"m 660 1054 l 849 1054 l 849 817 l 971 817 l 971 1054 l 1164 1054 l 1164 339 l 971 339 l 971 656 l 849 656 l 849 350 l 660 350 l 660 1054 m 33 485 q 293 647 218 553 q 368 833 368 742 l 368 849 l 83 849 l 83 1004 l 551 1004 l 551 839 q 508 668 551 757 q 369 495 465 579 q 119 353 272 411 l 33 485 m 232 268 l 1164 268 l 1164 -240 l 232 -240 l 232 268 m 968 -85 l 968 113 l 428 113 l 428 -85 l 968 -85 z "},"갭":{"ha":1278,"x_min":33,"x_max":1164,"o":"m 660 1054 l 849 1054 l 849 817 l 971 817 l 971 1054 l 1164 1054 l 1164 344 l 971 344 l 971 656 l 849 656 l 849 356 l 660 356 l 660 1054 m 33 485 q 293 647 218 553 q 368 833 368 742 l 368 849 l 83 849 l 83 1004 l 551 1004 l 551 839 q 508 668 551 757 q 369 495 465 579 q 119 353 272 411 l 33 485 m 232 285 l 428 285 l 428 182 l 968 182 l 968 285 l 1164 285 l 1164 -240 l 394 -240 q 274 -201 315 -240 q 232 -82 232 -161 l 232 285 m 428 -49 q 438 -75 428 -65 q 464 -85 447 -85 l 968 -85 l 968 29 l 428 29 l 428 -49 z "},"갮":{"ha":1389,"x_min":0,"x_max":0,"o":""},"갯":{"ha":1278,"x_min":33,"x_max":1213,"o":"m 660 1054 l 849 1054 l 849 797 l 971 797 l 971 1054 l 1164 1054 l 1164 214 l 971 214 l 971 636 l 849 636 l 849 336 l 660 336 l 660 1054 m 33 446 q 293 617 218 518 q 368 814 368 717 l 368 849 l 83 849 l 83 1004 l 551 1004 l 551 819 q 508 641 551 733 q 369 462 465 549 q 119 314 272 375 l 33 446 m 194 -103 q 499 16 392 -58 q 608 181 607 90 l 608 268 l 806 268 l 806 182 q 792 103 806 143 q 986 -13 860 49 q 1213 -100 1113 -75 l 1140 -250 q 928 -165 1060 -231 q 706 -32 796 -99 q 268 -256 565 -169 l 194 -103 z "},"갰":{"ha":1278,"x_min":33,"x_max":1238,"o":"m 660 1054 l 849 1054 l 849 817 l 971 817 l 971 1054 l 1164 1054 l 1164 331 l 971 331 l 971 656 l 849 656 l 849 342 l 660 342 l 660 1054 m 33 485 q 293 647 218 553 q 368 833 368 742 l 368 849 l 83 849 l 83 1004 l 551 1004 l 551 839 q 508 668 551 757 q 369 495 465 579 q 119 353 272 411 l 33 485 m 96 -144 q 288 15 228 -62 q 347 185 347 92 l 347 278 l 535 278 l 535 204 q 531 153 535 181 q 590 57 543 104 q 676 -10 636 10 l 567 -111 q 464 -17 508 -74 q 357 -149 421 -86 q 217 -258 293 -211 l 96 -144 m 565 -153 q 744 13 693 -65 q 796 181 796 92 l 796 274 l 982 274 l 982 174 q 978 135 982 156 q 1028 40 985 93 q 1130 -58 1071 -14 q 1238 -122 1189 -103 l 1139 -254 q 1012 -165 1076 -221 q 900 -42 947 -110 q 681 -262 814 -172 l 565 -153 z "},"갱":{"ha":1278,"x_min":33,"x_max":1168,"o":"m 660 1054 l 849 1054 l 849 817 l 971 817 l 971 1054 l 1164 1054 l 1164 353 l 971 353 l 971 656 l 849 656 l 849 386 l 660 386 l 660 1054 m 33 485 q 293 647 218 553 q 368 833 368 742 l 368 849 l 83 849 l 83 1004 l 551 1004 l 551 839 q 508 668 551 757 q 369 495 465 579 q 119 353 272 411 l 33 485 m 239 35 q 295 189 239 124 q 456 290 351 254 q 704 325 561 325 q 951 290 846 325 q 1112 189 1056 254 q 1168 35 1168 124 q 1112 -120 1168 -54 q 951 -222 1056 -186 q 704 -257 846 -257 q 456 -222 561 -257 q 295 -120 351 -186 q 239 35 239 -54 m 435 35 q 507 -62 435 -26 q 704 -97 579 -97 q 900 -62 828 -97 q 972 35 972 -26 q 900 130 972 94 q 704 165 828 165 q 507 131 579 165 q 435 35 435 96 z "},"갲":{"ha":1389,"x_min":0,"x_max":0,"o":""},"갳":{"ha":1389,"x_min":0,"x_max":0,"o":""},"갴":{"ha":1389,"x_min":0,"x_max":0,"o":""},"갵":{"ha":1389,"x_min":0,"x_max":0,"o":""},"갶":{"ha":1389,"x_min":0,"x_max":0,"o":""},"갷":{"ha":1389,"x_min":0,"x_max":0,"o":""},"갸":{"ha":1278,"x_min":54,"x_max":1243,"o":"m 883 1054 l 1079 1054 l 1079 814 l 1243 814 l 1243 656 l 1079 656 l 1079 417 l 1243 417 l 1243 258 l 1079 258 l 1079 -218 l 883 -218 l 883 1054 m 54 213 q 321 351 211 264 q 485 544 431 439 q 539 754 539 649 l 539 822 l 114 822 l 114 981 l 728 981 l 728 767 q 665 497 728 631 q 475 254 603 364 q 160 79 347 144 l 54 213 z "},"갹":{"ha":1278,"x_min":54,"x_max":1243,"o":"m 883 1054 l 1079 1054 l 1079 926 l 1243 926 l 1243 768 l 1079 768 l 1079 653 l 1243 653 l 1243 494 l 1079 494 l 1079 314 l 883 314 l 883 1054 m 54 483 q 539 811 539 578 l 539 849 l 114 849 l 114 1004 l 728 1004 l 728 817 q 670 637 728 729 q 477 466 613 544 q 125 347 342 388 l 54 483 m 253 244 l 1079 244 l 1079 -240 l 883 -240 l 883 86 l 253 86 l 253 244 z "},"갺":{"ha":1389,"x_min":0,"x_max":0,"o":""},"갻":{"ha":1389,"x_min":0,"x_max":0,"o":""},"갼":{"ha":1278,"x_min":54,"x_max":1243,"o":"m 426 -231 q 306 -191 347 -231 q 264 -72 264 -151 l 264 222 l 460 222 l 460 -33 q 469 -60 460 -50 q 496 -69 479 -69 l 1096 -69 l 1096 -231 l 426 -231 m 54 464 q 539 825 539 567 l 539 849 l 114 849 l 114 1004 l 728 1004 l 728 831 q 670 639 728 738 q 477 456 613 540 q 125 328 342 371 l 54 464 m 883 1054 l 1079 1054 l 1079 900 l 1243 900 l 1243 742 l 1079 742 l 1079 601 l 1243 601 l 1243 443 l 1079 443 l 1079 143 l 883 143 l 883 1054 z "},"갽":{"ha":1389,"x_min":0,"x_max":0,"o":""},"갾":{"ha":1389,"x_min":0,"x_max":0,"o":""},"갿":{"ha":1389,"x_min":0,"x_max":0,"o":""},"걀":{"ha":1278,"x_min":54,"x_max":1243,"o":"m 883 1054 l 1079 1054 l 1079 947 l 1243 947 l 1243 789 l 1079 789 l 1079 688 l 1243 688 l 1243 529 l 1079 529 l 1079 383 l 883 383 l 883 1054 m 54 544 q 428 660 318 592 q 539 833 539 729 l 539 854 l 114 854 l 114 1010 l 728 1010 l 728 839 q 670 667 728 751 q 478 514 613 583 q 125 408 344 444 l 54 544 m 253 318 l 1079 318 l 1079 -33 l 454 -33 l 454 -78 q 458 -99 454 -94 q 479 -103 463 -103 l 1089 -103 l 1089 -253 l 410 -253 q 294 -219 331 -253 q 258 -106 258 -185 l 258 100 l 883 100 l 883 168 l 253 168 l 253 318 z "},"걁":{"ha":1389,"x_min":0,"x_max":0,"o":""},"걂":{"ha":1389,"x_min":0,"x_max":0,"o":""},"걃":{"ha":1389,"x_min":0,"x_max":0,"o":""},"걄":{"ha":1389,"x_min":0,"x_max":0,"o":""},"걅":{"ha":1389,"x_min":0,"x_max":0,"o":""},"걆":{"ha":1389,"x_min":0,"x_max":0,"o":""},"걇":{"ha":1389,"x_min":0,"x_max":0,"o":""},"걈":{"ha":1389,"x_min":0,"x_max":0,"o":""},"걉":{"ha":1389,"x_min":0,"x_max":0,"o":""},"걊":{"ha":1389,"x_min":0,"x_max":0,"o":""},"걋":{"ha":1278,"x_min":54,"x_max":1243,"o":"m 203 -106 q 481 20 382 -58 q 581 194 579 99 l 581 268 l 778 268 l 778 196 q 761 99 778 147 q 942 -14 829 44 q 1146 -97 1056 -72 l 1068 -250 q 878 -168 996 -231 q 672 -39 760 -106 q 285 -256 550 -168 l 203 -106 m 54 464 q 539 825 539 567 l 539 849 l 114 849 l 114 1004 l 728 1004 l 728 831 q 670 639 728 738 q 477 456 613 540 q 125 328 342 371 l 54 464 m 883 1054 l 1079 1054 l 1079 900 l 1243 900 l 1243 742 l 1079 742 l 1079 601 l 1243 601 l 1243 443 l 1079 443 l 1079 200 l 883 200 l 883 1054 z "},"걌":{"ha":1389,"x_min":0,"x_max":0,"o":""},"걍":{"ha":1278,"x_min":54,"x_max":1243,"o":"m 883 1054 l 1079 1054 l 1079 929 l 1243 929 l 1243 771 l 1079 771 l 1079 656 l 1243 656 l 1243 497 l 1079 497 l 1079 351 l 883 351 l 883 1054 m 54 483 q 539 811 539 578 l 539 849 l 114 849 l 114 1004 l 728 1004 l 728 817 q 670 637 728 729 q 477 466 613 544 q 125 347 342 388 l 54 483 m 272 35 q 320 185 272 119 q 460 288 368 251 q 678 325 551 325 q 895 288 804 325 q 1034 185 986 251 q 1082 35 1082 119 q 1034 -116 1082 -50 q 895 -219 986 -182 q 678 -257 804 -257 q 460 -220 551 -257 q 320 -117 368 -183 q 272 35 272 -50 m 468 35 q 523 -61 468 -25 q 678 -97 578 -97 q 832 -61 778 -97 q 886 35 886 -25 q 831 129 886 93 q 678 165 776 165 q 523 129 578 165 q 468 35 468 93 z "},"걎":{"ha":1389,"x_min":0,"x_max":0,"o":""},"걏":{"ha":1389,"x_min":0,"x_max":0,"o":""},"걐":{"ha":1389,"x_min":0,"x_max":0,"o":""},"걑":{"ha":1389,"x_min":0,"x_max":0,"o":""},"걒":{"ha":1389,"x_min":0,"x_max":0,"o":""},"걓":{"ha":1389,"x_min":0,"x_max":0,"o":""},"걔":{"ha":1278,"x_min":26,"x_max":1164,"o":"m 657 1054 l 849 1054 l 849 825 l 968 825 l 968 1054 l 1164 1054 l 1164 -221 l 968 -221 l 968 286 l 849 286 l 849 -210 l 657 -210 l 657 1054 m 26 204 q 224 367 149 275 q 331 553 299 460 q 363 728 363 646 l 363 822 l 83 822 l 83 981 l 551 981 l 551 740 q 456 390 551 565 q 146 79 360 214 l 26 204 m 968 447 l 968 664 l 849 664 l 849 447 l 968 447 z "},"걕":{"ha":1389,"x_min":0,"x_max":0,"o":""},"걖":{"ha":1389,"x_min":0,"x_max":0,"o":""},"걗":{"ha":1389,"x_min":0,"x_max":0,"o":""},"걘":{"ha":1278,"x_min":33,"x_max":1181,"o":"m 665 1054 l 854 1054 l 854 908 l 971 908 l 971 1054 l 1164 1054 l 1164 151 l 971 151 l 971 444 l 854 444 l 854 163 l 665 163 l 665 1054 m 33 446 q 295 618 218 518 q 372 814 372 718 l 372 849 l 83 849 l 83 1004 l 556 1004 l 556 819 q 512 642 556 735 q 370 463 468 550 q 119 314 272 375 l 33 446 m 243 222 l 439 222 l 439 -33 q 449 -60 439 -50 q 475 -69 458 -69 l 1181 -69 l 1181 -231 l 406 -231 q 285 -191 326 -231 q 243 -72 243 -151 l 243 222 m 971 603 l 971 750 l 854 750 l 854 603 l 971 603 z "},"걙":{"ha":1389,"x_min":0,"x_max":0,"o":""},"걚":{"ha":1389,"x_min":0,"x_max":0,"o":""},"걛":{"ha":1389,"x_min":0,"x_max":0,"o":""},"걜":{"ha":1278,"x_min":33,"x_max":1174,"o":"m 665 1054 l 854 1054 l 854 942 l 971 942 l 971 1054 l 1164 1054 l 1164 383 l 971 383 l 971 522 l 854 522 l 854 394 l 665 394 l 665 1054 m 33 518 q 295 666 218 581 q 372 833 372 751 l 372 849 l 83 849 l 83 1004 l 556 1004 l 556 839 q 512 680 556 763 q 370 519 468 597 q 119 386 272 442 l 33 518 m 226 318 l 1164 318 l 1164 -33 l 428 -33 l 428 -78 q 432 -99 428 -94 q 453 -103 436 -103 l 1174 -103 l 1174 -253 l 383 -253 q 268 -219 304 -253 q 232 -106 232 -185 l 232 100 l 968 100 l 968 168 l 226 168 l 226 318 m 971 682 l 971 782 l 854 782 l 854 682 l 971 682 z "},"걝":{"ha":1389,"x_min":0,"x_max":0,"o":""},"걞":{"ha":1389,"x_min":0,"x_max":0,"o":""},"걟":{"ha":1389,"x_min":0,"x_max":0,"o":""},"걠":{"ha":1389,"x_min":0,"x_max":0,"o":""},"걡":{"ha":1389,"x_min":0,"x_max":0,"o":""},"걢":{"ha":1389,"x_min":0,"x_max":0,"o":""},"걣":{"ha":1389,"x_min":0,"x_max":0,"o":""},"걤":{"ha":1389,"x_min":0,"x_max":0,"o":""},"걥":{"ha":1278,"x_min":33,"x_max":1164,"o":"m 665 1054 l 854 1054 l 854 938 l 971 938 l 971 1054 l 1164 1054 l 1164 344 l 971 344 l 971 504 l 854 504 l 854 356 l 665 356 l 665 1054 m 33 485 q 295 647 218 553 q 372 833 372 742 l 372 849 l 83 849 l 83 1004 l 556 1004 l 556 839 q 512 668 556 757 q 370 495 468 579 q 119 353 272 411 l 33 485 m 232 285 l 428 285 l 428 182 l 968 182 l 968 285 l 1164 285 l 1164 -240 l 394 -240 q 274 -201 315 -240 q 232 -82 232 -161 l 232 285 m 428 -49 q 438 -75 428 -65 q 464 -85 447 -85 l 968 -85 l 968 29 l 428 29 l 428 -49 m 971 665 l 971 776 l 854 776 l 854 665 l 971 665 z "},"걦":{"ha":1389,"x_min":0,"x_max":0,"o":""},"걧":{"ha":1389,"x_min":0,"x_max":0,"o":""},"걨":{"ha":1389,"x_min":0,"x_max":0,"o":""},"걩":{"ha":1389,"x_min":0,"x_max":0,"o":""},"걪":{"ha":1389,"x_min":0,"x_max":0,"o":""},"걫":{"ha":1389,"x_min":0,"x_max":0,"o":""},"걬":{"ha":1389,"x_min":0,"x_max":0,"o":""},"걭":{"ha":1389,"x_min":0,"x_max":0,"o":""},"걮":{"ha":1389,"x_min":0,"x_max":0,"o":""},"걯":{"ha":1389,"x_min":0,"x_max":0,"o":""},"거":{"ha":1278,"x_min":61,"x_max":1142,"o":"m 121 981 l 735 981 l 735 767 q 672 497 735 631 q 482 254 610 364 q 167 79 354 144 l 61 213 q 328 351 218 264 q 492 544 438 439 q 546 754 546 649 l 546 822 l 121 822 l 121 981 m 764 643 l 946 643 l 946 1054 l 1142 1054 l 1142 -221 l 946 -221 l 946 488 l 764 488 l 764 643 z "},"걱":{"ha":1278,"x_min":61,"x_max":1142,"o":"m 946 619 l 764 619 l 764 775 l 946 775 l 946 1054 l 1142 1054 l 1142 314 l 946 314 l 946 619 m 61 483 q 546 811 546 578 l 546 849 l 121 849 l 121 1004 l 735 1004 l 735 817 q 677 637 735 729 q 484 466 619 544 q 132 347 349 388 l 61 483 m 260 244 l 1142 244 l 1142 -240 l 946 -240 l 946 86 l 260 86 l 260 244 z "},"걲":{"ha":1389,"x_min":0,"x_max":0,"o":""},"걳":{"ha":1389,"x_min":0,"x_max":0,"o":""},"건":{"ha":1278,"x_min":61,"x_max":1158,"o":"m 433 -231 q 313 -191 354 -231 q 271 -72 271 -151 l 271 222 l 467 222 l 467 -33 q 476 -60 467 -50 q 503 -69 486 -69 l 1158 -69 l 1158 -231 l 433 -231 m 61 464 q 546 825 546 567 l 546 849 l 121 849 l 121 1004 l 735 1004 l 735 831 q 677 639 735 738 q 484 456 619 540 q 132 328 349 371 l 61 464 m 764 757 l 946 757 l 946 1054 l 1142 1054 l 1142 143 l 946 143 l 946 601 l 764 601 l 764 757 z "},"걵":{"ha":1389,"x_min":0,"x_max":0,"o":""},"걶":{"ha":1389,"x_min":0,"x_max":0,"o":""},"걷":{"ha":1278,"x_min":61,"x_max":1154,"o":"m 946 631 l 764 631 l 764 786 l 946 786 l 946 1054 l 1142 1054 l 1142 325 l 946 325 l 946 631 m 61 497 q 546 818 546 590 l 546 849 l 121 849 l 121 1004 l 735 1004 l 735 824 q 677 651 735 740 q 484 484 619 563 q 132 361 349 406 l 61 497 m 265 251 l 1142 251 l 1142 96 l 461 96 l 461 -43 q 471 -69 461 -60 q 497 -79 481 -79 l 1154 -79 l 1154 -240 l 428 -240 q 307 -201 349 -240 q 265 -82 265 -161 l 265 251 z "},"걸":{"ha":1278,"x_min":61,"x_max":1151,"o":"m 946 631 l 764 631 l 764 786 l 946 786 l 946 1054 l 1142 1054 l 1142 383 l 946 383 l 946 631 m 61 544 q 435 660 325 592 q 546 833 546 729 l 546 854 l 121 854 l 121 1010 l 735 1010 l 735 839 q 677 667 735 751 q 485 514 619 583 q 132 408 351 444 l 61 544 m 260 318 l 1142 318 l 1142 -33 l 461 -33 l 461 -78 q 465 -99 461 -94 q 486 -103 469 -103 l 1151 -103 l 1151 -253 l 417 -253 q 301 -219 338 -253 q 265 -106 265 -185 l 265 100 l 946 100 l 946 168 l 260 168 l 260 318 z "},"걹":{"ha":1389,"x_min":0,"x_max":0,"o":""},"걺":{"ha":1278,"x_min":61,"x_max":1142,"o":"m 946 638 l 764 638 l 764 793 l 946 793 l 946 1054 l 1142 1054 l 1142 394 l 946 394 l 946 638 m 61 558 q 346 629 239 589 q 499 721 453 669 q 546 840 546 772 l 546 854 l 121 854 l 121 1010 l 735 1010 l 735 846 q 677 677 735 760 q 485 526 619 594 q 132 422 351 457 l 61 558 m 189 329 l 622 329 l 622 -25 l 376 -25 l 376 -82 q 381 -103 376 -99 q 401 -107 385 -107 l 632 -107 l 632 -253 l 346 -253 q 231 -219 267 -253 q 194 -106 194 -185 l 194 103 l 440 103 l 440 183 l 189 183 l 189 329 m 690 331 l 1140 331 l 1140 -254 l 690 -254 l 690 331 m 958 -103 l 958 179 l 872 179 l 872 -103 l 958 -103 z "},"걻":{"ha":1389,"x_min":0,"x_max":0,"o":""},"걼":{"ha":1389,"x_min":0,"x_max":0,"o":""},"걽":{"ha":1389,"x_min":0,"x_max":0,"o":""},"걾":{"ha":1389,"x_min":0,"x_max":0,"o":""},"걿":{"ha":1389,"x_min":0,"x_max":0,"o":""},"검":{"ha":1278,"x_min":61,"x_max":1142,"o":"m 946 631 l 764 631 l 764 786 l 946 786 l 946 1054 l 1142 1054 l 1142 339 l 946 339 l 946 631 m 61 508 q 546 825 546 603 l 546 849 l 121 849 l 121 1004 l 735 1004 l 735 831 q 677 656 735 746 q 484 490 619 567 q 132 372 349 413 l 61 508 m 265 268 l 1142 268 l 1142 -240 l 265 -240 l 265 268 m 946 -85 l 946 113 l 461 113 l 461 -85 l 946 -85 z "},"겁":{"ha":1278,"x_min":61,"x_max":1142,"o":"m 946 631 l 764 631 l 764 786 l 946 786 l 946 1054 l 1142 1054 l 1142 344 l 946 344 l 946 631 m 61 508 q 546 825 546 603 l 546 849 l 121 849 l 121 1004 l 735 1004 l 735 831 q 677 656 735 746 q 484 490 619 567 q 132 372 349 413 l 61 508 m 265 285 l 461 285 l 461 182 l 946 182 l 946 285 l 1142 285 l 1142 -240 l 428 -240 q 307 -201 349 -240 q 265 -82 265 -161 l 265 285 m 461 -49 q 471 -75 461 -65 q 497 -85 481 -85 l 946 -85 l 946 29 l 461 29 l 461 -49 z "},"겂":{"ha":1278,"x_min":61,"x_max":1204,"o":"m 946 631 l 764 631 l 764 786 l 946 786 l 946 1054 l 1142 1054 l 1142 344 l 946 344 l 946 631 m 61 508 q 546 825 546 603 l 546 849 l 121 849 l 121 1004 l 735 1004 l 735 831 q 677 656 735 746 q 484 490 619 567 q 132 372 349 413 l 61 508 m 199 285 l 383 285 l 383 182 l 493 182 l 493 285 l 678 285 l 678 -137 q 807 17 776 -58 q 838 167 838 92 l 838 288 l 1025 288 l 1025 186 q 1021 133 1025 163 q 1056 35 1025 88 q 1129 -60 1088 -17 q 1204 -122 1171 -103 l 1099 -254 q 1022 -181 1064 -229 q 947 -81 979 -133 q 794 -262 888 -189 l 678 -161 l 678 -240 l 354 -240 q 237 -204 275 -240 q 199 -89 199 -168 l 199 285 m 383 -56 q 390 -78 383 -72 q 413 -85 396 -85 l 493 -85 l 493 29 l 383 29 l 383 -56 z "},"것":{"ha":1278,"x_min":61,"x_max":1201,"o":"m 121 1004 l 735 1004 l 735 831 q 677 639 735 738 q 484 456 619 540 q 132 328 349 371 l 61 464 q 546 825 546 567 l 546 849 l 121 849 l 121 1004 m 217 -106 q 510 20 406 -58 q 615 194 614 99 l 615 268 l 813 268 l 813 196 q 800 114 813 151 q 983 -6 861 58 q 1201 -97 1104 -71 l 1124 -250 q 924 -164 1047 -231 q 714 -28 800 -97 q 299 -256 582 -167 l 217 -106 m 764 764 l 946 764 l 946 1054 l 1142 1054 l 1142 199 l 946 199 l 946 608 l 764 608 l 764 764 z "},"겄":{"ha":1278,"x_min":61,"x_max":1221,"o":"m 568 -153 q 750 19 697 -64 q 803 194 803 101 l 803 274 l 990 274 l 990 188 q 986 144 990 168 q 1029 47 990 101 q 1122 -56 1068 -8 q 1221 -122 1176 -103 l 1115 -254 q 1005 -166 1061 -222 q 906 -40 949 -110 q 690 -262 819 -172 l 568 -153 m 61 508 q 546 825 546 603 l 546 849 l 121 849 l 121 1004 l 735 1004 l 735 831 q 677 656 735 746 q 484 490 619 567 q 132 372 349 413 l 61 508 m 124 -149 q 299 15 244 -67 q 354 194 354 97 l 354 274 l 542 274 l 542 214 q 538 157 542 186 q 595 57 549 107 q 683 -14 642 7 l 574 -115 q 474 -19 514 -75 q 378 -153 435 -90 q 254 -262 322 -215 l 124 -149 m 764 786 l 946 786 l 946 1054 l 1142 1054 l 1142 331 l 946 331 l 946 631 l 764 631 l 764 786 z "},"겅":{"ha":1278,"x_min":61,"x_max":1144,"o":"m 121 1004 l 735 1004 l 735 817 q 677 637 735 729 q 484 466 619 544 q 132 347 349 388 l 61 483 q 546 811 546 578 l 546 849 l 121 849 l 121 1004 m 299 35 q 349 185 299 119 q 494 288 399 251 q 722 325 590 325 q 949 288 854 325 q 1094 185 1044 251 q 1144 35 1144 119 q 1094 -116 1144 -50 q 949 -219 1044 -182 q 722 -257 854 -257 q 494 -219 590 -257 q 349 -116 399 -182 q 299 35 299 -50 m 494 35 q 554 -61 494 -25 q 722 -97 614 -97 q 889 -61 829 -97 q 949 35 949 -25 q 889 129 949 93 q 722 165 829 165 q 554 129 614 165 q 494 35 494 93 m 764 764 l 946 764 l 946 1054 l 1142 1054 l 1142 351 l 946 351 l 946 608 l 764 608 l 764 764 z "},"겆":{"ha":1278,"x_min":61,"x_max":1204,"o":"m 946 622 l 764 622 l 764 778 l 946 778 l 946 1054 l 1142 1054 l 1142 354 l 946 354 l 946 622 m 61 497 q 546 818 546 590 l 546 849 l 121 849 l 121 1004 l 735 1004 l 735 824 q 677 647 735 738 q 484 478 619 556 q 132 361 349 401 l 61 497 m 217 -108 q 511 -18 407 -69 q 615 94 615 33 l 615 126 l 272 126 l 272 282 l 1149 282 l 1149 126 l 813 126 l 813 90 q 803 36 813 64 q 992 -45 874 -3 q 1204 -104 1110 -87 l 1131 -250 q 920 -187 1051 -236 q 704 -89 789 -137 q 294 -256 572 -190 l 217 -108 z "},"겇":{"ha":1389,"x_min":0,"x_max":0,"o":""},"겈":{"ha":1389,"x_min":0,"x_max":0,"o":""},"겉":{"ha":1278,"x_min":61,"x_max":1151,"o":"m 417 -253 q 301 -219 338 -253 q 265 -106 265 -185 l 265 318 l 1142 318 l 1142 168 l 461 168 l 461 100 l 1135 100 l 1135 -33 l 461 -33 l 461 -78 q 465 -99 461 -94 q 486 -103 469 -103 l 1151 -103 l 1151 -253 l 417 -253 m 61 544 q 435 660 325 592 q 546 833 546 729 l 546 854 l 121 854 l 121 1010 l 735 1010 l 735 839 q 677 667 735 751 q 485 514 619 583 q 132 408 351 444 l 61 544 m 764 786 l 946 786 l 946 1054 l 1142 1054 l 1142 383 l 946 383 l 946 631 l 764 631 l 764 786 z "},"겊":{"ha":1278,"x_min":61,"x_max":1147,"o":"m 946 631 l 764 631 l 764 786 l 946 786 l 946 1054 l 1142 1054 l 1142 339 l 946 339 l 946 631 m 61 508 q 546 825 546 603 l 546 849 l 121 849 l 121 1004 l 735 1004 l 735 831 q 677 656 735 746 q 484 490 619 567 q 132 372 349 413 l 61 508 m 260 -79 l 407 -79 l 401 65 l 594 72 l 597 -79 l 811 -79 l 814 72 l 1006 65 l 1000 -79 l 1147 -79 l 1147 -240 l 260 -240 l 260 -79 m 265 268 l 1142 268 l 1142 107 l 265 107 l 265 268 z "},"겋":{"ha":1278,"x_min":61,"x_max":1171,"o":"m 1171 185 l 256 185 l 256 332 l 615 332 l 615 431 l 811 431 l 811 332 l 1171 332 l 1171 185 m 61 544 q 435 660 325 592 q 546 833 546 729 l 546 854 l 121 854 l 121 1010 l 735 1010 l 735 839 q 677 667 735 751 q 485 514 619 583 q 132 408 351 444 l 61 544 m 328 -53 q 428 94 328 43 q 715 146 529 146 q 1001 94 901 146 q 1101 -53 1101 43 q 1001 -208 1101 -154 q 715 -262 901 -262 q 428 -208 529 -262 q 328 -53 328 -154 m 517 -53 q 568 -103 517 -85 q 715 -121 619 -121 q 861 -103 810 -121 q 913 -53 913 -85 q 861 -3 913 -21 q 715 15 810 15 q 568 -3 619 15 q 517 -53 517 -21 m 764 800 l 946 800 l 946 1054 l 1142 1054 l 1142 422 l 946 422 l 946 644 l 764 644 l 764 800 z "},"게":{"ha":1278,"x_min":26,"x_max":1164,"o":"m 674 474 l 565 474 l 565 629 l 674 629 l 674 1054 l 865 1054 l 865 -210 l 674 -210 l 674 474 m 26 204 q 224 367 149 275 q 331 553 299 460 q 363 728 363 646 l 363 822 l 83 822 l 83 981 l 551 981 l 551 740 q 456 390 551 565 q 146 79 360 214 l 26 204 m 968 1054 l 1164 1054 l 1164 -221 l 968 -221 l 968 1054 z "},"겍":{"ha":1278,"x_min":33,"x_max":1164,"o":"m 679 622 l 565 622 l 565 778 l 679 778 l 679 1054 l 868 1054 l 868 325 l 679 325 l 679 622 m 33 457 q 295 630 218 529 q 372 826 372 731 l 372 849 l 83 849 l 83 1004 l 556 1004 l 556 832 q 512 653 556 746 q 370 474 468 561 q 119 325 272 386 l 33 457 m 225 244 l 1164 244 l 1164 -240 l 968 -240 l 968 86 l 225 86 l 225 244 m 971 1054 l 1164 1054 l 1164 314 l 971 314 l 971 1054 z "},"겎":{"ha":1389,"x_min":0,"x_max":0,"o":""},"겏":{"ha":1389,"x_min":0,"x_max":0,"o":""},"겐":{"ha":1278,"x_min":33,"x_max":1181,"o":"m 679 581 l 565 581 l 565 736 l 679 736 l 679 1054 l 868 1054 l 868 163 l 679 163 l 679 581 m 33 446 q 295 618 218 518 q 372 814 372 718 l 372 849 l 83 849 l 83 1004 l 556 1004 l 556 819 q 512 642 556 735 q 370 463 468 550 q 119 314 272 375 l 33 446 m 243 222 l 439 222 l 439 -33 q 449 -60 439 -50 q 475 -69 458 -69 l 1181 -69 l 1181 -231 l 406 -231 q 285 -191 326 -231 q 243 -72 243 -151 l 243 222 m 971 1054 l 1164 1054 l 1164 151 l 971 151 l 971 1054 z "},"겑":{"ha":1389,"x_min":0,"x_max":0,"o":""},"겒":{"ha":1389,"x_min":0,"x_max":0,"o":""},"겓":{"ha":1389,"x_min":0,"x_max":0,"o":""},"겔":{"ha":1278,"x_min":33,"x_max":1174,"o":"m 681 636 l 565 636 l 565 792 l 681 792 l 681 1054 l 869 1054 l 869 394 l 681 394 l 681 636 m 33 518 q 295 666 218 581 q 372 833 372 751 l 372 854 l 83 854 l 83 1010 l 556 1010 l 556 839 q 512 680 556 763 q 370 519 468 597 q 119 386 272 442 l 33 518 m 226 318 l 1164 318 l 1164 -33 l 428 -33 l 428 -78 q 432 -99 428 -94 q 453 -103 436 -103 l 1174 -103 l 1174 -253 l 383 -253 q 268 -219 304 -253 q 232 -106 232 -185 l 232 100 l 968 100 l 968 168 l 226 168 l 226 318 m 971 1054 l 1164 1054 l 1164 383 l 971 383 l 971 1054 z "},"겕":{"ha":1389,"x_min":0,"x_max":0,"o":""},"겖":{"ha":1389,"x_min":0,"x_max":0,"o":""},"겗":{"ha":1389,"x_min":0,"x_max":0,"o":""},"겘":{"ha":1389,"x_min":0,"x_max":0,"o":""},"겙":{"ha":1389,"x_min":0,"x_max":0,"o":""},"겚":{"ha":1389,"x_min":0,"x_max":0,"o":""},"겛":{"ha":1389,"x_min":0,"x_max":0,"o":""},"겜":{"ha":1278,"x_min":33,"x_max":1164,"o":"m 679 622 l 565 622 l 565 778 l 679 778 l 679 1054 l 868 1054 l 868 350 l 679 350 l 679 622 m 33 485 q 295 647 218 553 q 372 833 372 742 l 372 849 l 83 849 l 83 1004 l 556 1004 l 556 839 q 512 668 556 757 q 370 495 468 579 q 119 353 272 411 l 33 485 m 232 268 l 1164 268 l 1164 -240 l 232 -240 l 232 268 m 968 -85 l 968 113 l 428 113 l 428 -85 l 968 -85 m 971 1054 l 1164 1054 l 1164 339 l 971 339 l 971 1054 z "},"겝":{"ha":1278,"x_min":33,"x_max":1164,"o":"m 679 622 l 565 622 l 565 778 l 679 778 l 679 1054 l 868 1054 l 868 356 l 679 356 l 679 622 m 33 485 q 295 647 218 553 q 372 833 372 742 l 372 849 l 83 849 l 83 1004 l 556 1004 l 556 839 q 512 668 556 757 q 370 495 468 579 q 119 353 272 411 l 33 485 m 232 285 l 428 285 l 428 182 l 968 182 l 968 285 l 1164 285 l 1164 -240 l 394 -240 q 274 -201 315 -240 q 232 -82 232 -161 l 232 285 m 428 -49 q 438 -75 428 -65 q 464 -85 447 -85 l 968 -85 l 968 29 l 428 29 l 428 -49 m 971 1054 l 1164 1054 l 1164 344 l 971 344 l 971 1054 z "},"겞":{"ha":1389,"x_min":0,"x_max":0,"o":""},"겟":{"ha":1278,"x_min":33,"x_max":1213,"o":"m 679 603 l 565 603 l 565 758 l 679 758 l 679 1054 l 868 1054 l 868 336 l 679 336 l 679 603 m 33 446 q 295 618 218 518 q 372 814 372 718 l 372 849 l 83 849 l 83 1004 l 556 1004 l 556 819 q 512 642 556 735 q 370 463 468 550 q 119 314 272 375 l 33 446 m 194 -103 q 499 16 392 -58 q 608 181 607 90 l 608 268 l 806 268 l 806 182 q 792 103 806 143 q 986 -13 860 49 q 1213 -100 1113 -75 l 1140 -250 q 928 -165 1060 -231 q 706 -32 796 -99 q 268 -256 565 -169 l 194 -103 m 971 1054 l 1164 1054 l 1164 214 l 971 214 l 971 1054 z "},"겠":{"ha":1278,"x_min":33,"x_max":1238,"o":"m 679 622 l 565 622 l 565 778 l 679 778 l 679 1054 l 868 1054 l 868 342 l 679 342 l 679 622 m 33 485 q 295 647 218 553 q 372 833 372 742 l 372 849 l 83 849 l 83 1004 l 556 1004 l 556 839 q 512 668 556 757 q 370 495 468 579 q 119 353 272 411 l 33 485 m 96 -144 q 288 15 228 -62 q 347 185 347 92 l 347 278 l 535 278 l 535 204 q 531 153 535 181 q 590 57 543 104 q 676 -10 636 10 l 567 -111 q 464 -17 508 -74 q 357 -149 421 -86 q 217 -258 293 -211 l 96 -144 m 565 -153 q 744 13 693 -65 q 796 181 796 92 l 796 274 l 982 274 l 982 174 q 978 135 982 156 q 1028 40 985 93 q 1130 -58 1071 -14 q 1238 -122 1189 -103 l 1139 -254 q 1012 -165 1076 -221 q 900 -42 947 -110 q 681 -262 814 -172 l 565 -153 m 971 1054 l 1164 1054 l 1164 331 l 971 331 l 971 1054 z "},"겡":{"ha":1278,"x_min":33,"x_max":1168,"o":"m 679 622 l 565 622 l 565 778 l 679 778 l 679 1054 l 868 1054 l 868 386 l 679 386 l 679 622 m 33 485 q 295 647 218 553 q 372 833 372 742 l 372 849 l 83 849 l 83 1004 l 556 1004 l 556 839 q 512 668 556 757 q 370 495 468 579 q 119 353 272 411 l 33 485 m 239 35 q 295 189 239 124 q 456 290 351 254 q 704 325 561 325 q 951 290 846 325 q 1112 189 1056 254 q 1168 35 1168 124 q 1112 -120 1168 -54 q 951 -222 1056 -186 q 704 -257 846 -257 q 456 -222 561 -257 q 295 -120 351 -186 q 239 35 239 -54 m 435 35 q 507 -62 435 -26 q 704 -97 579 -97 q 900 -62 828 -97 q 972 35 972 -26 q 900 130 972 94 q 704 165 828 165 q 507 131 579 165 q 435 35 435 96 m 971 1054 l 1164 1054 l 1164 353 l 971 353 l 971 1054 z "},"겢":{"ha":1389,"x_min":0,"x_max":0,"o":""},"겣":{"ha":1389,"x_min":0,"x_max":0,"o":""},"겤":{"ha":1389,"x_min":0,"x_max":0,"o":""},"겥":{"ha":1389,"x_min":0,"x_max":0,"o":""},"겦":{"ha":1389,"x_min":0,"x_max":0,"o":""},"겧":{"ha":1389,"x_min":0,"x_max":0,"o":""},"겨":{"ha":1278,"x_min":61,"x_max":1142,"o":"m 121 981 l 735 981 l 735 767 q 672 497 735 631 q 482 254 610 364 q 167 79 354 144 l 61 213 q 328 351 218 264 q 492 544 438 439 q 546 754 546 649 l 546 822 l 121 822 l 121 981 m 735 418 l 946 418 l 946 646 l 790 646 l 790 800 l 946 800 l 946 1054 l 1142 1054 l 1142 -221 l 946 -221 l 946 269 l 735 269 l 735 418 z "},"격":{"ha":1278,"x_min":61,"x_max":1142,"o":"m 946 490 l 749 490 l 749 639 l 946 639 l 946 767 l 790 767 l 790 921 l 946 921 l 946 1054 l 1142 1054 l 1142 314 l 946 314 l 946 490 m 61 483 q 546 811 546 578 l 546 849 l 121 849 l 121 1004 l 735 1004 l 735 817 q 677 637 735 729 q 484 466 619 544 q 132 347 349 388 l 61 483 m 260 244 l 1142 244 l 1142 -240 l 946 -240 l 946 86 l 260 86 l 260 244 z "},"겪":{"ha":1278,"x_min":61,"x_max":1142,"o":"m 946 490 l 749 490 l 749 639 l 946 639 l 946 767 l 790 767 l 790 921 l 946 921 l 946 1054 l 1142 1054 l 1142 314 l 946 314 l 946 490 m 61 483 q 546 811 546 578 l 546 849 l 121 849 l 121 1004 l 735 1004 l 735 817 q 677 637 735 729 q 484 466 619 544 q 132 347 349 388 l 61 483 m 219 244 l 657 244 l 657 -240 l 464 -240 l 464 86 l 219 86 l 219 244 m 711 244 l 1142 244 l 1142 -240 l 949 -240 l 949 86 l 711 86 l 711 244 z "},"겫":{"ha":1389,"x_min":0,"x_max":0,"o":""},"견":{"ha":1278,"x_min":61,"x_max":1158,"o":"m 433 -231 q 313 -191 354 -231 q 271 -72 271 -151 l 271 222 l 467 222 l 467 -33 q 476 -60 467 -50 q 503 -69 486 -69 l 1158 -69 l 1158 -231 l 433 -231 m 61 464 q 546 825 546 567 l 546 849 l 121 849 l 121 1004 l 735 1004 l 735 831 q 677 639 735 738 q 484 456 619 540 q 132 328 349 371 l 61 464 m 749 592 l 946 592 l 946 746 l 790 746 l 790 900 l 946 900 l 946 1054 l 1142 1054 l 1142 143 l 946 143 l 946 443 l 749 443 l 749 592 z "},"겭":{"ha":1389,"x_min":0,"x_max":0,"o":""},"겮":{"ha":1389,"x_min":0,"x_max":0,"o":""},"겯":{"ha":1278,"x_min":61,"x_max":1154,"o":"m 946 497 l 749 497 l 749 646 l 946 646 l 946 767 l 790 767 l 790 921 l 946 921 l 946 1054 l 1142 1054 l 1142 325 l 946 325 l 946 497 m 61 497 q 546 818 546 590 l 546 849 l 121 849 l 121 1004 l 735 1004 l 735 824 q 677 651 735 740 q 484 484 619 563 q 132 361 349 406 l 61 497 m 265 251 l 1142 251 l 1142 96 l 461 96 l 461 -43 q 471 -69 461 -60 q 497 -79 481 -79 l 1154 -79 l 1154 -240 l 428 -240 q 307 -201 349 -240 q 265 -82 265 -161 l 265 251 z "},"결":{"ha":1278,"x_min":61,"x_max":1151,"o":"m 946 517 l 749 517 l 749 663 l 946 663 l 946 779 l 790 779 l 790 933 l 946 933 l 946 1054 l 1142 1054 l 1142 383 l 946 383 l 946 517 m 61 544 q 435 660 325 592 q 546 833 546 729 l 546 854 l 121 854 l 121 1010 l 735 1010 l 735 839 q 677 667 735 751 q 485 514 619 583 q 132 408 351 444 l 61 544 m 260 318 l 1142 318 l 1142 -33 l 461 -33 l 461 -78 q 465 -99 461 -94 q 486 -103 469 -103 l 1151 -103 l 1151 -253 l 417 -253 q 301 -219 338 -253 q 265 -106 265 -185 l 265 100 l 946 100 l 946 168 l 260 168 l 260 318 z "},"겱":{"ha":1389,"x_min":0,"x_max":0,"o":""},"겲":{"ha":1389,"x_min":0,"x_max":0,"o":""},"겳":{"ha":1389,"x_min":0,"x_max":0,"o":""},"겴":{"ha":1389,"x_min":0,"x_max":0,"o":""},"겵":{"ha":1389,"x_min":0,"x_max":0,"o":""},"겶":{"ha":1389,"x_min":0,"x_max":0,"o":""},"겷":{"ha":1278,"x_min":61,"x_max":1199,"o":"m 946 517 l 749 517 l 749 663 l 946 663 l 946 779 l 790 779 l 790 933 l 946 933 l 946 1054 l 1142 1054 l 1142 425 l 946 425 l 946 517 m 61 544 q 435 660 325 592 q 546 833 546 729 l 546 854 l 121 854 l 121 1010 l 735 1010 l 735 839 q 677 667 735 751 q 485 514 619 583 q 132 408 351 444 l 61 544 m 189 329 l 606 329 l 606 -25 l 376 -25 l 376 -82 q 381 -103 376 -99 q 401 -107 385 -107 l 647 -107 l 647 -253 l 346 -253 q 231 -219 267 -253 q 194 -106 194 -185 l 194 103 l 424 103 l 424 183 l 189 183 l 189 329 m 656 292 l 829 292 l 829 385 l 1025 385 l 1025 292 l 1199 292 l 1199 133 l 1121 133 q 1156 -15 1156 75 q 1126 -150 1156 -92 q 1045 -240 1097 -208 q 928 -271 993 -271 q 810 -240 863 -271 q 728 -150 758 -208 q 699 -15 699 -92 q 733 133 699 75 l 656 133 l 656 292 m 878 3 q 890 -87 878 -54 q 928 -121 903 -121 q 964 -87 951 -121 q 976 3 976 -54 q 964 92 976 56 q 928 129 951 129 q 890 92 903 129 q 878 3 878 56 z "},"겸":{"ha":1278,"x_min":61,"x_max":1142,"o":"m 946 490 l 749 490 l 749 639 l 946 639 l 946 760 l 790 760 l 790 914 l 946 914 l 946 1054 l 1142 1054 l 1142 339 l 946 339 l 946 490 m 61 508 q 546 825 546 603 l 546 849 l 121 849 l 121 1004 l 735 1004 l 735 831 q 677 656 735 746 q 484 490 619 567 q 132 372 349 413 l 61 508 m 265 268 l 1142 268 l 1142 -240 l 265 -240 l 265 268 m 946 -85 l 946 113 l 461 113 l 461 -85 l 946 -85 z "},"겹":{"ha":1278,"x_min":61,"x_max":1142,"o":"m 946 490 l 749 490 l 749 639 l 946 639 l 946 760 l 790 760 l 790 914 l 946 914 l 946 1054 l 1142 1054 l 1142 344 l 946 344 l 946 490 m 61 508 q 546 825 546 603 l 546 849 l 121 849 l 121 1004 l 735 1004 l 735 831 q 677 656 735 746 q 484 490 619 567 q 132 372 349 413 l 61 508 m 265 285 l 461 285 l 461 182 l 946 182 l 946 285 l 1142 285 l 1142 -240 l 428 -240 q 307 -201 349 -240 q 265 -82 265 -161 l 265 285 m 461 -49 q 471 -75 461 -65 q 497 -85 481 -85 l 946 -85 l 946 29 l 461 29 l 461 -49 z "},"겺":{"ha":1389,"x_min":0,"x_max":0,"o":""},"겻":{"ha":1278,"x_min":61,"x_max":1201,"o":"m 121 1004 l 735 1004 l 735 831 q 677 639 735 738 q 484 456 619 540 q 132 328 349 371 l 61 464 q 546 825 546 567 l 546 849 l 121 849 l 121 1004 m 217 -106 q 510 20 406 -58 q 615 194 614 99 l 615 268 l 813 268 l 813 196 q 800 114 813 151 q 983 -6 861 58 q 1201 -97 1104 -71 l 1124 -250 q 924 -164 1047 -231 q 714 -28 800 -97 q 299 -256 582 -167 l 217 -106 m 749 639 l 946 639 l 946 760 l 790 760 l 790 914 l 946 914 l 946 1054 l 1142 1054 l 1142 199 l 946 199 l 946 490 l 749 490 l 749 639 z "},"겼":{"ha":1278,"x_min":61,"x_max":1221,"o":"m 568 -153 q 750 19 697 -64 q 803 194 803 101 l 803 274 l 990 274 l 990 188 q 986 144 990 168 q 1029 47 990 101 q 1122 -56 1068 -8 q 1221 -122 1176 -103 l 1115 -254 q 1005 -166 1061 -222 q 906 -40 949 -110 q 690 -262 819 -172 l 568 -153 m 61 508 q 546 825 546 603 l 546 849 l 121 849 l 121 1004 l 735 1004 l 735 831 q 677 656 735 746 q 484 490 619 567 q 132 372 349 413 l 61 508 m 124 -149 q 299 15 244 -67 q 354 194 354 97 l 354 274 l 542 274 l 542 214 q 538 157 542 186 q 595 57 549 107 q 683 -14 642 7 l 574 -115 q 474 -19 514 -75 q 378 -153 435 -90 q 254 -262 322 -215 l 124 -149 m 749 639 l 946 639 l 946 760 l 790 760 l 790 914 l 946 914 l 946 1054 l 1142 1054 l 1142 331 l 946 331 l 946 490 l 749 490 l 749 639 z "},"경":{"ha":1278,"x_min":61,"x_max":1144,"o":"m 121 1004 l 735 1004 l 735 817 q 677 637 735 729 q 484 466 619 544 q 132 347 349 388 l 61 483 q 546 811 546 578 l 546 849 l 121 849 l 121 1004 m 299 35 q 349 185 299 119 q 494 288 399 251 q 722 325 590 325 q 949 288 854 325 q 1094 185 1044 251 q 1144 35 1144 119 q 1094 -116 1144 -50 q 949 -219 1044 -182 q 722 -257 854 -257 q 494 -219 590 -257 q 349 -116 399 -182 q 299 35 299 -50 m 494 35 q 554 -61 494 -25 q 722 -97 614 -97 q 889 -61 829 -97 q 949 35 949 -25 q 889 129 949 93 q 722 165 829 165 q 554 129 614 165 q 494 35 494 93 m 749 639 l 946 639 l 946 760 l 790 760 l 790 914 l 946 914 l 946 1054 l 1142 1054 l 1142 351 l 946 351 l 946 490 l 749 490 l 749 639 z "},"겾":{"ha":1389,"x_min":0,"x_max":0,"o":""},"겿":{"ha":1278,"x_min":61,"x_max":1199,"o":"m 946 510 l 749 510 l 749 656 l 946 656 l 946 772 l 790 772 l 790 926 l 946 926 l 946 1054 l 1142 1054 l 1142 339 l 946 339 l 946 510 m 61 544 q 435 660 325 592 q 546 833 546 729 l 546 854 l 121 854 l 121 1010 l 735 1010 l 735 839 q 677 667 735 751 q 485 514 619 583 q 132 408 351 444 l 61 544 m 217 -108 q 617 67 617 -40 l 617 92 l 272 92 l 272 247 l 617 247 l 617 375 l 814 375 l 814 247 l 1149 247 l 1149 92 l 814 92 l 814 56 q 806 4 814 32 q 993 -60 883 -29 q 1199 -106 1103 -92 l 1128 -251 q 920 -199 1050 -240 q 697 -114 790 -157 q 299 -256 567 -197 l 217 -108 z "},"곀":{"ha":1389,"x_min":0,"x_max":0,"o":""},"곁":{"ha":1278,"x_min":61,"x_max":1151,"o":"m 417 -253 q 301 -219 338 -253 q 265 -106 265 -185 l 265 318 l 1142 318 l 1142 168 l 461 168 l 461 100 l 1135 100 l 1135 -33 l 461 -33 l 461 -78 q 465 -99 461 -94 q 486 -103 469 -103 l 1151 -103 l 1151 -253 l 417 -253 m 61 544 q 435 660 325 592 q 546 833 546 729 l 546 854 l 121 854 l 121 1010 l 735 1010 l 735 839 q 677 667 735 751 q 485 514 619 583 q 132 408 351 444 l 61 544 m 749 663 l 946 663 l 946 779 l 790 779 l 790 933 l 946 933 l 946 1054 l 1142 1054 l 1142 383 l 946 383 l 946 517 l 749 517 l 749 663 z "},"곂":{"ha":1389,"x_min":0,"x_max":0,"o":""},"곃":{"ha":1389,"x_min":0,"x_max":0,"o":""},"계":{"ha":1278,"x_min":26,"x_max":1164,"o":"m 683 297 l 543 297 l 543 451 l 683 451 l 683 638 l 579 638 l 579 792 l 683 792 l 683 1054 l 875 1054 l 875 -210 l 683 -210 l 683 297 m 26 204 q 281 450 204 307 q 357 728 357 593 l 357 828 l 83 828 l 83 986 l 546 986 l 546 740 q 453 389 546 564 q 146 79 360 214 l 26 204 m 968 1054 l 1164 1054 l 1164 -221 l 968 -221 l 968 1054 z "},"곅":{"ha":1389,"x_min":0,"x_max":0,"o":""},"곆":{"ha":1389,"x_min":0,"x_max":0,"o":""},"곇":{"ha":1389,"x_min":0,"x_max":0,"o":""},"곈":{"ha":1278,"x_min":33,"x_max":1181,"o":"m 683 446 l 543 446 l 543 600 l 683 600 l 683 738 l 579 738 l 579 892 l 683 892 l 683 1054 l 872 1054 l 872 163 l 683 163 l 683 446 m 33 446 q 290 617 218 518 q 363 814 363 715 l 363 849 l 83 849 l 83 1004 l 546 1004 l 546 819 q 504 641 546 733 q 367 462 463 549 q 119 314 272 375 l 33 446 m 243 222 l 439 222 l 439 -33 q 449 -60 439 -50 q 475 -69 458 -69 l 1181 -69 l 1181 -231 l 406 -231 q 285 -191 326 -231 q 243 -72 243 -151 l 243 222 m 971 1054 l 1164 1054 l 1164 151 l 971 151 l 971 1054 z "},"곉":{"ha":1389,"x_min":0,"x_max":0,"o":""},"곊":{"ha":1389,"x_min":0,"x_max":0,"o":""},"곋":{"ha":1389,"x_min":0,"x_max":0,"o":""},"곌":{"ha":1278,"x_min":33,"x_max":1174,"o":"m 685 507 l 543 507 l 543 661 l 685 661 l 685 760 l 579 760 l 579 914 l 685 914 l 685 1054 l 874 1054 l 874 394 l 685 394 l 685 507 m 33 518 q 290 664 218 579 q 363 833 363 749 l 363 854 l 83 854 l 83 1010 l 546 1010 l 546 839 q 504 678 546 761 q 367 519 463 596 q 119 386 272 442 l 33 518 m 226 318 l 1164 318 l 1164 -33 l 428 -33 l 428 -78 q 432 -99 428 -94 q 453 -103 436 -103 l 1174 -103 l 1174 -253 l 383 -253 q 268 -219 304 -253 q 232 -106 232 -185 l 232 100 l 968 100 l 968 168 l 226 168 l 226 318 m 971 1054 l 1164 1054 l 1164 383 l 971 383 l 971 1054 z "},"곍":{"ha":1389,"x_min":0,"x_max":0,"o":""},"곎":{"ha":1389,"x_min":0,"x_max":0,"o":""},"곏":{"ha":1389,"x_min":0,"x_max":0,"o":""},"곐":{"ha":1389,"x_min":0,"x_max":0,"o":""},"곑":{"ha":1389,"x_min":0,"x_max":0,"o":""},"곒":{"ha":1389,"x_min":0,"x_max":0,"o":""},"곓":{"ha":1389,"x_min":0,"x_max":0,"o":""},"곔":{"ha":1389,"x_min":0,"x_max":0,"o":""},"곕":{"ha":1278,"x_min":33,"x_max":1164,"o":"m 683 507 l 543 507 l 543 661 l 683 661 l 683 763 l 579 763 l 579 917 l 683 917 l 683 1054 l 872 1054 l 872 356 l 683 356 l 683 507 m 33 485 q 290 647 218 553 q 363 833 363 740 l 363 849 l 83 849 l 83 1004 l 546 1004 l 546 839 q 504 667 546 756 q 367 494 463 578 q 119 353 272 411 l 33 485 m 232 285 l 428 285 l 428 182 l 968 182 l 968 285 l 1164 285 l 1164 -240 l 394 -240 q 274 -201 315 -240 q 232 -82 232 -161 l 232 285 m 428 -49 q 438 -75 428 -65 q 464 -85 447 -85 l 968 -85 l 968 29 l 428 29 l 428 -49 m 971 1054 l 1164 1054 l 1164 344 l 971 344 l 971 1054 z "},"곖":{"ha":1389,"x_min":0,"x_max":0,"o":""},"곗":{"ha":1278,"x_min":33,"x_max":1213,"o":"m 683 507 l 543 507 l 543 661 l 683 661 l 683 763 l 579 763 l 579 917 l 683 917 l 683 1054 l 872 1054 l 872 336 l 683 336 l 683 507 m 33 446 q 290 617 218 518 q 363 814 363 715 l 363 849 l 83 849 l 83 1004 l 546 1004 l 546 819 q 504 641 546 733 q 367 462 463 549 q 119 314 272 375 l 33 446 m 194 -103 q 499 16 392 -58 q 608 181 607 90 l 608 268 l 806 268 l 806 182 q 792 103 806 143 q 986 -13 860 49 q 1213 -100 1113 -75 l 1140 -250 q 928 -165 1060 -231 q 706 -32 796 -99 q 268 -256 565 -169 l 194 -103 m 971 1054 l 1164 1054 l 1164 214 l 971 214 l 971 1054 z "},"곘":{"ha":1278,"x_min":33,"x_max":1238,"o":"m 683 507 l 543 507 l 543 661 l 683 661 l 683 763 l 579 763 l 579 917 l 683 917 l 683 1054 l 872 1054 l 872 342 l 683 342 l 683 507 m 33 485 q 290 647 218 553 q 363 833 363 740 l 363 849 l 83 849 l 83 1004 l 546 1004 l 546 839 q 504 667 546 756 q 367 494 463 578 q 119 353 272 411 l 33 485 m 96 -144 q 288 15 228 -62 q 347 185 347 92 l 347 278 l 535 278 l 535 204 q 531 153 535 181 q 590 57 543 104 q 676 -10 636 10 l 567 -111 q 464 -17 508 -74 q 357 -149 421 -86 q 217 -258 293 -211 l 96 -144 m 565 -153 q 744 13 693 -65 q 796 181 796 92 l 796 274 l 982 274 l 982 174 q 978 135 982 156 q 1028 40 985 93 q 1130 -58 1071 -14 q 1238 -122 1189 -103 l 1139 -254 q 1012 -165 1076 -221 q 900 -42 947 -110 q 681 -262 814 -172 l 565 -153 m 971 1054 l 1164 1054 l 1164 331 l 971 331 l 971 1054 z "},"곙":{"ha":1389,"x_min":0,"x_max":0,"o":""},"곚":{"ha":1389,"x_min":0,"x_max":0,"o":""},"곛":{"ha":1389,"x_min":0,"x_max":0,"o":""},"곜":{"ha":1389,"x_min":0,"x_max":0,"o":""},"곝":{"ha":1389,"x_min":0,"x_max":0,"o":""},"곞":{"ha":1389,"x_min":0,"x_max":0,"o":""},"곟":{"ha":1389,"x_min":0,"x_max":0,"o":""},"고":{"ha":1278,"x_min":56,"x_max":1222,"o":"m 56 51 l 431 51 l 431 515 l 626 515 l 626 51 l 1222 51 l 1222 -110 l 56 -110 l 56 51 m 194 975 l 1069 975 l 1069 738 q 1060 476 1069 589 q 1026 256 1051 363 l 840 272 q 872 489 863 381 q 881 725 881 597 l 881 817 l 194 817 l 194 975 z "},"곡":{"ha":1278,"x_min":56,"x_max":1222,"o":"m 56 479 l 438 479 l 438 731 l 633 731 l 633 479 l 1222 479 l 1222 318 l 56 318 l 56 479 m 194 1024 l 1069 1024 l 1069 851 q 1042 575 1069 696 l 858 597 q 881 839 881 726 l 881 865 l 194 865 l 194 1024 m 199 193 l 1074 193 l 1074 -240 l 878 -240 l 878 35 l 199 35 l 199 193 z "},"곢":{"ha":1389,"x_min":0,"x_max":0,"o":""},"곣":{"ha":1389,"x_min":0,"x_max":0,"o":""},"곤":{"ha":1278,"x_min":56,"x_max":1222,"o":"m 56 461 l 438 461 l 438 717 l 633 717 l 633 461 l 1222 461 l 1222 300 l 56 300 l 56 461 m 194 192 l 390 192 l 390 -33 q 400 -60 390 -50 q 426 -69 410 -69 l 1082 -69 l 1082 -231 l 357 -231 q 236 -191 278 -231 q 194 -72 194 -151 l 194 192 m 194 1024 l 1069 1024 l 1069 851 q 1042 561 1069 688 l 858 583 q 881 839 881 721 l 881 865 l 194 865 l 194 1024 z "},"곥":{"ha":1389,"x_min":0,"x_max":0,"o":""},"곦":{"ha":1389,"x_min":0,"x_max":0,"o":""},"곧":{"ha":1278,"x_min":56,"x_max":1222,"o":"m 56 501 l 438 501 l 438 738 l 633 738 l 633 501 l 1222 501 l 1222 340 l 56 340 l 56 501 m 194 1024 l 1069 1024 l 1069 851 q 1042 582 1069 693 l 858 604 q 881 839 881 724 l 881 865 l 194 865 l 194 1024 m 203 221 l 1072 221 l 1072 63 l 399 63 l 399 -47 q 408 -74 399 -64 q 435 -83 418 -83 l 1082 -83 l 1082 -244 l 365 -244 q 244 -205 286 -244 q 203 -86 203 -165 l 203 221 z "},"골":{"ha":1278,"x_min":56,"x_max":1222,"o":"m 351 -253 q 236 -219 272 -253 q 200 -106 200 -185 l 200 104 l 869 104 l 869 183 l 194 183 l 194 328 l 1067 328 l 1067 -29 l 396 -29 l 396 -83 q 400 -104 396 -100 q 421 -108 404 -108 l 1076 -108 l 1076 -253 l 351 -253 m 56 571 l 438 571 l 438 751 l 633 751 l 633 571 l 1222 571 l 1222 424 l 56 424 l 56 571 m 194 1031 l 1069 1031 l 1069 872 q 1042 651 1069 749 l 858 674 q 881 860 881 775 l 881 872 l 194 872 l 194 1031 z "},"곩":{"ha":1389,"x_min":0,"x_max":0,"o":""},"곪":{"ha":1278,"x_min":56,"x_max":1222,"o":"m 338 -253 q 222 -219 258 -253 q 186 -106 186 -185 l 186 107 l 399 107 l 399 189 l 181 189 l 181 335 l 582 335 l 582 -21 l 368 -21 l 368 -82 q 372 -103 368 -99 q 393 -107 376 -107 l 599 -107 l 599 -253 l 338 -253 m 56 572 l 438 572 l 438 751 l 633 751 l 633 572 l 1222 572 l 1222 417 l 56 417 l 56 572 m 194 1031 l 1069 1031 l 1069 872 q 1042 651 1069 749 l 858 674 q 881 860 881 775 l 881 872 l 194 872 l 194 1031 m 647 335 l 1079 335 l 1079 -254 l 647 -254 l 647 335 m 897 -103 l 897 183 l 829 183 l 829 -103 l 897 -103 z "},"곫":{"ha":1389,"x_min":0,"x_max":0,"o":""},"곬":{"ha":1278,"x_min":56,"x_max":1222,"o":"m 56 572 l 438 572 l 438 751 l 633 751 l 633 572 l 1222 572 l 1222 417 l 56 417 l 56 572 m 188 335 l 608 335 l 608 -19 l 375 -19 l 375 -83 q 379 -104 375 -100 q 400 -108 383 -108 l 625 -108 l 625 -147 q 746 28 715 -72 q 776 208 776 128 l 776 333 l 957 333 l 957 232 q 953 179 957 211 q 985 61 957 124 q 1051 -53 1013 -1 q 1121 -129 1089 -106 l 1022 -254 q 950 -177 989 -228 q 881 -68 911 -126 q 738 -262 819 -197 l 625 -160 l 625 -253 l 344 -253 q 229 -219 265 -253 q 193 -106 193 -185 l 193 107 l 425 107 l 425 190 l 188 190 l 188 335 m 194 1031 l 1069 1031 l 1069 872 q 1042 651 1069 749 l 858 674 q 881 860 881 775 l 881 872 l 194 872 l 194 1031 z "},"곭":{"ha":1389,"x_min":0,"x_max":0,"o":""},"곮":{"ha":1389,"x_min":0,"x_max":0,"o":""},"곯":{"ha":1278,"x_min":56,"x_max":1222,"o":"m 56 583 l 438 583 l 438 751 l 633 751 l 633 583 l 1222 583 l 1222 428 l 56 428 l 56 583 m 181 335 l 586 335 l 586 -19 l 368 -19 l 368 -82 q 372 -103 368 -99 q 393 -107 376 -107 l 617 -107 l 617 -253 l 338 -253 q 222 -219 258 -253 q 186 -106 186 -185 l 186 108 l 403 108 l 403 189 l 181 189 l 181 335 m 194 1031 l 1069 1031 l 1069 872 q 1042 651 1069 749 l 858 674 q 881 860 881 775 l 881 872 l 194 872 l 194 1031 m 635 290 l 800 290 l 800 374 l 982 374 l 982 290 l 1136 290 l 1136 132 l 1072 132 q 1104 -17 1104 75 q 1044 -203 1104 -135 q 889 -271 983 -271 q 733 -203 793 -271 q 672 -17 672 -135 q 704 132 672 75 l 635 132 l 635 290 m 840 1 q 852 -89 840 -57 q 889 -121 864 -121 q 924 -89 913 -121 q 936 1 936 -57 q 924 92 936 56 q 889 129 911 129 q 853 92 865 129 q 840 1 840 56 z "},"곰":{"ha":1278,"x_min":56,"x_max":1222,"o":"m 204 218 l 1074 218 l 1074 -240 l 204 -240 l 204 218 m 56 501 l 438 501 l 438 731 l 633 731 l 633 501 l 1222 501 l 1222 340 l 56 340 l 56 501 m 194 1025 l 1069 1025 l 1069 853 q 1063 713 1069 786 q 1042 588 1056 640 l 858 610 q 875 728 869 665 q 881 840 881 792 l 881 867 l 194 867 l 194 1025 m 878 -85 l 878 63 l 400 63 l 400 -85 l 878 -85 z "},"곱":{"ha":1278,"x_min":56,"x_max":1222,"o":"m 56 514 l 438 514 l 438 731 l 633 731 l 633 514 l 1222 514 l 1222 353 l 56 353 l 56 514 m 194 1025 l 1069 1025 l 1069 853 q 1063 713 1069 786 q 1042 588 1056 640 l 858 610 q 875 728 869 665 q 881 840 881 792 l 881 867 l 194 867 l 194 1025 m 204 263 l 400 263 l 400 175 l 878 175 l 878 263 l 1074 263 l 1074 -240 l 367 -240 q 246 -201 288 -240 q 204 -82 204 -161 l 204 263 m 400 -51 q 410 -78 400 -68 q 436 -87 419 -87 l 878 -87 l 878 28 l 400 28 l 400 -51 z "},"곲":{"ha":1389,"x_min":0,"x_max":0,"o":""},"곳":{"ha":1278,"x_min":56,"x_max":1222,"o":"m 56 468 l 438 468 l 438 717 l 633 717 l 633 468 l 1222 468 l 1222 307 l 56 307 l 56 468 m 128 -93 q 432 6 324 -54 q 542 135 540 67 l 542 204 l 739 204 l 739 117 q 733 76 739 97 q 927 -20 803 31 q 1146 -90 1051 -71 l 1078 -236 q 871 -163 1001 -219 q 647 -50 740 -107 q 197 -242 510 -169 l 128 -93 m 194 1025 l 1069 1025 l 1069 853 q 1063 699 1069 779 q 1042 560 1056 618 l 858 582 q 875 715 869 644 q 881 840 881 786 l 881 867 l 194 867 l 194 1025 z "},"곴":{"ha":1389,"x_min":0,"x_max":0,"o":""},"공":{"ha":1278,"x_min":56,"x_max":1222,"o":"m 640 -257 q 426 -219 517 -257 q 287 -117 335 -182 q 239 29 239 -51 q 287 174 239 110 q 426 276 335 239 q 640 314 517 314 q 854 276 764 314 q 992 174 944 239 q 1040 29 1040 110 q 992 -117 1040 -51 q 854 -219 944 -182 q 640 -257 764 -257 m 56 550 l 438 550 l 438 738 l 633 738 l 633 550 l 1222 550 l 1222 389 l 56 389 l 56 550 m 194 1025 l 1069 1025 l 1069 853 q 1063 728 1069 793 q 1042 615 1056 664 l 858 638 q 875 742 869 686 q 881 840 881 797 l 881 867 l 194 867 l 194 1025 m 435 29 q 489 -62 435 -26 q 640 -97 543 -97 q 790 -62 736 -97 q 844 29 844 -26 q 790 119 844 83 q 640 154 736 154 q 489 119 543 154 q 435 29 435 83 z "},"곶":{"ha":1278,"x_min":56,"x_max":1222,"o":"m 56 536 l 438 536 l 438 738 l 633 738 l 633 536 l 1222 536 l 1222 375 l 56 375 l 56 536 m 128 -93 q 435 0 329 -53 q 542 118 540 53 l 542 124 l 175 124 l 175 274 l 1089 274 l 1089 124 l 739 124 l 739 100 q 733 57 739 78 q 924 -28 801 17 q 1146 -90 1047 -74 l 1078 -236 q 863 -169 997 -221 q 639 -65 729 -118 q 197 -242 501 -174 l 128 -93 m 194 1025 l 1069 1025 l 1069 853 q 1063 728 1069 793 q 1042 615 1056 664 l 858 638 q 875 742 869 686 q 881 840 881 797 l 881 867 l 194 867 l 194 1025 z "},"곷":{"ha":1389,"x_min":0,"x_max":0,"o":""},"곸":{"ha":1389,"x_min":0,"x_max":0,"o":""},"곹":{"ha":1278,"x_min":56,"x_max":1222,"o":"m 1072 315 l 1072 171 l 394 171 l 394 103 l 1065 103 l 1065 -31 l 394 -31 l 394 -69 q 404 -96 394 -86 q 431 -106 414 -106 l 1082 -106 l 1082 -253 l 361 -253 q 240 -213 282 -253 q 199 -94 199 -174 l 199 315 l 1072 315 m 56 571 l 438 571 l 438 751 l 633 751 l 633 571 l 1222 571 l 1222 424 l 56 424 l 56 571 m 194 1031 l 1069 1031 l 1069 872 q 1042 651 1069 749 l 858 674 q 881 860 881 775 l 881 872 l 194 872 l 194 1031 z "},"곺":{"ha":1389,"x_min":0,"x_max":0,"o":""},"곻":{"ha":1389,"x_min":0,"x_max":0,"o":""},"과":{"ha":1278,"x_min":56,"x_max":1250,"o":"m 890 1054 l 1086 1054 l 1086 657 l 1250 657 l 1250 499 l 1086 499 l 1086 -218 l 890 -218 l 890 1054 m 56 136 l 250 136 l 250 543 l 446 543 l 446 136 l 826 136 l 826 -25 l 56 -25 l 56 136 m 107 976 l 753 976 l 753 744 q 747 503 753 600 q 725 318 742 407 l 539 335 q 560 506 556 419 q 564 732 564 593 l 564 818 l 107 818 l 107 976 z "},"곽":{"ha":1278,"x_min":56,"x_max":1250,"o":"m 892 1054 l 1088 1054 l 1088 782 l 1250 782 l 1250 624 l 1088 624 l 1088 263 l 892 263 l 892 1054 m 56 481 l 250 481 l 250 724 l 446 724 l 446 481 l 826 481 l 826 325 l 56 325 l 56 481 m 107 1018 l 753 1018 l 753 814 q 728 582 753 711 l 543 599 q 564 801 564 699 l 564 863 l 107 863 l 107 1018 m 217 203 l 1088 203 l 1088 -240 l 892 -240 l 892 47 l 217 47 l 217 203 z "},"곾":{"ha":1389,"x_min":0,"x_max":0,"o":""},"곿":{"ha":1389,"x_min":0,"x_max":0,"o":""},"관":{"ha":1278,"x_min":56,"x_max":1250,"o":"m 385 -231 q 264 -191 306 -231 q 222 -72 222 -151 l 222 178 l 418 178 l 418 -36 q 428 -62 418 -53 q 454 -72 438 -72 l 1104 -72 l 1104 -231 l 385 -231 m 56 446 l 250 446 l 250 696 l 446 696 l 446 446 l 826 446 l 826 288 l 56 288 l 56 446 m 107 1018 l 753 1018 l 753 814 q 728 554 753 699 l 543 571 q 564 801 564 683 l 564 860 l 107 860 l 107 1018 m 892 1054 l 1088 1054 l 1088 763 l 1250 763 l 1250 604 l 1088 604 l 1088 101 l 892 101 l 892 1054 z "},"괁":{"ha":1389,"x_min":0,"x_max":0,"o":""},"괂":{"ha":1389,"x_min":0,"x_max":0,"o":""},"괃":{"ha":1389,"x_min":0,"x_max":0,"o":""},"괄":{"ha":1278,"x_min":56,"x_max":1250,"o":"m 892 1054 l 1088 1054 l 1088 818 l 1250 818 l 1250 660 l 1088 660 l 1088 363 l 892 363 l 892 1054 m 56 557 l 250 557 l 250 751 l 446 751 l 446 557 l 826 557 l 826 406 l 56 406 l 56 557 m 107 1022 l 753 1022 l 753 818 q 728 621 753 729 l 543 638 q 564 806 564 719 l 564 875 l 107 875 l 107 1022 m 217 318 l 1088 318 l 1088 -33 l 418 -33 l 418 -78 q 422 -99 418 -94 q 443 -103 426 -103 l 1097 -103 l 1097 -253 l 374 -253 q 258 -219 294 -253 q 222 -106 222 -185 l 222 100 l 892 100 l 892 168 l 217 168 l 217 318 z "},"괅":{"ha":1389,"x_min":0,"x_max":0,"o":""},"괆":{"ha":1278,"x_min":56,"x_max":1250,"o":"m 892 1054 l 1088 1054 l 1088 846 l 1250 846 l 1250 688 l 1088 688 l 1088 374 l 892 374 l 892 1054 m 56 557 l 250 557 l 250 751 l 446 751 l 446 557 l 826 557 l 826 406 l 56 406 l 56 557 m 107 1022 l 753 1022 l 753 818 q 728 621 753 729 l 543 638 q 564 806 564 719 l 564 875 l 107 875 l 107 1022 m 150 329 l 581 329 l 581 -25 l 338 -25 l 338 -82 q 342 -103 338 -99 q 363 -107 346 -107 l 590 -107 l 590 -253 l 307 -253 q 192 -219 228 -253 q 156 -106 156 -185 l 156 103 l 399 103 l 399 183 l 150 183 l 150 329 m 640 329 l 1088 329 l 1088 -254 l 640 -254 l 640 329 m 906 -103 l 906 178 l 822 178 l 822 -103 l 906 -103 z "},"괇":{"ha":1389,"x_min":0,"x_max":0,"o":""},"괈":{"ha":1389,"x_min":0,"x_max":0,"o":""},"괉":{"ha":1389,"x_min":0,"x_max":0,"o":""},"괊":{"ha":1389,"x_min":0,"x_max":0,"o":""},"괋":{"ha":1389,"x_min":0,"x_max":0,"o":""},"괌":{"ha":1278,"x_min":56,"x_max":1250,"o":"m 892 1054 l 1088 1054 l 1088 782 l 1250 782 l 1250 624 l 1088 624 l 1088 267 l 892 267 l 892 1054 m 56 488 l 250 488 l 250 724 l 446 724 l 446 488 l 826 488 l 826 332 l 56 332 l 56 488 m 107 1018 l 753 1018 l 753 814 q 728 582 753 711 l 543 599 q 564 801 564 699 l 564 863 l 107 863 l 107 1018 m 222 217 l 1088 217 l 1088 -240 l 222 -240 l 222 217 m 892 -85 l 892 61 l 418 61 l 418 -85 l 892 -85 z "},"괍":{"ha":1278,"x_min":56,"x_max":1250,"o":"m 892 1054 l 1088 1054 l 1088 782 l 1250 782 l 1250 624 l 1088 624 l 1088 286 l 892 286 l 892 1054 m 56 490 l 250 490 l 250 724 l 446 724 l 446 490 l 826 490 l 826 335 l 56 335 l 56 490 m 107 1018 l 753 1018 l 753 814 q 728 582 753 711 l 543 599 q 564 801 564 699 l 564 863 l 107 863 l 107 1018 m 222 236 l 418 236 l 418 151 l 892 151 l 892 236 l 1088 236 l 1088 -240 l 385 -240 q 264 -201 306 -240 q 222 -82 222 -161 l 222 236 m 418 -53 q 428 -79 418 -69 q 454 -89 438 -89 l 892 -89 l 892 6 l 418 6 l 418 -53 z "},"괎":{"ha":1389,"x_min":0,"x_max":0,"o":""},"괏":{"ha":1278,"x_min":56,"x_max":1250,"o":"m 56 464 l 250 464 l 250 710 l 446 710 l 446 464 l 826 464 l 826 306 l 56 306 l 56 464 m 107 1018 l 753 1018 l 753 814 q 728 554 753 699 l 543 571 q 564 801 564 683 l 564 860 l 107 860 l 107 1018 m 158 -106 q 456 -10 350 -71 q 563 125 561 51 l 563 203 l 760 203 l 760 126 q 753 75 760 97 q 938 -23 818 29 q 1154 -97 1057 -75 l 1081 -250 q 878 -175 1004 -232 q 663 -60 751 -118 q 236 -256 531 -179 l 158 -106 m 892 1054 l 1088 1054 l 1088 782 l 1250 782 l 1250 624 l 1088 624 l 1088 175 l 892 175 l 892 1054 z "},"괐":{"ha":1278,"x_min":56,"x_max":1250,"o":"m 525 -153 q 708 6 654 -71 q 763 167 763 82 l 763 242 l 950 242 l 950 160 q 947 124 950 149 q 988 32 953 82 q 1072 -61 1024 -18 q 1160 -122 1119 -104 l 1054 -254 q 954 -171 1006 -224 q 864 -54 903 -118 q 647 -262 778 -178 l 525 -153 m 56 494 l 250 494 l 250 724 l 446 724 l 446 494 l 826 494 l 826 339 l 56 339 l 56 494 m 97 -149 q 263 3 210 -72 q 315 167 315 78 l 315 242 l 503 242 l 503 186 q 500 142 503 172 q 560 51 513 97 q 649 -15 607 4 l 533 -115 q 440 -28 475 -78 q 348 -156 403 -96 q 228 -262 293 -217 l 97 -149 m 107 1018 l 753 1018 l 753 814 q 728 582 753 711 l 543 599 q 564 801 564 699 l 564 863 l 107 863 l 107 1018 m 892 1054 l 1088 1054 l 1088 782 l 1250 782 l 1250 624 l 1088 624 l 1088 293 l 892 293 l 892 1054 z "},"광":{"ha":1278,"x_min":56,"x_max":1250,"o":"m 892 1054 l 1088 1054 l 1088 782 l 1250 782 l 1250 624 l 1088 624 l 1088 286 l 892 286 l 892 1054 m 56 504 l 250 504 l 250 724 l 446 724 l 446 504 l 826 504 l 826 349 l 56 349 l 56 504 m 107 1018 l 753 1018 l 753 814 q 728 582 753 711 l 543 599 q 564 801 564 696 l 564 863 l 107 863 l 107 1018 m 224 10 q 336 205 224 135 q 650 275 449 275 q 963 205 850 275 q 1075 10 1075 135 q 963 -187 1075 -117 q 650 -257 850 -257 q 336 -187 449 -257 q 224 10 224 -117 m 419 10 q 481 -72 419 -43 q 650 -101 542 -101 q 819 -72 758 -101 q 879 10 879 -43 q 819 90 879 61 q 650 119 758 119 q 481 90 542 119 q 419 10 419 61 z "},"괒":{"ha":1278,"x_min":56,"x_max":1250,"o":"m 892 1054 l 1088 1054 l 1088 782 l 1250 782 l 1250 624 l 1088 624 l 1088 304 l 892 304 l 892 1054 m 56 514 l 250 514 l 250 724 l 446 724 l 446 514 l 826 514 l 826 358 l 56 358 l 56 514 m 107 1018 l 753 1018 l 753 814 q 728 596 753 717 l 543 613 q 564 801 564 704 l 564 863 l 107 863 l 107 1018 m 203 -106 q 478 -26 379 -76 q 578 83 576 24 l 578 99 l 258 99 l 258 254 l 1093 254 l 1093 99 l 775 99 l 775 75 q 769 35 775 53 q 941 -40 831 0 q 1140 -97 1051 -81 l 1063 -250 q 872 -190 990 -236 q 672 -96 753 -143 q 285 -256 547 -192 l 203 -106 z "},"괓":{"ha":1389,"x_min":0,"x_max":0,"o":""},"괔":{"ha":1389,"x_min":0,"x_max":0,"o":""},"괕":{"ha":1389,"x_min":0,"x_max":0,"o":""},"괖":{"ha":1389,"x_min":0,"x_max":0,"o":""},"괗":{"ha":1389,"x_min":0,"x_max":0,"o":""},"괘":{"ha":1278,"x_min":63,"x_max":1185,"o":"m 733 1054 l 921 1054 l 921 601 l 993 601 l 993 1054 l 1185 1054 l 1185 -221 l 993 -221 l 993 440 l 921 440 l 921 -210 l 733 -210 l 733 1054 m 63 138 l 186 138 l 186 543 l 368 543 l 368 138 l 681 138 l 681 -24 l 63 -24 l 63 138 m 99 976 l 642 976 l 642 743 q 621 317 642 442 l 438 326 q 457 731 457 453 l 457 818 l 99 818 l 99 976 z "},"괙":{"ha":1389,"x_min":0,"x_max":0,"o":""},"괚":{"ha":1389,"x_min":0,"x_max":0,"o":""},"괛":{"ha":1389,"x_min":0,"x_max":0,"o":""},"괜":{"ha":1278,"x_min":63,"x_max":1203,"o":"m 733 1054 l 921 1054 l 921 740 l 993 740 l 993 1054 l 1185 1054 l 1185 92 l 993 92 l 993 579 l 921 579 l 921 103 l 733 103 l 733 1054 m 63 461 l 186 461 l 186 697 l 368 697 l 368 461 l 681 461 l 681 301 l 63 301 l 63 461 m 99 1018 l 642 1018 l 642 840 q 628 564 642 711 l 443 581 q 456 828 456 696 l 456 863 l 99 863 l 99 1018 m 217 178 l 413 178 l 413 -33 q 422 -60 413 -50 q 449 -69 432 -69 l 1203 -69 l 1203 -231 l 379 -231 q 258 -191 300 -231 q 217 -72 217 -151 l 217 178 z "},"괝":{"ha":1389,"x_min":0,"x_max":0,"o":""},"괞":{"ha":1389,"x_min":0,"x_max":0,"o":""},"괟":{"ha":1389,"x_min":0,"x_max":0,"o":""},"괠":{"ha":1278,"x_min":63,"x_max":1196,"o":"m 733 1054 l 921 1054 l 921 851 l 993 851 l 993 1054 l 1185 1054 l 1185 363 l 993 363 l 993 690 l 921 690 l 921 374 l 733 374 l 733 1054 m 63 557 l 186 557 l 186 751 l 368 751 l 368 557 l 681 557 l 681 406 l 63 406 l 63 557 m 99 1022 l 642 1022 l 642 872 q 628 628 642 758 l 443 644 q 456 860 456 746 l 456 875 l 99 875 l 99 1022 m 211 318 l 1186 318 l 1186 -33 l 413 -33 l 413 -79 q 417 -100 413 -96 q 438 -104 421 -104 l 1196 -104 l 1196 -253 l 368 -253 q 253 -219 289 -253 q 217 -106 217 -185 l 217 99 l 990 99 l 990 169 l 211 169 l 211 318 z "},"괡":{"ha":1389,"x_min":0,"x_max":0,"o":""},"괢":{"ha":1278,"x_min":63,"x_max":1186,"o":"m 733 1054 l 921 1054 l 921 851 l 993 851 l 993 1054 l 1185 1054 l 1185 374 l 993 374 l 993 690 l 921 690 l 921 385 l 733 385 l 733 1054 m 63 557 l 186 557 l 186 751 l 368 751 l 368 557 l 681 557 l 681 406 l 63 406 l 63 557 m 99 1022 l 642 1022 l 642 872 q 628 628 642 758 l 443 644 q 456 860 456 746 l 456 875 l 99 875 l 99 1022 m 185 329 l 654 329 l 654 -25 l 372 -25 l 372 -82 q 376 -103 372 -99 q 397 -107 381 -107 l 664 -107 l 664 -253 l 342 -253 q 226 -219 263 -253 q 190 -106 190 -185 l 190 103 l 472 103 l 472 183 l 185 183 l 185 329 m 714 329 l 1186 329 l 1186 -254 l 714 -254 l 714 329 m 1004 -103 l 1004 178 l 896 178 l 896 -103 l 1004 -103 z "},"괣":{"ha":1389,"x_min":0,"x_max":0,"o":""},"괤":{"ha":1389,"x_min":0,"x_max":0,"o":""},"괥":{"ha":1389,"x_min":0,"x_max":0,"o":""},"괦":{"ha":1389,"x_min":0,"x_max":0,"o":""},"괧":{"ha":1389,"x_min":0,"x_max":0,"o":""},"괨":{"ha":1389,"x_min":0,"x_max":0,"o":""},"괩":{"ha":1278,"x_min":63,"x_max":1186,"o":"m 733 1054 l 921 1054 l 921 796 l 993 796 l 993 1054 l 1185 1054 l 1185 282 l 993 282 l 993 635 l 921 635 l 921 289 l 733 289 l 733 1054 m 63 500 l 186 500 l 186 724 l 368 724 l 368 500 l 681 500 l 681 340 l 63 340 l 63 500 m 99 1018 l 642 1018 l 642 840 q 628 592 642 725 l 443 608 q 456 828 456 711 l 456 863 l 99 863 l 99 1018 m 217 238 l 413 238 l 413 151 l 990 151 l 990 238 l 1186 238 l 1186 -240 l 379 -240 q 258 -201 300 -240 q 217 -82 217 -161 l 217 238 m 413 -53 q 422 -79 413 -69 q 449 -89 432 -89 l 990 -89 l 990 6 l 413 6 l 413 -53 z "},"괪":{"ha":1389,"x_min":0,"x_max":0,"o":""},"괫":{"ha":1389,"x_min":0,"x_max":0,"o":""},"괬":{"ha":1278,"x_min":63,"x_max":1236,"o":"m 733 1054 l 919 1054 l 919 810 l 994 810 l 994 1054 l 1185 1054 l 1185 292 l 994 292 l 994 653 l 919 653 l 919 300 l 733 300 l 733 1054 m 63 493 l 197 493 l 197 704 l 371 704 l 371 493 l 681 493 l 681 338 l 63 338 l 63 493 m 93 1018 l 642 1018 l 642 814 q 628 582 642 706 l 443 599 q 453 801 453 699 l 453 863 l 93 863 l 93 1018 m 100 -144 q 281 -5 218 -83 q 344 154 344 74 l 344 240 l 535 240 l 535 163 q 533 136 535 144 q 589 38 540 88 q 681 -35 638 -11 l 551 -132 q 461 -40 499 -97 q 354 -167 417 -110 q 219 -260 292 -225 l 100 -144 m 550 -158 q 800 154 800 -21 l 800 240 l 993 240 l 993 165 q 990 135 993 154 q 1047 25 999 81 q 1150 -72 1094 -31 q 1236 -126 1206 -112 l 1126 -250 q 1010 -163 1071 -218 q 910 -49 950 -108 q 800 -176 864 -117 q 663 -269 736 -235 l 550 -158 z "},"괭":{"ha":1278,"x_min":63,"x_max":1185,"o":"m 733 1054 l 921 1054 l 921 796 l 993 796 l 993 1054 l 1185 1054 l 1185 294 l 993 294 l 993 635 l 921 635 l 921 306 l 733 306 l 733 1054 m 63 500 l 186 500 l 186 724 l 368 724 l 368 500 l 681 500 l 681 340 l 63 340 l 63 500 m 99 1018 l 642 1018 l 642 840 q 628 592 642 725 l 440 608 q 453 828 453 711 l 453 863 l 99 863 l 99 1018 m 254 3 q 374 194 254 126 q 715 261 494 261 q 1056 194 936 261 q 1175 3 1175 126 q 1056 -190 1175 -122 q 715 -257 936 -257 q 374 -190 494 -257 q 254 3 254 -122 m 450 3 q 519 -74 450 -47 q 715 -101 588 -101 q 910 -74 842 -101 q 979 3 979 -47 q 910 78 979 51 q 715 106 842 106 q 519 78 589 106 q 450 3 450 51 z "},"괮":{"ha":1389,"x_min":0,"x_max":0,"o":""},"괯":{"ha":1389,"x_min":0,"x_max":0,"o":""},"괰":{"ha":1389,"x_min":0,"x_max":0,"o":""},"괱":{"ha":1389,"x_min":0,"x_max":0,"o":""},"괲":{"ha":1389,"x_min":0,"x_max":0,"o":""},"괳":{"ha":1389,"x_min":0,"x_max":0,"o":""},"괴":{"ha":1278,"x_min":63,"x_max":1150,"o":"m 954 1054 l 1150 1054 l 1150 -221 l 954 -221 l 954 1054 m 63 131 l 260 131 l 260 543 l 456 543 l 456 131 l 865 131 l 865 -31 l 63 -31 l 63 131 m 114 976 l 776 976 l 776 744 q 770 519 776 610 q 749 346 764 429 l 563 363 q 583 485 578 422 q 588 639 588 549 l 588 732 l 588 818 l 114 818 l 114 976 z "},"괵":{"ha":1278,"x_min":63,"x_max":1150,"o":"m 954 1054 l 1150 1054 l 1150 261 l 954 261 l 954 1054 m 63 483 l 260 483 l 260 724 l 456 724 l 456 483 l 865 483 l 865 325 l 63 325 l 63 483 m 114 1018 l 776 1018 l 776 849 q 749 581 776 722 l 563 597 q 588 836 588 710 l 588 860 l 114 860 l 114 1018 m 231 203 l 1149 203 l 1149 -240 l 953 -240 l 953 47 l 231 47 l 231 203 z "},"괶":{"ha":1389,"x_min":0,"x_max":0,"o":""},"괷":{"ha":1389,"x_min":0,"x_max":0,"o":""},"괸":{"ha":1278,"x_min":63,"x_max":1167,"o":"m 954 1054 l 1150 1054 l 1150 101 l 954 101 l 954 1054 m 63 447 l 260 447 l 260 696 l 456 696 l 456 447 l 865 447 l 865 286 l 63 286 l 63 447 m 107 1018 l 774 1018 l 774 849 q 746 553 774 710 l 560 569 q 585 836 585 694 l 585 863 l 107 863 l 107 1018 m 236 178 l 432 178 l 432 -33 q 442 -60 432 -50 q 468 -69 451 -69 l 1167 -69 l 1167 -231 l 399 -231 q 278 -191 319 -231 q 236 -72 236 -151 l 236 178 z "},"괹":{"ha":1389,"x_min":0,"x_max":0,"o":""},"괺":{"ha":1389,"x_min":0,"x_max":0,"o":""},"괻":{"ha":1389,"x_min":0,"x_max":0,"o":""},"괼":{"ha":1278,"x_min":63,"x_max":1160,"o":"m 954 1054 l 1150 1054 l 1150 383 l 954 383 l 954 1054 m 63 557 l 260 557 l 260 751 l 456 751 l 456 557 l 865 557 l 865 407 l 63 407 l 63 557 m 114 1022 l 776 1022 l 776 853 q 749 619 776 743 l 563 636 q 588 840 588 732 l 588 875 l 114 875 l 114 1022 m 231 318 l 1150 318 l 1150 -33 l 432 -33 l 432 -78 q 436 -99 432 -94 q 457 -103 440 -103 l 1160 -103 l 1160 -253 l 388 -253 q 272 -219 308 -253 q 236 -106 236 -185 l 236 100 l 954 100 l 954 168 l 231 168 l 231 318 z "},"괽":{"ha":1389,"x_min":0,"x_max":0,"o":""},"괾":{"ha":1389,"x_min":0,"x_max":0,"o":""},"괿":{"ha":1389,"x_min":0,"x_max":0,"o":""},"굀":{"ha":1389,"x_min":0,"x_max":0,"o":""},"굁":{"ha":1389,"x_min":0,"x_max":0,"o":""},"굂":{"ha":1389,"x_min":0,"x_max":0,"o":""},"굃":{"ha":1389,"x_min":0,"x_max":0,"o":""},"굄":{"ha":1278,"x_min":63,"x_max":1150,"o":"m 954 1054 l 1150 1054 l 1150 267 l 954 267 l 954 1054 m 63 488 l 260 488 l 260 724 l 456 724 l 456 488 l 865 488 l 865 332 l 63 332 l 63 488 m 114 1018 l 776 1018 l 776 849 q 749 581 776 722 l 563 597 q 588 836 588 710 l 588 860 l 114 860 l 114 1018 m 236 217 l 1150 217 l 1150 -240 l 236 -240 l 236 217 m 954 -85 l 954 61 l 432 61 l 432 -85 l 954 -85 z "},"굅":{"ha":1278,"x_min":63,"x_max":1150,"o":"m 954 1054 l 1150 1054 l 1150 286 l 954 286 l 954 1054 m 63 490 l 260 490 l 260 724 l 456 724 l 456 490 l 865 490 l 865 335 l 63 335 l 63 490 m 114 1018 l 776 1018 l 776 849 q 749 581 776 722 l 563 597 q 588 836 588 710 l 588 860 l 114 860 l 114 1018 m 236 236 l 432 236 l 432 151 l 954 151 l 954 236 l 1150 236 l 1150 -240 l 399 -240 q 278 -201 319 -240 q 236 -82 236 -161 l 236 236 m 432 -53 q 442 -79 432 -69 q 468 -89 451 -89 l 954 -89 l 954 6 l 432 6 l 432 -53 z "},"굆":{"ha":1389,"x_min":0,"x_max":0,"o":""},"굇":{"ha":1278,"x_min":63,"x_max":1201,"o":"m 63 461 l 260 461 l 260 710 l 456 710 l 456 461 l 865 461 l 865 306 l 63 306 l 63 461 m 114 1018 l 776 1018 l 776 849 q 749 553 776 710 l 563 569 q 588 836 588 694 l 588 860 l 114 860 l 114 1018 m 217 -106 q 510 -10 406 -71 q 615 125 614 51 l 615 203 l 813 203 l 813 126 q 806 75 813 97 q 988 -23 869 29 q 1201 -97 1106 -75 l 1124 -250 q 924 -175 1047 -232 q 717 -61 800 -118 q 299 -256 586 -179 l 217 -106 m 954 1054 l 1150 1054 l 1150 175 l 954 175 l 954 1054 z "},"굈":{"ha":1389,"x_min":0,"x_max":0,"o":""},"굉":{"ha":1278,"x_min":63,"x_max":1150,"o":"m 114 1018 l 776 1018 l 776 849 q 749 581 776 722 l 563 597 q 588 836 588 710 l 588 860 l 114 860 l 114 1018 m 63 497 l 260 497 l 260 724 l 456 724 l 456 497 l 865 497 l 865 342 l 63 342 l 63 497 m 258 3 q 375 193 258 125 q 699 261 492 261 q 1022 193 906 261 q 1138 3 1138 125 q 1022 -188 1138 -119 q 699 -257 906 -257 q 375 -188 492 -257 q 258 3 258 -119 m 454 3 q 519 -74 454 -46 q 699 -101 583 -101 q 877 -74 813 -101 q 942 3 942 -46 q 877 78 942 51 q 699 106 813 106 q 519 78 585 106 q 454 3 454 51 m 954 1054 l 1150 1054 l 1150 272 l 954 272 l 954 1054 z "},"굊":{"ha":1389,"x_min":0,"x_max":0,"o":""},"굋":{"ha":1389,"x_min":0,"x_max":0,"o":""},"굌":{"ha":1389,"x_min":0,"x_max":0,"o":""},"굍":{"ha":1389,"x_min":0,"x_max":0,"o":""},"굎":{"ha":1389,"x_min":0,"x_max":0,"o":""},"굏":{"ha":1389,"x_min":0,"x_max":0,"o":""},"교":{"ha":1278,"x_min":56,"x_max":1222,"o":"m 56 51 l 275 51 l 275 515 l 465 515 l 465 51 l 569 51 l 569 515 l 760 515 l 760 51 l 1222 51 l 1222 -110 l 56 -110 l 56 51 m 194 975 l 1069 975 l 1069 738 q 1060 476 1069 589 q 1026 256 1051 363 l 840 272 q 872 489 863 381 q 881 725 881 597 l 881 817 l 194 817 l 194 975 z "},"굑":{"ha":1389,"x_min":0,"x_max":0,"o":""},"굒":{"ha":1389,"x_min":0,"x_max":0,"o":""},"굓":{"ha":1389,"x_min":0,"x_max":0,"o":""},"굔":{"ha":1278,"x_min":56,"x_max":1222,"o":"m 357 -231 q 236 -191 278 -231 q 194 -72 194 -151 l 194 192 l 390 192 l 390 -33 q 400 -60 390 -50 q 426 -69 410 -69 l 1082 -69 l 1082 -231 l 357 -231 m 56 458 l 275 458 l 275 717 l 464 717 l 464 458 l 569 458 l 569 717 l 758 717 l 758 458 l 1222 458 l 1222 297 l 56 297 l 56 458 m 194 1024 l 1069 1024 l 1069 851 q 1042 561 1069 688 l 858 583 q 881 839 881 721 l 881 865 l 194 865 l 194 1024 z "},"굕":{"ha":1389,"x_min":0,"x_max":0,"o":""},"굖":{"ha":1389,"x_min":0,"x_max":0,"o":""},"굗":{"ha":1389,"x_min":0,"x_max":0,"o":""},"굘":{"ha":1278,"x_min":63,"x_max":1215,"o":"m 351 -253 q 236 -219 272 -253 q 200 -106 200 -185 l 200 104 l 869 104 l 869 183 l 194 183 l 194 328 l 1067 328 l 1067 -29 l 396 -29 l 396 -83 q 400 -104 396 -100 q 421 -108 404 -108 l 1076 -108 l 1076 -253 l 351 -253 m 63 571 l 275 571 l 275 751 l 464 751 l 464 571 l 569 571 l 569 751 l 758 751 l 758 571 l 1215 571 l 1215 424 l 63 424 l 63 571 m 194 1031 l 1069 1031 l 1069 872 q 1042 651 1069 749 l 858 674 q 881 860 881 775 l 881 872 l 194 872 l 194 1031 z "},"굙":{"ha":1389,"x_min":0,"x_max":0,"o":""},"굚":{"ha":1389,"x_min":0,"x_max":0,"o":""},"굛":{"ha":1389,"x_min":0,"x_max":0,"o":""},"굜":{"ha":1389,"x_min":0,"x_max":0,"o":""},"굝":{"ha":1389,"x_min":0,"x_max":0,"o":""},"굞":{"ha":1389,"x_min":0,"x_max":0,"o":""},"굟":{"ha":1389,"x_min":0,"x_max":0,"o":""},"굠":{"ha":1278,"x_min":56,"x_max":1222,"o":"m 204 218 l 1074 218 l 1074 -240 l 204 -240 l 204 218 m 56 501 l 275 501 l 275 731 l 464 731 l 464 501 l 569 501 l 569 731 l 758 731 l 758 501 l 1222 501 l 1222 340 l 56 340 l 56 501 m 194 1025 l 1069 1025 l 1069 853 q 1063 713 1069 786 q 1042 588 1056 640 l 858 610 q 875 728 869 665 q 881 840 881 792 l 881 867 l 194 867 l 194 1025 m 878 -85 l 878 63 l 400 63 l 400 -85 l 878 -85 z "},"굡":{"ha":1278,"x_min":56,"x_max":1222,"o":"m 56 514 l 275 514 l 275 731 l 464 731 l 464 514 l 569 514 l 569 731 l 758 731 l 758 514 l 1222 514 l 1222 353 l 56 353 l 56 514 m 194 1025 l 1069 1025 l 1069 853 q 1063 713 1069 786 q 1042 588 1056 640 l 858 610 q 875 728 869 665 q 881 840 881 792 l 881 867 l 194 867 l 194 1025 m 204 263 l 400 263 l 400 175 l 878 175 l 878 263 l 1074 263 l 1074 -240 l 367 -240 q 246 -201 288 -240 q 204 -82 204 -161 l 204 263 m 400 -51 q 410 -78 400 -68 q 436 -87 419 -87 l 878 -87 l 878 28 l 400 28 l 400 -51 z "},"굢":{"ha":1389,"x_min":0,"x_max":0,"o":""},"굣":{"ha":1278,"x_min":56,"x_max":1222,"o":"m 56 468 l 275 468 l 275 717 l 464 717 l 464 468 l 569 468 l 569 717 l 758 717 l 758 468 l 1222 468 l 1222 307 l 56 307 l 56 468 m 128 -93 q 432 6 324 -54 q 542 135 540 67 l 542 204 l 739 204 l 739 117 q 733 76 739 97 q 927 -20 803 31 q 1146 -90 1051 -71 l 1078 -236 q 871 -163 1001 -219 q 647 -50 740 -107 q 197 -242 510 -169 l 128 -93 m 194 1025 l 1069 1025 l 1069 853 q 1063 699 1069 779 q 1042 560 1056 618 l 858 582 q 875 715 869 644 q 881 840 881 786 l 881 867 l 194 867 l 194 1025 z "},"굤":{"ha":1389,"x_min":0,"x_max":0,"o":""},"굥":{"ha":1278,"x_min":63,"x_max":1215,"o":"m 640 -257 q 426 -219 517 -257 q 287 -117 335 -182 q 239 29 239 -51 q 287 174 239 110 q 426 276 335 239 q 640 314 517 314 q 854 276 764 314 q 992 174 944 239 q 1040 29 1040 110 q 992 -117 1040 -51 q 854 -219 944 -182 q 640 -257 764 -257 m 63 543 l 275 543 l 275 738 l 464 738 l 464 543 l 569 543 l 569 738 l 758 738 l 758 543 l 1215 543 l 1215 382 l 63 382 l 63 543 m 194 1025 l 1069 1025 l 1069 853 q 1063 728 1069 793 q 1042 615 1056 664 l 858 638 q 875 742 869 686 q 881 840 881 797 l 881 867 l 194 867 l 194 1025 m 435 29 q 489 -62 435 -26 q 640 -97 543 -97 q 790 -62 736 -97 q 844 29 844 -26 q 790 119 844 83 q 640 154 736 154 q 489 119 543 154 q 435 29 435 83 z "},"굦":{"ha":1389,"x_min":0,"x_max":0,"o":""},"굧":{"ha":1389,"x_min":0,"x_max":0,"o":""},"굨":{"ha":1389,"x_min":0,"x_max":0,"o":""},"굩":{"ha":1389,"x_min":0,"x_max":0,"o":""},"굪":{"ha":1389,"x_min":0,"x_max":0,"o":""},"굫":{"ha":1389,"x_min":0,"x_max":0,"o":""},"구":{"ha":1278,"x_min":56,"x_max":1222,"o":"m 56 318 l 1222 318 l 1222 157 l 738 157 l 738 -218 l 542 -218 l 542 157 l 56 157 l 56 318 m 194 992 l 1069 992 l 1069 790 q 1063 597 1069 685 q 1033 406 1056 510 l 847 422 q 874 609 867 528 q 881 778 881 690 l 881 833 l 194 833 l 194 992 z "},"국":{"ha":1278,"x_min":56,"x_max":1222,"o":"m 56 532 l 1222 532 l 1222 371 l 738 371 l 738 192 l 1074 192 l 1074 -240 l 878 -240 l 878 33 l 200 33 l 200 192 l 542 192 l 542 371 l 56 371 l 56 532 m 194 1025 l 1069 1025 l 1069 853 q 1063 728 1069 793 q 1042 615 1056 664 l 858 638 q 875 742 869 686 q 881 840 881 797 l 881 867 l 194 867 l 194 1025 z "},"굮":{"ha":1389,"x_min":0,"x_max":0,"o":""},"굯":{"ha":1389,"x_min":0,"x_max":0,"o":""},"군":{"ha":1278,"x_min":56,"x_max":1222,"o":"m 551 324 l 56 324 l 56 485 l 1222 485 l 1222 324 l 747 324 l 747 54 l 551 54 l 551 324 m 194 192 l 390 192 l 390 -33 q 400 -60 390 -50 q 426 -69 410 -69 l 1082 -69 l 1082 -231 l 357 -231 q 236 -191 278 -231 q 194 -72 194 -151 l 194 192 m 194 1025 l 1069 1025 l 1069 844 q 1036 574 1069 701 l 853 596 q 881 832 881 725 l 881 867 l 194 867 l 194 1025 z "},"굱":{"ha":1389,"x_min":0,"x_max":0,"o":""},"굲":{"ha":1389,"x_min":0,"x_max":0,"o":""},"굳":{"ha":1278,"x_min":56,"x_max":1222,"o":"m 56 513 l 1222 513 l 1222 351 l 738 351 l 738 221 l 1072 221 l 1072 63 l 399 63 l 399 -47 q 408 -74 399 -64 q 435 -83 418 -83 l 1082 -83 l 1082 -244 l 365 -244 q 244 -205 286 -244 q 203 -86 203 -165 l 203 221 l 542 221 l 542 351 l 56 351 l 56 513 m 194 1024 l 1069 1024 l 1069 851 q 1042 582 1069 693 l 858 604 q 881 839 881 724 l 881 865 l 194 865 l 194 1024 z "},"굴":{"ha":1278,"x_min":56,"x_max":1222,"o":"m 351 -253 q 236 -219 272 -253 q 200 -106 200 -185 l 200 104 l 869 104 l 869 183 l 194 183 l 194 328 l 542 328 l 542 438 l 56 438 l 56 585 l 1222 585 l 1222 438 l 738 438 l 738 328 l 1067 328 l 1067 -29 l 396 -29 l 396 -83 q 400 -104 396 -100 q 421 -108 404 -108 l 1076 -108 l 1076 -253 l 351 -253 m 194 1031 l 1069 1031 l 1069 872 q 1042 651 1069 749 l 858 674 q 881 860 881 775 l 881 872 l 194 872 l 194 1031 z "},"굵":{"ha":1278,"x_min":56,"x_max":1222,"o":"m 338 -253 q 222 -219 258 -253 q 186 -106 186 -185 l 186 107 l 418 107 l 418 189 l 181 189 l 181 335 l 542 335 l 542 438 l 56 438 l 56 585 l 1222 585 l 1222 438 l 738 438 l 738 336 l 1079 336 l 1079 -251 l 883 -251 l 883 185 l 663 185 l 663 264 l 601 264 l 601 -21 l 368 -21 l 368 -82 q 372 -103 368 -99 q 393 -107 376 -107 l 632 -107 l 632 -253 l 338 -253 m 194 1031 l 1069 1031 l 1069 872 q 1042 651 1069 749 l 858 674 q 881 860 881 775 l 881 872 l 194 872 l 194 1031 z "},"굶":{"ha":1278,"x_min":56,"x_max":1222,"o":"m 338 -253 q 222 -219 258 -253 q 186 -106 186 -185 l 186 107 l 399 107 l 399 189 l 181 189 l 181 335 l 542 335 l 542 438 l 56 438 l 56 585 l 1222 585 l 1222 438 l 738 438 l 738 335 l 1079 335 l 1079 -254 l 647 -254 l 647 264 l 582 264 l 582 -21 l 368 -21 l 368 -82 q 372 -103 368 -99 q 393 -107 376 -107 l 599 -107 l 599 -253 l 338 -253 m 194 1031 l 1069 1031 l 1069 872 q 1042 651 1069 749 l 858 674 q 881 860 881 775 l 881 872 l 194 872 l 194 1031 m 897 -103 l 897 183 l 829 183 l 829 -103 l 897 -103 z "},"굷":{"ha":1389,"x_min":0,"x_max":0,"o":""},"굸":{"ha":1389,"x_min":0,"x_max":0,"o":""},"굹":{"ha":1389,"x_min":0,"x_max":0,"o":""},"굺":{"ha":1389,"x_min":0,"x_max":0,"o":""},"굻":{"ha":1278,"x_min":56,"x_max":1222,"o":"m 194 1031 l 1069 1031 l 1069 872 q 1042 651 1069 749 l 858 674 q 881 860 881 775 l 881 872 l 194 872 l 194 1031 m 56 585 l 1222 585 l 1222 438 l 738 438 l 738 314 l 586 314 l 586 -19 l 368 -19 l 368 -82 q 372 -103 368 -99 q 393 -107 376 -107 l 617 -107 l 617 -253 l 338 -253 q 222 -219 258 -253 q 186 -106 186 -185 l 186 108 l 403 108 l 403 189 l 181 189 l 181 335 l 542 335 l 542 438 l 56 438 l 56 585 m 635 285 l 800 285 l 800 374 l 982 374 l 982 285 l 1136 285 l 1136 132 l 1072 132 q 1104 -17 1104 75 q 1044 -203 1104 -135 q 889 -271 983 -271 q 733 -203 793 -271 q 672 -17 672 -135 q 704 132 672 75 l 635 132 l 635 285 m 840 1 q 852 -89 840 -57 q 889 -121 864 -121 q 924 -89 913 -121 q 936 1 936 -57 q 924 92 936 56 q 889 129 911 129 q 853 92 865 129 q 840 1 840 56 z "},"굼":{"ha":1278,"x_min":56,"x_max":1222,"o":"m 204 218 l 542 218 l 542 374 l 56 374 l 56 535 l 1222 535 l 1222 374 l 738 374 l 738 218 l 1074 218 l 1074 -240 l 204 -240 l 204 218 m 194 1025 l 1069 1025 l 1069 867 q 1063 730 1069 800 q 1042 607 1056 660 l 858 629 q 881 854 881 744 l 881 867 l 194 867 l 194 1025 m 878 -85 l 878 63 l 400 63 l 400 -85 l 878 -85 z "},"굽":{"ha":1278,"x_min":56,"x_max":1222,"o":"m 542 374 l 56 374 l 56 535 l 1222 535 l 1222 374 l 738 374 l 738 236 l 542 236 l 542 374 m 194 1025 l 1069 1025 l 1069 867 q 1063 730 1069 800 q 1042 607 1056 660 l 858 629 q 881 854 881 744 l 881 867 l 194 867 l 194 1025 m 204 263 l 400 263 l 400 165 l 878 165 l 878 263 l 1074 263 l 1074 -240 l 367 -240 q 246 -201 288 -240 q 204 -82 204 -161 l 204 263 m 400 -43 q 410 -69 400 -60 q 436 -79 419 -79 l 878 -79 l 878 13 l 400 13 l 400 -43 z "},"굾":{"ha":1389,"x_min":0,"x_max":0,"o":""},"굿":{"ha":1278,"x_min":56,"x_max":1222,"o":"m 56 531 l 1222 531 l 1222 369 l 738 369 l 738 228 l 542 228 l 542 369 l 56 369 l 56 531 m 128 -93 q 432 3 324 -56 q 542 125 540 61 l 542 181 l 739 181 l 739 107 q 733 67 739 88 q 925 -25 800 22 q 1146 -90 1050 -72 l 1078 -236 q 869 -168 1000 -222 q 644 -58 739 -114 q 197 -242 507 -174 l 128 -93 m 194 1025 l 1069 1025 l 1069 853 q 1063 713 1069 786 q 1042 588 1056 640 l 858 610 q 875 728 869 665 q 881 840 881 792 l 881 867 l 194 867 l 194 1025 z "},"궀":{"ha":1389,"x_min":0,"x_max":0,"o":""},"궁":{"ha":1278,"x_min":56,"x_max":1222,"o":"m 640 -257 q 426 -219 517 -257 q 287 -117 335 -182 q 239 29 239 -51 q 319 210 239 133 q 542 307 399 286 l 542 411 l 56 411 l 56 572 l 1222 572 l 1222 411 l 738 411 l 738 307 q 960 210 881 286 q 1040 29 1040 135 q 992 -117 1040 -51 q 854 -219 944 -182 q 640 -257 764 -257 m 194 1025 l 1069 1025 l 1069 867 q 1063 742 1069 807 q 1042 629 1056 678 l 858 651 q 875 756 869 700 q 881 854 881 811 l 881 867 l 194 867 l 194 1025 m 435 29 q 489 -62 435 -26 q 640 -97 543 -97 q 790 -62 736 -97 q 844 29 844 -26 q 790 119 844 83 q 640 154 736 154 q 489 119 543 154 q 435 29 435 83 z "},"궂":{"ha":1278,"x_min":56,"x_max":1222,"o":"m 194 1025 l 1069 1025 l 1069 853 q 1063 728 1069 793 q 1042 615 1056 664 l 858 638 q 875 742 869 686 q 881 840 881 797 l 881 867 l 194 867 l 194 1025 m 56 561 l 1222 561 l 1222 400 l 738 400 l 738 292 l 542 292 l 542 400 l 56 400 l 56 561 m 128 -93 q 435 -15 329 -60 q 542 85 540 31 l 542 90 l 175 90 l 175 240 l 1089 240 l 1089 90 l 739 90 l 739 67 q 735 35 739 51 q 926 -39 804 -1 q 1146 -90 1047 -76 l 1078 -236 q 862 -178 997 -224 q 635 -86 726 -132 q 197 -242 496 -181 l 128 -93 z "},"궃":{"ha":1278,"x_min":56,"x_max":1222,"o":"m 194 1031 l 1069 1031 l 1069 858 q 1042 651 1069 743 l 858 674 q 881 846 881 767 l 881 872 l 194 872 l 194 1031 m 56 613 l 1222 613 l 1222 454 l 738 454 l 738 363 l 542 363 l 542 454 l 56 454 l 56 613 m 128 -93 q 434 -24 328 -64 q 542 63 540 15 l 542 68 l 175 68 l 175 218 l 542 218 l 542 317 l 739 317 l 739 218 l 1089 218 l 1089 68 l 739 68 l 739 40 q 738 22 739 29 q 929 -44 808 -10 q 1146 -90 1050 -78 l 1078 -236 q 863 -183 997 -225 q 638 -97 729 -140 q 197 -242 503 -183 l 128 -93 z "},"궄":{"ha":1389,"x_min":0,"x_max":0,"o":""},"궅":{"ha":1389,"x_min":0,"x_max":0,"o":""},"궆":{"ha":1389,"x_min":0,"x_max":0,"o":""},"궇":{"ha":1389,"x_min":0,"x_max":0,"o":""},"궈":{"ha":1278,"x_min":63,"x_max":1150,"o":"m 954 -35 l 707 -35 l 707 107 l 954 107 l 954 1054 l 1150 1054 l 1150 -221 l 954 -221 l 954 -35 m 63 379 l 865 379 l 865 218 l 549 218 l 549 -208 l 353 -208 l 353 218 l 63 218 l 63 379 m 114 999 l 776 999 l 776 831 q 749 476 776 617 l 563 493 q 582 638 576 561 q 588 818 588 715 l 588 840 l 114 840 l 114 999 z "},"궉":{"ha":1278,"x_min":63,"x_max":1150,"o":"m 954 725 l 768 725 q 749 611 763 671 l 563 628 q 588 836 588 724 l 588 863 l 114 863 l 114 1018 l 776 1018 l 776 881 l 954 881 l 954 1054 l 1150 1054 l 1150 268 l 954 268 l 954 725 m 63 551 l 865 551 l 865 396 l 558 396 l 558 264 l 363 264 l 363 396 l 63 396 l 63 551 m 231 210 l 1149 210 l 1149 -240 l 953 -240 l 953 54 l 231 54 l 231 210 z "},"궊":{"ha":1389,"x_min":0,"x_max":0,"o":""},"궋":{"ha":1389,"x_min":0,"x_max":0,"o":""},"권":{"ha":1278,"x_min":63,"x_max":1165,"o":"m 369 -231 q 249 -191 290 -231 q 207 -72 207 -151 l 207 144 l 403 144 l 403 -33 q 413 -60 403 -50 q 439 -69 422 -69 l 1165 -69 l 1165 -231 l 369 -231 m 63 521 l 865 521 l 865 360 l 558 360 l 558 181 l 363 181 l 363 360 l 63 360 l 63 521 m 114 1018 l 776 1018 l 776 849 q 749 586 776 725 l 563 603 q 588 836 588 711 l 588 863 l 114 863 l 114 1018 m 707 288 l 953 288 l 953 1054 l 1149 1054 l 1149 64 l 953 64 l 953 146 l 707 146 l 707 288 z "},"궍":{"ha":1389,"x_min":0,"x_max":0,"o":""},"궎":{"ha":1389,"x_min":0,"x_max":0,"o":""},"궏":{"ha":1389,"x_min":0,"x_max":0,"o":""},"궐":{"ha":1278,"x_min":63,"x_max":1160,"o":"m 954 747 l 765 747 q 749 646 760 701 l 564 663 q 585 861 585 760 l 585 874 l 107 874 l 107 1022 l 774 1022 l 774 897 l 954 897 l 954 1054 l 1150 1054 l 1150 356 l 954 356 l 954 747 m 63 594 l 865 594 l 865 444 l 558 444 l 558 353 l 363 353 l 363 444 l 63 444 l 63 594 m 231 304 l 1150 304 l 1150 -37 l 432 -37 l 432 -83 q 436 -104 432 -100 q 457 -108 440 -108 l 1160 -108 l 1160 -253 l 388 -253 q 272 -219 308 -253 q 236 -106 236 -185 l 236 90 l 954 90 l 954 160 l 231 160 l 231 304 z "},"궑":{"ha":1389,"x_min":0,"x_max":0,"o":""},"궒":{"ha":1389,"x_min":0,"x_max":0,"o":""},"궓":{"ha":1389,"x_min":0,"x_max":0,"o":""},"궔":{"ha":1389,"x_min":0,"x_max":0,"o":""},"궕":{"ha":1389,"x_min":0,"x_max":0,"o":""},"궖":{"ha":1389,"x_min":0,"x_max":0,"o":""},"궗":{"ha":1389,"x_min":0,"x_max":0,"o":""},"궘":{"ha":1389,"x_min":0,"x_max":0,"o":""},"궙":{"ha":1389,"x_min":0,"x_max":0,"o":""},"궚":{"ha":1389,"x_min":0,"x_max":0,"o":""},"궛":{"ha":1389,"x_min":0,"x_max":0,"o":""},"궜":{"ha":1278,"x_min":63,"x_max":1206,"o":"m 63 551 l 865 551 l 865 396 l 558 396 l 558 267 l 363 267 l 363 396 l 63 396 l 63 551 m 94 -149 q 273 -12 217 -81 q 329 139 329 57 l 329 218 l 517 218 l 517 158 q 514 124 517 146 q 575 43 529 83 q 661 -14 621 3 l 551 -115 q 453 -40 490 -82 q 355 -162 414 -104 q 225 -262 296 -219 l 94 -149 m 107 1018 l 781 1018 l 781 876 l 954 876 l 954 1054 l 1150 1054 l 1150 267 l 954 267 l 954 721 l 774 721 q 756 603 771 692 l 571 619 q 592 843 592 728 l 592 863 l 107 863 l 107 1018 m 546 -153 q 730 -8 676 -78 q 783 139 783 61 l 783 218 l 971 218 l 971 132 q 968 106 971 125 q 1017 19 978 67 q 1110 -67 1057 -28 q 1206 -122 1163 -106 l 1100 -254 q 988 -175 1046 -225 q 889 -64 931 -125 q 668 -262 801 -182 l 546 -153 z "},"궝":{"ha":1278,"x_min":63,"x_max":1150,"o":"m 699 -257 q 375 -188 492 -257 q 258 3 258 -119 q 375 193 258 125 q 699 261 492 261 q 1022 193 906 261 q 1138 3 1138 125 q 1022 -188 1138 -119 q 699 -257 906 -257 m 63 542 l 865 542 l 865 386 l 558 386 l 558 285 l 363 285 l 363 386 l 63 386 l 63 542 m 107 1018 l 781 1018 l 781 878 l 954 878 l 954 1054 l 1150 1054 l 1150 272 l 954 272 l 954 722 l 774 722 q 756 603 771 699 l 571 619 q 592 843 592 728 l 592 863 l 107 863 l 107 1018 m 454 3 q 519 -74 454 -46 q 699 -101 583 -101 q 877 -74 813 -101 q 942 3 942 -46 q 877 78 942 51 q 699 106 813 106 q 519 78 585 106 q 454 3 454 51 z "},"궞":{"ha":1389,"x_min":0,"x_max":0,"o":""},"궟":{"ha":1389,"x_min":0,"x_max":0,"o":""},"궠":{"ha":1389,"x_min":0,"x_max":0,"o":""},"궡":{"ha":1389,"x_min":0,"x_max":0,"o":""},"궢":{"ha":1389,"x_min":0,"x_max":0,"o":""},"궣":{"ha":1389,"x_min":0,"x_max":0,"o":""},"궤":{"ha":1278,"x_min":63,"x_max":1185,"o":"m 738 -33 l 547 -33 l 547 108 l 738 108 l 738 1054 l 925 1054 l 925 -210 l 738 -210 l 738 -33 m 63 379 l 681 379 l 681 218 l 460 218 l 460 -207 l 271 -207 l 271 218 l 63 218 l 63 379 m 93 1000 l 642 1000 l 642 781 q 621 476 642 646 l 436 493 q 453 768 453 632 l 453 842 l 93 842 l 93 1000 m 993 1054 l 1185 1054 l 1185 -221 l 993 -221 l 993 1054 z "},"궥":{"ha":1389,"x_min":0,"x_max":0,"o":""},"궦":{"ha":1389,"x_min":0,"x_max":0,"o":""},"궧":{"ha":1389,"x_min":0,"x_max":0,"o":""},"궨":{"ha":1389,"x_min":0,"x_max":0,"o":""},"궩":{"ha":1389,"x_min":0,"x_max":0,"o":""},"궪":{"ha":1389,"x_min":0,"x_max":0,"o":""},"궫":{"ha":1389,"x_min":0,"x_max":0,"o":""},"궬":{"ha":1389,"x_min":0,"x_max":0,"o":""},"궭":{"ha":1389,"x_min":0,"x_max":0,"o":""},"궮":{"ha":1389,"x_min":0,"x_max":0,"o":""},"궯":{"ha":1389,"x_min":0,"x_max":0,"o":""},"궰":{"ha":1389,"x_min":0,"x_max":0,"o":""},"궱":{"ha":1389,"x_min":0,"x_max":0,"o":""},"궲":{"ha":1389,"x_min":0,"x_max":0,"o":""},"궳":{"ha":1389,"x_min":0,"x_max":0,"o":""},"궴":{"ha":1389,"x_min":0,"x_max":0,"o":""},"궵":{"ha":1389,"x_min":0,"x_max":0,"o":""},"궶":{"ha":1389,"x_min":0,"x_max":0,"o":""},"궷":{"ha":1278,"x_min":63,"x_max":1244,"o":"m 738 718 l 638 718 q 621 593 632 664 l 436 610 q 453 804 453 707 l 453 865 l 93 865 l 93 1021 l 642 1021 l 642 874 l 738 874 l 738 1054 l 925 1054 l 926 283 l 739 283 l 738 718 m 63 519 l 681 519 l 681 364 l 467 364 l 467 164 l 278 164 l 278 364 l 63 364 l 63 519 m 171 -106 q 497 -1 382 -67 q 614 144 613 64 l 614 221 l 811 221 l 811 142 q 803 86 811 115 q 1006 -18 874 38 q 1244 -97 1139 -74 l 1178 -250 q 948 -171 1090 -232 q 711 -47 806 -110 q 242 -256 567 -174 l 171 -106 m 1185 1054 l 1186 151 l 994 151 l 993 1054 l 1185 1054 z "},"궸":{"ha":1278,"x_min":63,"x_max":1236,"o":"m 738 718 l 636 718 q 621 621 628 653 l 436 638 q 453 804 453 721 l 453 865 l 93 865 l 93 1021 l 642 1021 l 642 874 l 738 874 l 738 1054 l 925 1054 l 926 274 l 739 274 l 738 718 m 63 565 l 681 565 l 681 407 l 467 407 l 467 268 l 278 268 l 278 407 l 63 407 l 63 565 m 100 -144 q 281 -5 218 -83 q 344 154 344 74 l 344 218 l 535 218 l 535 163 q 533 136 535 144 q 589 38 540 88 q 681 -35 638 -11 l 551 -132 q 461 -40 499 -97 q 354 -167 417 -110 q 219 -260 292 -225 l 100 -144 m 550 -158 q 800 154 800 -21 l 800 218 l 993 218 l 993 165 q 990 135 993 154 q 1047 25 999 81 q 1150 -72 1094 -31 q 1236 -126 1206 -112 l 1126 -250 q 1010 -163 1071 -218 q 910 -49 950 -108 q 800 -176 864 -117 q 663 -269 736 -235 l 550 -158 m 1185 1054 l 1186 265 l 994 265 l 993 1054 l 1185 1054 z "},"궹":{"ha":1389,"x_min":0,"x_max":0,"o":""},"궺":{"ha":1389,"x_min":0,"x_max":0,"o":""},"궻":{"ha":1389,"x_min":0,"x_max":0,"o":""},"궼":{"ha":1389,"x_min":0,"x_max":0,"o":""},"궽":{"ha":1389,"x_min":0,"x_max":0,"o":""},"궾":{"ha":1389,"x_min":0,"x_max":0,"o":""},"궿":{"ha":1389,"x_min":0,"x_max":0,"o":""},"귀":{"ha":1278,"x_min":63,"x_max":1151,"o":"m 956 1054 l 1151 1054 l 1151 -221 l 956 -221 l 956 1054 m 63 347 l 865 347 l 865 186 l 558 186 l 558 -208 l 363 -208 l 363 186 l 63 186 l 63 347 m 114 999 l 776 999 l 776 831 q 749 463 776 610 l 563 479 q 582 631 576 550 q 588 818 588 711 l 588 840 l 114 840 l 114 999 z "},"귁":{"ha":1278,"x_min":63,"x_max":1150,"o":"m 954 1054 l 1150 1054 l 1150 268 l 954 268 l 954 1054 m 63 551 l 865 551 l 865 396 l 558 396 l 558 264 l 363 264 l 363 396 l 63 396 l 63 551 m 114 1018 l 776 1018 l 776 849 q 749 611 776 738 l 563 628 q 588 836 588 724 l 588 863 l 114 863 l 114 1018 m 231 210 l 1149 210 l 1149 -240 l 953 -240 l 953 54 l 231 54 l 231 210 z "},"귂":{"ha":1389,"x_min":0,"x_max":0,"o":""},"귃":{"ha":1389,"x_min":0,"x_max":0,"o":""},"귄":{"ha":1278,"x_min":63,"x_max":1165,"o":"m 371 -231 q 250 -191 292 -231 q 208 -72 208 -151 l 208 144 l 404 144 l 404 -33 q 414 -60 404 -50 q 440 -69 424 -69 l 1165 -69 l 1165 -231 l 371 -231 m 63 510 l 865 510 l 865 349 l 558 349 l 558 194 l 363 194 l 363 349 l 63 349 l 63 510 m 114 1018 l 776 1018 l 776 849 q 749 586 776 725 l 563 603 q 588 836 588 711 l 588 863 l 114 863 l 114 1018 m 953 1054 l 1149 1054 l 1149 64 l 953 64 l 953 1054 z "},"귅":{"ha":1389,"x_min":0,"x_max":0,"o":""},"귆":{"ha":1389,"x_min":0,"x_max":0,"o":""},"귇":{"ha":1389,"x_min":0,"x_max":0,"o":""},"귈":{"ha":1278,"x_min":63,"x_max":1160,"o":"m 954 1054 l 1150 1054 l 1150 356 l 954 356 l 954 1054 m 63 594 l 865 594 l 865 444 l 558 444 l 558 353 l 363 353 l 363 444 l 63 444 l 63 594 m 114 1022 l 774 1022 l 774 874 q 749 646 774 774 l 564 663 q 585 861 585 760 l 585 874 l 114 874 l 114 1022 m 231 304 l 1150 304 l 1150 -37 l 432 -37 l 432 -83 q 436 -104 432 -100 q 457 -108 440 -108 l 1160 -108 l 1160 -253 l 388 -253 q 272 -219 308 -253 q 236 -106 236 -185 l 236 90 l 954 90 l 954 160 l 231 160 l 231 304 z "},"귉":{"ha":1389,"x_min":0,"x_max":0,"o":""},"귊":{"ha":1389,"x_min":0,"x_max":0,"o":""},"귋":{"ha":1389,"x_min":0,"x_max":0,"o":""},"귌":{"ha":1389,"x_min":0,"x_max":0,"o":""},"귍":{"ha":1389,"x_min":0,"x_max":0,"o":""},"귎":{"ha":1389,"x_min":0,"x_max":0,"o":""},"귏":{"ha":1389,"x_min":0,"x_max":0,"o":""},"귐":{"ha":1278,"x_min":63,"x_max":1150,"o":"m 954 1054 l 1150 1054 l 1150 267 l 954 267 l 954 1054 m 63 550 l 865 550 l 865 394 l 558 394 l 558 267 l 363 267 l 363 394 l 63 394 l 63 550 m 114 1018 l 781 1018 l 781 856 q 756 603 781 744 l 571 619 q 592 843 592 728 l 592 863 l 114 863 l 114 1018 m 236 217 l 1150 217 l 1150 -240 l 236 -240 l 236 217 m 954 -85 l 954 61 l 432 61 l 432 -85 l 954 -85 z "},"귑":{"ha":1278,"x_min":63,"x_max":1150,"o":"m 954 1054 l 1150 1054 l 1150 289 l 954 289 l 954 1054 m 63 550 l 865 550 l 865 394 l 558 394 l 558 279 l 363 279 l 363 394 l 63 394 l 63 550 m 114 1018 l 781 1018 l 781 856 q 756 603 781 744 l 571 619 q 592 843 592 728 l 592 863 l 114 863 l 114 1018 m 236 238 l 432 238 l 432 153 l 954 153 l 954 238 l 1150 238 l 1150 -240 l 399 -240 q 278 -201 319 -240 q 236 -82 236 -161 l 236 238 m 432 -53 q 442 -79 432 -69 q 468 -89 451 -89 l 954 -89 l 954 7 l 432 7 l 432 -53 z "},"귒":{"ha":1389,"x_min":0,"x_max":0,"o":""},"귓":{"ha":1278,"x_min":63,"x_max":1211,"o":"m 954 1054 l 1150 1054 l 1150 144 l 954 144 l 954 1054 m 63 503 l 865 503 l 865 347 l 558 347 l 558 158 l 363 158 l 363 347 l 63 347 l 63 503 m 114 1018 l 776 1018 l 776 849 q 749 572 776 718 l 563 589 q 588 836 588 704 l 588 863 l 114 863 l 114 1018 m 188 -106 q 494 -12 385 -71 q 604 117 603 46 l 604 207 l 801 207 l 801 118 q 794 69 801 92 q 988 -26 863 25 q 1211 -97 1113 -76 l 1136 -250 q 924 -177 1056 -233 q 703 -64 792 -121 q 260 -256 565 -179 l 188 -106 z "},"귔":{"ha":1389,"x_min":0,"x_max":0,"o":""},"귕":{"ha":1278,"x_min":63,"x_max":1150,"o":"m 699 -257 q 375 -188 492 -257 q 258 3 258 -119 q 375 193 258 125 q 699 261 492 261 q 1022 193 906 261 q 1138 3 1138 125 q 1022 -188 1138 -119 q 699 -257 906 -257 m 63 542 l 865 542 l 865 386 l 558 386 l 558 285 l 363 285 l 363 386 l 63 386 l 63 542 m 114 1018 l 781 1018 l 781 849 q 753 583 781 725 l 567 600 q 592 836 592 711 l 592 863 l 114 863 l 114 1018 m 454 3 q 519 -74 454 -46 q 699 -101 583 -101 q 877 -74 813 -101 q 942 3 942 -46 q 877 78 942 51 q 699 106 813 106 q 519 78 585 106 q 454 3 454 51 m 954 1054 l 1150 1054 l 1150 272 l 954 272 l 954 1054 z "},"귖":{"ha":1389,"x_min":0,"x_max":0,"o":""},"귗":{"ha":1389,"x_min":0,"x_max":0,"o":""},"귘":{"ha":1389,"x_min":0,"x_max":0,"o":""},"귙":{"ha":1389,"x_min":0,"x_max":0,"o":""},"귚":{"ha":1389,"x_min":0,"x_max":0,"o":""},"귛":{"ha":1389,"x_min":0,"x_max":0,"o":""},"규":{"ha":1278,"x_min":56,"x_max":1222,"o":"m 56 318 l 1222 318 l 1222 157 l 944 157 l 944 -218 l 749 -218 l 749 157 l 529 157 l 529 -218 l 333 -218 l 333 157 l 56 157 l 56 318 m 194 992 l 1069 992 l 1069 790 q 1063 597 1069 685 q 1033 406 1056 510 l 847 422 q 874 609 867 528 q 881 778 881 690 l 881 833 l 194 833 l 194 992 z "},"귝":{"ha":1389,"x_min":0,"x_max":0,"o":""},"귞":{"ha":1389,"x_min":0,"x_max":0,"o":""},"귟":{"ha":1389,"x_min":0,"x_max":0,"o":""},"균":{"ha":1278,"x_min":56,"x_max":1222,"o":"m 56 492 l 1222 492 l 1222 331 l 975 331 l 975 56 l 785 56 l 785 331 l 649 331 l 649 56 l 458 56 l 458 331 l 56 331 l 56 492 m 194 192 l 390 192 l 390 -33 q 400 -60 390 -50 q 426 -69 410 -69 l 1082 -69 l 1082 -231 l 357 -231 q 236 -191 278 -231 q 194 -72 194 -151 l 194 192 m 194 1025 l 1069 1025 l 1069 844 q 1036 574 1069 701 l 853 596 q 881 832 881 725 l 881 867 l 194 867 l 194 1025 z "},"귡":{"ha":1389,"x_min":0,"x_max":0,"o":""},"귢":{"ha":1389,"x_min":0,"x_max":0,"o":""},"귣":{"ha":1389,"x_min":0,"x_max":0,"o":""},"귤":{"ha":1278,"x_min":56,"x_max":1222,"o":"m 351 -253 q 236 -219 272 -253 q 200 -106 200 -185 l 200 104 l 869 104 l 869 183 l 194 183 l 194 328 l 340 328 l 340 438 l 56 438 l 56 585 l 1222 585 l 1222 438 l 933 438 l 933 328 l 1067 328 l 1067 -29 l 396 -29 l 396 -83 q 400 -104 396 -100 q 421 -108 404 -108 l 1076 -108 l 1076 -253 l 351 -253 m 194 1031 l 1069 1031 l 1069 872 q 1042 651 1069 749 l 858 674 q 881 860 881 775 l 881 872 l 194 872 l 194 1031 m 743 328 l 743 438 l 531 438 l 531 328 l 743 328 z "},"귥":{"ha":1389,"x_min":0,"x_max":0,"o":""},"귦":{"ha":1389,"x_min":0,"x_max":0,"o":""},"귧":{"ha":1389,"x_min":0,"x_max":0,"o":""},"귨":{"ha":1389,"x_min":0,"x_max":0,"o":""},"귩":{"ha":1389,"x_min":0,"x_max":0,"o":""},"귪":{"ha":1389,"x_min":0,"x_max":0,"o":""},"귫":{"ha":1389,"x_min":0,"x_max":0,"o":""},"귬":{"ha":1278,"x_min":56,"x_max":1222,"o":"m 204 218 l 340 218 l 340 374 l 56 374 l 56 535 l 1222 535 l 1222 374 l 933 374 l 933 218 l 1074 218 l 1074 -240 l 204 -240 l 204 218 m 194 1025 l 1069 1025 l 1069 853 q 1063 713 1069 786 q 1042 588 1056 640 l 858 610 q 875 728 869 665 q 881 840 881 792 l 881 867 l 194 867 l 194 1025 m 878 -85 l 878 63 l 400 63 l 400 -85 l 878 -85 m 743 218 l 743 374 l 531 374 l 531 218 l 743 218 z "},"귭":{"ha":1278,"x_min":56,"x_max":1222,"o":"m 736 381 l 551 381 l 551 247 l 400 247 l 400 165 l 878 165 l 878 247 l 736 247 l 736 381 m 56 542 l 1222 542 l 1222 381 l 926 381 l 926 263 l 1074 263 l 1074 -240 l 367 -240 q 246 -201 288 -240 q 204 -82 204 -161 l 204 263 l 361 263 l 361 381 l 56 381 l 56 542 m 194 1025 l 1069 1025 l 1069 853 q 1042 607 1069 714 l 858 629 q 881 840 881 744 l 881 867 l 194 867 l 194 1025 m 400 -43 q 410 -69 400 -60 q 436 -79 419 -79 l 878 -79 l 878 13 l 400 13 l 400 -43 z "},"귮":{"ha":1389,"x_min":0,"x_max":0,"o":""},"귯":{"ha":1389,"x_min":0,"x_max":0,"o":""},"귰":{"ha":1389,"x_min":0,"x_max":0,"o":""},"귱":{"ha":1389,"x_min":0,"x_max":0,"o":""},"귲":{"ha":1389,"x_min":0,"x_max":0,"o":""},"귳":{"ha":1389,"x_min":0,"x_max":0,"o":""},"귴":{"ha":1389,"x_min":0,"x_max":0,"o":""},"귵":{"ha":1389,"x_min":0,"x_max":0,"o":""},"귶":{"ha":1389,"x_min":0,"x_max":0,"o":""},"귷":{"ha":1389,"x_min":0,"x_max":0,"o":""},"그":{"ha":1278,"x_min":56,"x_max":1222,"o":"m 56 60 l 1222 60 l 1222 -101 l 56 -101 l 56 60 m 194 975 l 1069 975 l 1069 738 q 1060 476 1069 589 q 1026 256 1051 363 l 840 272 q 872 489 863 381 q 881 725 881 597 l 881 817 l 194 817 l 194 975 z "},"극":{"ha":1278,"x_min":56,"x_max":1222,"o":"m 56 492 l 1222 492 l 1222 331 l 56 331 l 56 492 m 194 1024 l 1069 1024 l 1069 851 q 1042 575 1069 696 l 858 597 q 881 839 881 726 l 881 865 l 194 865 l 194 1024 m 199 193 l 1074 193 l 1074 -240 l 878 -240 l 878 35 l 199 35 l 199 193 z "},"귺":{"ha":1389,"x_min":0,"x_max":0,"o":""},"귻":{"ha":1389,"x_min":0,"x_max":0,"o":""},"근":{"ha":1278,"x_min":56,"x_max":1222,"o":"m 56 476 l 1222 476 l 1222 315 l 56 315 l 56 476 m 194 192 l 390 192 l 390 -33 q 400 -60 390 -50 q 426 -69 410 -69 l 1082 -69 l 1082 -231 l 357 -231 q 236 -191 278 -231 q 194 -72 194 -151 l 194 192 m 194 1025 l 1069 1025 l 1069 844 q 1036 574 1069 701 l 853 596 q 881 832 881 725 l 881 867 l 194 867 l 194 1025 z "},"귽":{"ha":1389,"x_min":0,"x_max":0,"o":""},"귾":{"ha":1389,"x_min":0,"x_max":0,"o":""},"귿":{"ha":1278,"x_min":56,"x_max":1222,"o":"m 56 501 l 1222 501 l 1222 340 l 56 340 l 56 501 m 194 1024 l 1069 1024 l 1069 851 q 1042 582 1069 693 l 858 604 q 881 839 881 724 l 881 865 l 194 865 l 194 1024 m 203 207 l 1072 207 l 1072 49 l 399 49 l 399 -47 q 408 -74 399 -64 q 435 -83 418 -83 l 1082 -83 l 1082 -244 l 365 -244 q 244 -205 286 -244 q 203 -86 203 -165 l 203 207 z "},"글":{"ha":1278,"x_min":56,"x_max":1222,"o":"m 351 -253 q 236 -219 272 -253 q 200 -106 200 -185 l 200 104 l 869 104 l 869 183 l 194 183 l 194 328 l 1067 328 l 1067 -29 l 396 -29 l 396 -83 q 400 -104 396 -100 q 421 -108 404 -108 l 1076 -108 l 1076 -253 l 351 -253 m 56 578 l 1222 578 l 1222 431 l 56 431 l 56 578 m 194 1031 l 1069 1031 l 1069 872 q 1042 651 1069 749 l 858 674 q 881 860 881 775 l 881 872 l 194 872 l 194 1031 z "},"긁":{"ha":1278,"x_min":56,"x_max":1222,"o":"m 338 -253 q 222 -219 258 -253 q 186 -106 186 -185 l 186 107 l 418 107 l 418 189 l 181 189 l 181 335 l 601 335 l 601 -21 l 368 -21 l 368 -82 q 372 -103 368 -99 q 393 -107 376 -107 l 632 -107 l 632 -253 l 338 -253 m 56 578 l 1222 578 l 1222 431 l 56 431 l 56 578 m 194 1031 l 1069 1031 l 1069 872 q 1042 651 1069 749 l 858 674 q 881 860 881 775 l 881 872 l 194 872 l 194 1031 m 663 336 l 1079 336 l 1079 -251 l 883 -251 l 883 185 l 663 185 l 663 336 z "},"긂":{"ha":1278,"x_min":56,"x_max":1222,"o":"m 338 -253 q 222 -219 258 -253 q 186 -106 186 -185 l 186 107 l 399 107 l 399 189 l 181 189 l 181 335 l 582 335 l 582 -21 l 368 -21 l 368 -82 q 372 -103 368 -99 q 393 -107 376 -107 l 599 -107 l 599 -253 l 338 -253 m 56 578 l 1222 578 l 1222 431 l 56 431 l 56 578 m 194 1031 l 1069 1031 l 1069 872 q 1042 651 1069 749 l 858 674 q 881 860 881 775 l 881 872 l 194 872 l 194 1031 m 647 335 l 1079 335 l 1079 -254 l 647 -254 l 647 335 m 897 -103 l 897 183 l 829 183 l 829 -103 l 897 -103 z "},"긃":{"ha":1389,"x_min":0,"x_max":0,"o":""},"긄":{"ha":1389,"x_min":0,"x_max":0,"o":""},"긅":{"ha":1389,"x_min":0,"x_max":0,"o":""},"긆":{"ha":1389,"x_min":0,"x_max":0,"o":""},"긇":{"ha":1278,"x_min":56,"x_max":1222,"o":"m 194 1031 l 1069 1031 l 1069 872 q 1042 651 1069 749 l 858 674 q 881 860 881 775 l 881 872 l 194 872 l 194 1031 m 56 585 l 1222 585 l 1222 438 l 56 438 l 56 585 m 181 335 l 586 335 l 586 -19 l 368 -19 l 368 -82 q 372 -103 368 -99 q 393 -107 376 -107 l 617 -107 l 617 -253 l 338 -253 q 222 -219 258 -253 q 186 -106 186 -185 l 186 108 l 403 108 l 403 189 l 181 189 l 181 335 m 635 290 l 800 290 l 800 374 l 982 374 l 982 290 l 1136 290 l 1136 132 l 1072 132 q 1104 -17 1104 75 q 1044 -203 1104 -135 q 889 -271 983 -271 q 733 -203 793 -271 q 672 -17 672 -135 q 704 132 672 75 l 635 132 l 635 290 m 840 1 q 852 -89 840 -57 q 889 -121 864 -121 q 924 -89 913 -121 q 936 1 936 -57 q 924 92 936 56 q 889 129 911 129 q 853 92 865 129 q 840 1 840 56 z "},"금":{"ha":1278,"x_min":56,"x_max":1222,"o":"m 204 218 l 1074 218 l 1074 -240 l 204 -240 l 204 218 m 56 519 l 1222 519 l 1222 358 l 56 358 l 56 519 m 194 1025 l 1069 1025 l 1069 853 q 1063 713 1069 786 q 1042 588 1056 640 l 858 610 q 875 728 869 665 q 881 840 881 792 l 881 867 l 194 867 l 194 1025 m 878 -85 l 878 63 l 400 63 l 400 -85 l 878 -85 z "},"급":{"ha":1278,"x_min":56,"x_max":1222,"o":"m 56 529 l 1222 529 l 1222 368 l 56 368 l 56 529 m 194 1025 l 1069 1025 l 1069 853 q 1063 713 1069 786 q 1042 588 1056 640 l 858 610 q 875 728 869 665 q 881 840 881 792 l 881 867 l 194 867 l 194 1025 m 204 263 l 400 263 l 400 175 l 878 175 l 878 263 l 1074 263 l 1074 -240 l 367 -240 q 246 -201 288 -240 q 204 -82 204 -161 l 204 263 m 400 -51 q 410 -78 400 -68 q 436 -87 419 -87 l 878 -87 l 878 28 l 400 28 l 400 -51 z "},"긊":{"ha":1389,"x_min":0,"x_max":0,"o":""},"긋":{"ha":1278,"x_min":56,"x_max":1222,"o":"m 56 482 l 1222 482 l 1222 321 l 56 321 l 56 482 m 128 -93 q 432 6 324 -54 q 542 135 540 67 l 542 204 l 739 204 l 739 117 q 733 76 739 97 q 927 -20 803 31 q 1146 -90 1051 -71 l 1078 -236 q 871 -163 1001 -219 q 647 -50 740 -107 q 197 -242 510 -169 l 128 -93 m 194 1025 l 1069 1025 l 1069 853 q 1063 699 1069 779 q 1042 560 1056 618 l 858 582 q 875 715 869 644 q 881 840 881 786 l 881 867 l 194 867 l 194 1025 z "},"긌":{"ha":1389,"x_min":0,"x_max":0,"o":""},"긍":{"ha":1278,"x_min":56,"x_max":1222,"o":"m 640 -257 q 426 -219 517 -257 q 287 -117 335 -182 q 239 29 239 -51 q 287 174 239 110 q 426 276 335 239 q 640 314 517 314 q 854 276 764 314 q 992 174 944 239 q 1040 29 1040 110 q 992 -117 1040 -51 q 854 -219 944 -182 q 640 -257 764 -257 m 56 558 l 1222 558 l 1222 397 l 56 397 l 56 558 m 194 1025 l 1069 1025 l 1069 853 q 1063 728 1069 793 q 1042 615 1056 664 l 858 638 q 875 742 869 686 q 881 840 881 797 l 881 867 l 194 867 l 194 1025 m 435 29 q 489 -62 435 -26 q 640 -97 543 -97 q 790 -62 736 -97 q 844 29 844 -26 q 790 119 844 83 q 640 154 736 154 q 489 119 543 154 q 435 29 435 83 z "},"긎":{"ha":1389,"x_min":0,"x_max":0,"o":""},"긏":{"ha":1278,"x_min":56,"x_max":1222,"o":"m 56 585 l 1222 585 l 1222 424 l 56 424 l 56 585 m 128 -93 q 542 83 540 -24 l 542 90 l 175 90 l 175 240 l 542 240 l 542 339 l 739 339 l 739 240 l 1089 240 l 1089 90 l 739 90 l 739 65 q 736 40 739 57 q 926 -36 806 3 q 1146 -90 1047 -75 l 1078 -236 q 865 -176 997 -222 q 642 -82 732 -129 q 197 -242 507 -178 l 128 -93 m 194 1031 l 1069 1031 l 1069 872 q 1042 651 1069 749 l 858 674 q 881 860 881 775 l 881 872 l 194 872 l 194 1031 z "},"긐":{"ha":1389,"x_min":0,"x_max":0,"o":""},"긑":{"ha":1278,"x_min":56,"x_max":1222,"o":"m 1072 329 l 1072 185 l 394 185 l 394 110 l 1065 110 l 1065 -24 l 394 -24 l 394 -69 q 404 -96 394 -86 q 431 -106 414 -106 l 1082 -106 l 1082 -253 l 361 -253 q 240 -213 282 -253 q 199 -94 199 -174 l 199 329 l 1072 329 m 56 585 l 1222 585 l 1222 438 l 56 438 l 56 585 m 194 1031 l 1069 1031 l 1069 872 q 1042 651 1069 749 l 858 674 q 881 860 881 775 l 881 872 l 194 872 l 194 1031 z "},"긒":{"ha":1389,"x_min":0,"x_max":0,"o":""},"긓":{"ha":1278,"x_min":56,"x_max":1222,"o":"m 1104 154 l 172 154 l 172 294 l 540 294 l 540 374 l 736 374 l 736 294 l 1104 294 l 1104 154 m 56 581 l 1222 581 l 1222 433 l 56 433 l 56 581 m 194 1031 l 1069 1031 l 1069 872 q 1042 651 1069 749 l 858 674 q 881 860 881 775 l 881 872 l 194 872 l 194 1031 m 244 -72 q 346 62 244 15 q 640 108 447 108 q 934 62 833 108 q 1035 -72 1035 15 q 934 -215 1035 -165 q 640 -264 833 -264 q 346 -214 447 -264 q 244 -72 244 -164 m 433 -72 q 485 -115 433 -100 q 640 -131 538 -131 q 794 -115 742 -131 q 846 -72 846 -100 q 794 -29 846 -44 q 640 -14 742 -14 q 485 -29 538 -14 q 433 -72 433 -44 z "},"긔":{"ha":1278,"x_min":63,"x_max":1150,"o":"m 954 1054 l 1150 1054 l 1150 -221 l 954 -221 l 954 1054 m 63 144 l 865 144 l 865 -17 l 63 -17 l 63 144 m 114 976 l 776 976 l 776 744 q 771 510 776 604 q 749 328 765 415 l 563 344 q 583 511 579 426 q 588 732 588 596 l 588 818 l 114 818 l 114 976 z "},"긕":{"ha":1389,"x_min":0,"x_max":0,"o":""},"긖":{"ha":1389,"x_min":0,"x_max":0,"o":""},"긗":{"ha":1389,"x_min":0,"x_max":0,"o":""},"긘":{"ha":1278,"x_min":63,"x_max":1167,"o":"m 954 1054 l 1150 1054 l 1150 101 l 954 101 l 954 1054 m 63 475 l 865 475 l 865 314 l 63 314 l 63 475 m 114 1018 l 776 1018 l 776 849 q 749 553 776 710 l 563 569 q 588 836 588 694 l 588 860 l 114 860 l 114 1018 m 236 178 l 432 178 l 432 -33 q 442 -60 432 -50 q 468 -69 451 -69 l 1167 -69 l 1167 -231 l 399 -231 q 278 -191 319 -231 q 236 -72 236 -151 l 236 178 z "},"긙":{"ha":1389,"x_min":0,"x_max":0,"o":""},"긚":{"ha":1389,"x_min":0,"x_max":0,"o":""},"긛":{"ha":1389,"x_min":0,"x_max":0,"o":""},"긜":{"ha":1389,"x_min":0,"x_max":0,"o":""},"긝":{"ha":1389,"x_min":0,"x_max":0,"o":""},"긞":{"ha":1389,"x_min":0,"x_max":0,"o":""},"긟":{"ha":1389,"x_min":0,"x_max":0,"o":""},"긠":{"ha":1389,"x_min":0,"x_max":0,"o":""},"긡":{"ha":1389,"x_min":0,"x_max":0,"o":""},"긢":{"ha":1389,"x_min":0,"x_max":0,"o":""},"긣":{"ha":1389,"x_min":0,"x_max":0,"o":""},"긤":{"ha":1389,"x_min":0,"x_max":0,"o":""},"긥":{"ha":1389,"x_min":0,"x_max":0,"o":""},"긦":{"ha":1389,"x_min":0,"x_max":0,"o":""},"긧":{"ha":1389,"x_min":0,"x_max":0,"o":""},"긨":{"ha":1389,"x_min":0,"x_max":0,"o":""},"긩":{"ha":1278,"x_min":63,"x_max":1150,"o":"m 699 -257 q 375 -188 492 -257 q 258 3 258 -119 q 375 193 258 125 q 699 261 492 261 q 1022 193 906 261 q 1138 3 1138 125 q 1022 -188 1138 -119 q 699 -257 906 -257 m 63 507 l 865 507 l 865 351 l 63 351 l 63 507 m 114 1018 l 776 1018 l 776 849 q 749 583 776 725 l 563 600 q 588 836 588 711 l 588 863 l 114 863 l 114 1018 m 454 3 q 519 -74 454 -46 q 699 -101 583 -101 q 877 -74 813 -101 q 942 3 942 -46 q 877 78 942 51 q 699 106 813 106 q 519 78 585 106 q 454 3 454 51 m 954 1054 l 1150 1054 l 1150 272 l 954 272 l 954 1054 z "},"긪":{"ha":1389,"x_min":0,"x_max":0,"o":""},"긫":{"ha":1389,"x_min":0,"x_max":0,"o":""},"긬":{"ha":1389,"x_min":0,"x_max":0,"o":""},"긭":{"ha":1389,"x_min":0,"x_max":0,"o":""},"긮":{"ha":1389,"x_min":0,"x_max":0,"o":""},"긯":{"ha":1389,"x_min":0,"x_max":0,"o":""},"기":{"ha":1278,"x_min":61,"x_max":1142,"o":"m 946 1054 l 1142 1054 l 1142 -221 l 946 -221 l 946 1054 m 61 213 q 331 351 221 264 q 497 544 442 439 q 553 754 553 649 l 553 822 l 121 822 l 121 981 l 742 981 l 742 767 q 678 497 742 631 q 486 254 615 364 q 167 79 357 144 l 61 213 z "},"긱":{"ha":1278,"x_min":61,"x_max":1142,"o":"m 946 1054 l 1142 1054 l 1142 314 l 946 314 l 946 1054 m 61 483 q 553 811 553 578 l 553 849 l 121 849 l 121 1004 l 742 1004 l 742 817 q 683 637 742 729 q 488 466 625 544 q 132 347 351 388 l 61 483 m 260 244 l 1142 244 l 1142 -240 l 946 -240 l 946 86 l 260 86 l 260 244 z "},"긲":{"ha":1389,"x_min":0,"x_max":0,"o":""},"긳":{"ha":1389,"x_min":0,"x_max":0,"o":""},"긴":{"ha":1278,"x_min":61,"x_max":1158,"o":"m 433 -231 q 313 -191 354 -231 q 271 -72 271 -151 l 271 222 l 467 222 l 467 -33 q 476 -60 467 -50 q 503 -69 486 -69 l 1158 -69 l 1158 -231 l 433 -231 m 61 464 q 553 825 553 567 l 553 849 l 121 849 l 121 1004 l 742 1004 l 742 831 q 683 639 742 738 q 488 456 625 540 q 132 328 351 371 l 61 464 m 946 1054 l 1142 1054 l 1142 143 l 946 143 l 946 1054 z "},"긵":{"ha":1389,"x_min":0,"x_max":0,"o":""},"긶":{"ha":1389,"x_min":0,"x_max":0,"o":""},"긷":{"ha":1278,"x_min":61,"x_max":1154,"o":"m 946 1054 l 1142 1054 l 1142 325 l 946 325 l 946 1054 m 61 497 q 553 818 553 590 l 553 849 l 121 849 l 121 1004 l 742 1004 l 742 824 q 683 651 742 740 q 488 484 625 563 q 132 361 351 406 l 61 497 m 265 251 l 1142 251 l 1142 96 l 461 96 l 461 -43 q 471 -69 461 -60 q 497 -79 481 -79 l 1154 -79 l 1154 -240 l 428 -240 q 307 -201 349 -240 q 265 -82 265 -161 l 265 251 z "},"길":{"ha":1278,"x_min":61,"x_max":1151,"o":"m 946 1054 l 1142 1054 l 1142 383 l 946 383 l 946 1054 m 61 544 q 440 660 326 592 q 553 833 553 729 l 553 854 l 121 854 l 121 1010 l 742 1010 l 742 839 q 683 667 742 751 q 488 514 624 583 q 132 408 351 444 l 61 544 m 260 318 l 1142 318 l 1142 -33 l 461 -33 l 461 -78 q 465 -99 461 -94 q 486 -103 469 -103 l 1151 -103 l 1151 -253 l 417 -253 q 301 -219 338 -253 q 265 -106 265 -185 l 265 100 l 946 100 l 946 168 l 260 168 l 260 318 z "},"긹":{"ha":1389,"x_min":0,"x_max":0,"o":""},"긺":{"ha":1278,"x_min":61,"x_max":1142,"o":"m 946 1054 l 1142 1054 l 1142 394 l 946 394 l 946 1054 m 61 558 q 350 629 242 589 q 506 721 458 669 q 553 840 553 772 l 553 854 l 121 854 l 121 1010 l 742 1010 l 742 846 q 684 677 742 760 q 490 526 626 594 q 132 422 353 457 l 61 558 m 189 329 l 622 329 l 622 -25 l 376 -25 l 376 -82 q 381 -103 376 -99 q 401 -107 385 -107 l 632 -107 l 632 -253 l 346 -253 q 231 -219 267 -253 q 194 -106 194 -185 l 194 103 l 440 103 l 440 183 l 189 183 l 189 329 m 690 331 l 1140 331 l 1140 -254 l 690 -254 l 690 331 m 958 -103 l 958 179 l 872 179 l 872 -103 l 958 -103 z "},"긻":{"ha":1389,"x_min":0,"x_max":0,"o":""},"긼":{"ha":1389,"x_min":0,"x_max":0,"o":""},"긽":{"ha":1389,"x_min":0,"x_max":0,"o":""},"긾":{"ha":1389,"x_min":0,"x_max":0,"o":""},"긿":{"ha":1389,"x_min":0,"x_max":0,"o":""},"김":{"ha":1278,"x_min":61,"x_max":1142,"o":"m 946 1054 l 1142 1054 l 1142 339 l 946 339 l 946 1054 m 61 508 q 553 825 553 603 l 553 849 l 121 849 l 121 1004 l 742 1004 l 742 831 q 683 656 742 746 q 488 490 625 567 q 132 372 351 413 l 61 508 m 265 268 l 1142 268 l 1142 -240 l 265 -240 l 265 268 m 946 -85 l 946 113 l 461 113 l 461 -85 l 946 -85 z "},"깁":{"ha":1278,"x_min":61,"x_max":1142,"o":"m 946 1054 l 1142 1054 l 1142 344 l 946 344 l 946 1054 m 61 508 q 553 825 553 603 l 553 849 l 121 849 l 121 1004 l 742 1004 l 742 831 q 683 656 742 746 q 488 490 625 567 q 132 372 351 413 l 61 508 m 265 285 l 461 285 l 461 182 l 946 182 l 946 285 l 1142 285 l 1142 -240 l 428 -240 q 307 -201 349 -240 q 265 -82 265 -161 l 265 285 m 461 -49 q 471 -75 461 -65 q 497 -85 481 -85 l 946 -85 l 946 29 l 461 29 l 461 -49 z "},"깂":{"ha":1389,"x_min":0,"x_max":0,"o":""},"깃":{"ha":1278,"x_min":61,"x_max":1201,"o":"m 121 1004 l 742 1004 l 742 831 q 683 639 742 738 q 488 456 625 540 q 132 328 351 371 l 61 464 q 553 825 553 567 l 553 849 l 121 849 l 121 1004 m 217 -106 q 510 20 406 -58 q 615 194 614 99 l 615 268 l 813 268 l 813 196 q 800 114 813 151 q 983 -6 861 58 q 1201 -97 1104 -71 l 1124 -250 q 924 -164 1047 -231 q 714 -28 800 -97 q 299 -256 582 -167 l 217 -106 m 946 1054 l 1142 1054 l 1142 199 l 946 199 l 946 1054 z "}}}
